Roman_opsz17_wght700.ufo
<glyph name="exclam" format="2">
  <advance width="644.0"/>
  <unicode hex="0021"/>
  <outline>
    <contour>
      <point x="322.0" y="416.0" type="curve" smooth="yes"/>
      <point x="358.0" y="416.0"/>
      <point x="358.0" y="420.0"/>
      <point x="364.0" y="452.0" type="curve" smooth="yes"/>
      <point x="463.0" y="1200.0"/>
      <point x="461.0" y="1256.0"/>
      <point x="456.0" y="1278.0" type="curve"/>
      <point x="456.0" y="1348.0"/>
      <point x="390.0" y="1398.0"/>
      <point x="322.0" y="1398.0" type="curve" smooth="yes"/>
      <point x="254.0" y="1398.0"/>
      <point x="188.0" y="1348.0"/>
      <point x="188.0" y="1278.0" type="curve"/>
      <point x="183.0" y="1247.0"/>
      <point x="179.0" y="1207.0"/>
      <point x="280.0" y="458.0" type="curve" smooth="yes"/>
      <point x="286.0" y="414.0"/>
      <point x="286.0" y="416.0"/>
    </contour>
    <contour>
      <point x="322.0" y="0.0" type="curve" smooth="yes"/>
      <point x="394.0" y="0.0"/>
      <point x="454.0" y="58.0"/>
      <point x="454.0" y="132.0" type="curve" smooth="yes"/>
      <point x="454.0" y="204.0"/>
      <point x="396.0" y="264.0"/>
      <point x="322.0" y="264.0" type="curve" smooth="yes"/>
      <point x="250.0" y="264.0"/>
      <point x="190.0" y="206.0"/>
      <point x="190.0" y="132.0" type="curve" smooth="yes"/>
      <point x="190.0" y="60.0"/>
      <point x="248.0" y="0.0"/>
    </contour>
  </outline>
</glyph>
<glyph name="numbersign" format="2">
  <advance width="1794.0"/>
  <unicode hex="0023"/>
  <outline>
    <contour>
      <point x="410.0" y="-390.0" type="curve" smooth="yes"/>
      <point x="448.0" y="-390.0"/>
      <point x="458.0" y="-356.0"/>
      <point x="464.0" y="-338.0" type="curve" smooth="yes"/>
      <point x="632.0" y="236.0" type="line"/>
      <point x="1002.0" y="236.0" type="line"/>
      <point x="951.0" y="59.0"/>
      <point x="899.0" y="-117.0"/>
      <point x="848.0" y="-294.0" type="curve"/>
      <point x="840.0" y="-322.0"/>
      <point x="840.0" y="-320.0"/>
      <point x="840.0" y="-334.0" type="curve" smooth="yes"/>
      <point x="840.0" y="-362.0"/>
      <point x="862.0" y="-390.0"/>
      <point x="898.0" y="-390.0" type="curve" smooth="yes"/>
      <point x="936.0" y="-390.0"/>
      <point x="946.0" y="-356.0"/>
      <point x="952.0" y="-338.0" type="curve" smooth="yes"/>
      <point x="1120.0" y="236.0" type="line"/>
      <point x="1590.0" y="236.0" type="line" smooth="yes"/>
      <point x="1626.0" y="236.0"/>
      <point x="1684.0" y="236.0"/>
      <point x="1684.0" y="294.0" type="curve" smooth="yes"/>
      <point x="1684.0" y="348.0"/>
      <point x="1634.0" y="348.0"/>
      <point x="1610.0" y="348.0" type="curve" smooth="yes"/>
      <point x="1156.0" y="348.0" type="line"/>
      <point x="1242.0" y="652.0" type="line"/>
      <point x="1610.0" y="652.0" type="line" smooth="yes"/>
      <point x="1634.0" y="652.0"/>
      <point x="1684.0" y="652.0"/>
      <point x="1684.0" y="706.0" type="curve" smooth="yes"/>
      <point x="1684.0" y="764.0"/>
      <point x="1626.0" y="764.0"/>
      <point x="1590.0" y="764.0" type="curve" smooth="yes"/>
      <point x="1278.0" y="764.0" type="line"/>
      <point x="1432.0" y="1292.0" type="line"/>
      <point x="1444.0" y="1332.0"/>
      <point x="1440.0" y="1320.0"/>
      <point x="1440.0" y="1332.0" type="curve" smooth="yes"/>
      <point x="1440.0" y="1360.0"/>
      <point x="1418.0" y="1388.0"/>
      <point x="1382.0" y="1388.0" type="curve" smooth="yes"/>
      <point x="1342.0" y="1388.0"/>
      <point x="1332.0" y="1352.0"/>
      <point x="1326.0" y="1332.0" type="curve" smooth="yes"/>
      <point x="1160.0" y="764.0" type="line"/>
      <point x="790.0" y="764.0" type="line"/>
      <point x="944.0" y="1292.0" type="line"/>
      <point x="956.0" y="1332.0"/>
      <point x="952.0" y="1320.0"/>
      <point x="952.0" y="1332.0" type="curve" smooth="yes"/>
      <point x="952.0" y="1360.0"/>
      <point x="930.0" y="1388.0"/>
      <point x="894.0" y="1388.0" type="curve" smooth="yes"/>
      <point x="854.0" y="1388.0"/>
      <point x="844.0" y="1352.0"/>
      <point x="838.0" y="1332.0" type="curve" smooth="yes"/>
      <point x="672.0" y="764.0" type="line"/>
      <point x="202.0" y="764.0" type="line" smooth="yes"/>
      <point x="166.0" y="764.0"/>
      <point x="108.0" y="764.0"/>
      <point x="108.0" y="706.0" type="curve" smooth="yes"/>
      <point x="108.0" y="652.0"/>
      <point x="158.0" y="652.0"/>
      <point x="182.0" y="652.0" type="curve" smooth="yes"/>
      <point x="636.0" y="652.0" type="line"/>
      <point x="550.0" y="348.0" type="line"/>
      <point x="182.0" y="348.0" type="line" smooth="yes"/>
      <point x="158.0" y="348.0"/>
      <point x="108.0" y="348.0"/>
      <point x="108.0" y="294.0" type="curve" smooth="yes"/>
      <point x="108.0" y="236.0"/>
      <point x="166.0" y="236.0"/>
      <point x="202.0" y="236.0" type="curve" smooth="yes"/>
      <point x="514.0" y="236.0" type="line"/>
      <point x="463.0" y="59.0"/>
      <point x="411.0" y="-117.0"/>
      <point x="360.0" y="-294.0" type="curve"/>
      <point x="352.0" y="-322.0"/>
      <point x="352.0" y="-320.0"/>
      <point x="352.0" y="-334.0" type="curve" smooth="yes"/>
      <point x="352.0" y="-362.0"/>
      <point x="374.0" y="-390.0"/>
    </contour>
    <contour>
      <point x="668.0" y="348.0" type="line"/>
      <point x="754.0" y="652.0" type="line"/>
      <point x="1124.0" y="652.0" type="line"/>
      <point x="1038.0" y="348.0" type="line"/>
    </contour>
  </outline>
</glyph>
<glyph name="dollar" format="2">
  <advance width="1066.0"/>
  <unicode hex="0024"/>
  <outline>
    <contour>
      <point x="492.0" y="-110.0" type="line"/>
      <point x="576.0" y="-110.0" type="line"/>
      <point x="576.0" y="-4.0" type="line"/>
      <point x="870.0" y="24.0"/>
      <point x="958.0" y="234.0"/>
      <point x="958.0" y="412.0" type="curve" smooth="yes"/>
      <point x="958.0" y="438.0"/>
      <point x="976.0" y="554.0"/>
      <point x="836.0" y="710.0" type="curve" smooth="yes"/>
      <point x="748.0" y="800.0"/>
      <point x="632.0" y="822.0"/>
      <point x="576.0" y="832.0" type="curve"/>
      <point x="576.0" y="1310.0" type="line"/>
      <point x="562.0" y="1308.0"/>
      <point x="780.0" y="1338.0"/>
      <point x="852.0" y="1140.0" type="curve"/>
      <point x="852.0" y="1142.0"/>
      <point x="844.0" y="1142.0"/>
      <point x="854.0" y="1142.0" type="curve" smooth="yes"/>
      <point x="782.0" y="1138.0"/>
      <point x="748.0" y="1086.0"/>
      <point x="748.0" y="1038.0" type="curve" smooth="yes"/>
      <point x="748.0" y="960.0"/>
      <point x="808.0" y="932.0"/>
      <point x="852.0" y="932.0" type="curve" smooth="yes"/>
      <point x="924.0" y="932.0"/>
      <point x="958.0" y="974.0"/>
      <point x="958.0" y="1046.0" type="curve" smooth="yes"/>
      <point x="958.0" y="1178.0"/>
      <point x="886.0" y="1372.0"/>
      <point x="576.0" y="1392.0" type="curve"/>
      <point x="576.0" y="1498.0" type="line"/>
      <point x="492.0" y="1498.0" type="line"/>
      <point x="492.0" y="1394.0" type="line"/>
      <point x="220.0" y="1374.0"/>
      <point x="108.0" y="1188.0"/>
      <point x="108.0" y="1006.0" type="curve" smooth="yes"/>
      <point x="108.0" y="904.0"/>
      <point x="140.0" y="822.0"/>
      <point x="212.0" y="744.0" type="curve" smooth="yes"/>
      <point x="306.0" y="650.0"/>
      <point x="396.0" y="632.0"/>
      <point x="492.0" y="608.0" type="curve"/>
      <point x="492.0" y="78.0" type="line"/>
      <point x="338.0" y="94.0"/>
      <point x="228.0" y="170.0"/>
      <point x="206.0" y="276.0" type="curve"/>
      <point x="206.0" y="274.0"/>
      <point x="204.0" y="274.0"/>
      <point x="206.0" y="274.0" type="curve" smooth="yes"/>
      <point x="292.0" y="274.0"/>
      <point x="318.0" y="334.0"/>
      <point x="318.0" y="378.0" type="curve" smooth="yes"/>
      <point x="318.0" y="472.0"/>
      <point x="236.0" y="484.0"/>
      <point x="214.0" y="484.0" type="curve" smooth="yes"/>
      <point x="176.0" y="484.0"/>
      <point x="108.0" y="466.0"/>
      <point x="108.0" y="370.0" type="curve" smooth="yes"/>
      <point x="108.0" y="192.0"/>
      <point x="216.0" y="14.0"/>
      <point x="492.0" y="-4.0" type="curve"/>
    </contour>
    <contour>
      <point x="492.0" y="854.0" type="line"/>
      <point x="430.0" y="852.0"/>
      <point x="246.0" y="878.0"/>
      <point x="246.0" y="1082.0" type="curve" smooth="yes"/>
      <point x="246.0" y="1188.0"/>
      <point x="324.0" y="1296.0"/>
      <point x="492.0" y="1308.0" type="curve"/>
    </contour>
    <contour>
      <point x="576.0" y="80.0" type="curve"/>
      <point x="576.0" y="250.0"/>
      <point x="576.0" y="420.0"/>
      <point x="576.0" y="590.0" type="curve"/>
      <point x="650.0" y="586.0"/>
      <point x="820.0" y="548.0"/>
      <point x="820.0" y="334.0" type="curve" smooth="yes"/>
      <point x="820.0" y="206.0"/>
      <point x="736.0" y="92.0"/>
    </contour>
  </outline>
</glyph>
<glyph name="percent" format="2">
  <advance width="1794.0"/>
  <unicode hex="0025"/>
  <outline>
    <contour>
      <point x="1478.0" y="1394.0" type="line" smooth="yes"/>
      <point x="1494.0" y="1416.0"/>
      <point x="1500.0" y="1422.0"/>
      <point x="1500.0" y="1440.0" type="curve" smooth="yes"/>
      <point x="1500.0" y="1482.0"/>
      <point x="1468.0" y="1498.0"/>
      <point x="1446.0" y="1498.0" type="curve" smooth="yes"/>
      <point x="1416.0" y="1498.0"/>
      <point x="1404.0" y="1480.0"/>
      <point x="1386.0" y="1458.0" type="curve"/>
      <point x="1282.0" y="1324.0"/>
      <point x="1126.0" y="1290.0"/>
      <point x="1014.0" y="1290.0" type="curve" smooth="yes"/>
      <point x="722.0" y="1290.0"/>
      <point x="564.0" y="1472.0"/>
      <point x="576.0" y="1448.0" type="curve" smooth="yes"/>
      <point x="546.0" y="1468.0"/>
      <point x="502.0" y="1498.0"/>
      <point x="432.0" y="1498.0" type="curve" smooth="yes"/>
      <point x="280.0" y="1498.0"/>
      <point x="108.0" y="1386.0"/>
      <point x="108.0" y="1096.0" type="curve" smooth="yes"/>
      <point x="108.0" y="804.0"/>
      <point x="282.0" y="694.0"/>
      <point x="432.0" y="694.0" type="curve" smooth="yes"/>
      <point x="568.0" y="694.0"/>
      <point x="714.0" y="802.0"/>
      <point x="714.0" y="1096.0" type="curve" smooth="yes"/>
      <point x="714.0" y="1242.0"/>
      <point x="672.0" y="1314.0"/>
      <point x="678.0" y="1316.0" type="curve"/>
      <point x="802.0" y="1252.0"/>
      <point x="938.0" y="1230.0"/>
      <point x="1016.0" y="1230.0" type="curve" smooth="yes"/>
      <point x="1034.0" y="1230.0"/>
      <point x="1116.0" y="1220.0"/>
      <point x="1254.0" y="1286.0" type="curve"/>
      <point x="1254.0" y="1286.0" type="line"/>
      <point x="314.0" y="-4.0" type="line" smooth="yes"/>
      <point x="312.0" y="-8.0"/>
      <point x="292.0" y="-28.0"/>
      <point x="292.0" y="-52.0" type="curve" smooth="yes"/>
      <point x="292.0" y="-86.0"/>
      <point x="318.0" y="-110.0"/>
      <point x="350.0" y="-110.0" type="curve" smooth="yes"/>
      <point x="376.0" y="-110.0"/>
      <point x="388.0" y="-96.0"/>
      <point x="400.0" y="-76.0" type="curve" smooth="yes"/>
    </contour>
    <contour>
      <point x="436.0" y="754.0" type="curve" smooth="yes"/>
      <point x="282.0" y="754.0"/>
      <point x="284.0" y="982.0"/>
      <point x="284.0" y="1096.0" type="curve" smooth="yes"/>
      <point x="284.0" y="1212.0"/>
      <point x="284.0" y="1438.0"/>
      <point x="436.0" y="1438.0" type="curve" smooth="yes"/>
      <point x="526.0" y="1438.0"/>
      <point x="634.0" y="1346.0"/>
      <point x="634.0" y="1096.0" type="curve" smooth="yes"/>
      <point x="634.0" y="838.0"/>
      <point x="518.0" y="754.0"/>
    </contour>
    <contour>
      <point x="1406.0" y="-50.0" type="curve" smooth="yes"/>
      <point x="1252.0" y="-50.0"/>
      <point x="1254.0" y="178.0"/>
      <point x="1254.0" y="292.0" type="curve" smooth="yes"/>
      <point x="1254.0" y="408.0"/>
      <point x="1254.0" y="634.0"/>
      <point x="1406.0" y="634.0" type="curve" smooth="yes"/>
      <point x="1496.0" y="634.0"/>
      <point x="1604.0" y="542.0"/>
      <point x="1604.0" y="292.0" type="curve" smooth="yes"/>
      <point x="1604.0" y="34.0"/>
      <point x="1488.0" y="-50.0"/>
    </contour>
    <contour>
      <point x="1684.0" y="292.0" type="curve" smooth="yes"/>
      <point x="1684.0" y="588.0"/>
      <point x="1534.0" y="694.0"/>
      <point x="1402.0" y="694.0" type="curve" smooth="yes"/>
      <point x="1250.0" y="694.0"/>
      <point x="1078.0" y="582.0"/>
      <point x="1078.0" y="292.0" type="curve" smooth="yes"/>
      <point x="1078.0" y="0.0"/>
      <point x="1252.0" y="-110.0"/>
      <point x="1402.0" y="-110.0" type="curve" smooth="yes"/>
      <point x="1538.0" y="-110.0"/>
      <point x="1684.0" y="-2.0"/>
    </contour>
  </outline>
</glyph>
<glyph name="ampersand" format="2">
  <advance width="1672.0"/>
  <unicode hex="0026"/>
  <outline>
    <contour>
      <point x="1408.0" y="882.0" type="curve" smooth="yes"/>
      <point x="1348.0" y="882.0"/>
      <point x="1254.0" y="882.0"/>
      <point x="1196.0" y="886.0" type="curve"/>
      <point x="1196.0" y="802.0" type="line"/>
      <point x="1214.0" y="802.0"/>
      <point x="1272.0" y="812.0"/>
      <point x="1320.0" y="788.0" type="curve" smooth="yes"/>
      <point x="1320.0" y="786.0"/>
      <point x="1298.0" y="742.0"/>
      <point x="1264.0" y="682.0" type="curve" smooth="yes"/>
      <point x="1190.0" y="572.0"/>
      <point x="1052.0" y="364.0"/>
      <point x="934.0" y="270.0" type="curve"/>
      <point x="804.0" y="410.0"/>
      <point x="674.0" y="566.0"/>
      <point x="586.0" y="762.0" type="curve"/>
      <point x="802.0" y="996.0"/>
      <point x="854.0" y="1086.0"/>
      <point x="854.0" y="1150.0" type="curve" smooth="yes"/>
      <point x="854.0" y="1244.0"/>
      <point x="796.0" y="1398.0"/>
      <point x="652.0" y="1398.0" type="curve" smooth="yes"/>
      <point x="492.0" y="1398.0"/>
      <point x="324.0" y="1276.0"/>
      <point x="324.0" y="1064.0" type="curve" smooth="yes"/>
      <point x="324.0" y="928.0"/>
      <point x="354.0" y="818.0"/>
      <point x="404.0" y="684.0" type="curve"/>
      <point x="317.0" y="597.0"/>
      <point x="229.0" y="509.0"/>
      <point x="142.0" y="422.0" type="curve" smooth="yes"/>
      <point x="66.0" y="360.0"/>
      <point x="78.0" y="308.0"/>
      <point x="78.0" y="276.0" type="curve" smooth="yes"/>
      <point x="78.0" y="100.0"/>
      <point x="264.0" y="-10.0"/>
      <point x="474.0" y="-10.0" type="curve" smooth="yes"/>
      <point x="634.0" y="-10.0"/>
      <point x="770.0" y="66.0"/>
      <point x="858.0" y="118.0" type="curve"/>
      <point x="830.0" y="156.0"/>
      <point x="982.0" y="-10.0"/>
      <point x="1252.0" y="-10.0" type="curve" smooth="yes"/>
      <point x="1406.0" y="-10.0"/>
      <point x="1556.0" y="74.0"/>
      <point x="1562.0" y="236.0" type="curve"/>
      <point x="1482.0" y="236.0" type="line"/>
      <point x="1476.0" y="88.0"/>
      <point x="1298.0" y="74.0"/>
      <point x="1262.0" y="74.0" type="curve" smooth="yes"/>
      <point x="1158.0" y="74.0"/>
      <point x="1066.0" y="150.0"/>
      <point x="990.0" y="218.0" type="curve"/>
      <point x="1028.0" y="252.0"/>
      <point x="1082.0" y="262.0"/>
      <point x="1374.0" y="714.0" type="curve" smooth="yes"/>
      <point x="1430.0" y="810.0"/>
      <point x="1480.0" y="794.0"/>
      <point x="1574.0" y="802.0" type="curve"/>
      <point x="1574.0" y="802.0" type="line"/>
      <point x="1574.0" y="886.0" type="line"/>
      <point x="1546.0" y="882.0"/>
      <point x="1490.0" y="882.0"/>
    </contour>
    <contour>
      <point x="432.0" y="628.0" type="curve"/>
      <point x="532.0" y="420.0"/>
      <point x="666.0" y="250.0"/>
      <point x="790.0" y="164.0" type="curve"/>
      <point x="684.0" y="98.0"/>
      <point x="556.0" y="74.0"/>
      <point x="500.0" y="74.0" type="curve" smooth="yes"/>
      <point x="338.0" y="74.0"/>
      <point x="296.0" y="264.0"/>
      <point x="296.0" y="344.0" type="curve" smooth="yes"/>
      <point x="296.0" y="398.0"/>
      <point x="286.0" y="486.0"/>
    </contour>
    <contour>
      <point x="560.0" y="824.0" type="curve"/>
      <point x="552.0" y="826.0"/>
      <point x="502.0" y="960.0"/>
      <point x="502.0" y="1130.0" type="curve" smooth="yes"/>
      <point x="502.0" y="1304.0"/>
      <point x="608.0" y="1338.0"/>
      <point x="652.0" y="1338.0" type="curve" smooth="yes"/>
      <point x="742.0" y="1338.0"/>
      <point x="774.0" y="1236.0"/>
      <point x="774.0" y="1150.0" type="curve" smooth="yes"/>
      <point x="774.0" y="1122.0"/>
      <point x="814.0" y="1088.0"/>
    </contour>
  </outline>
</glyph>
<glyph name="parenleft" format="2">
  <advance width="826.0"/>
  <unicode hex="0028"/>
  <outline>
    <contour>
      <point x="198.0" y="502.0" type="curve" smooth="yes"/>
      <point x="198.0" y="264.0"/>
      <point x="256.0" y="42.0"/>
      <point x="360.0" y="-156.0" type="curve" smooth="yes"/>
      <point x="468.0" y="-348.0"/>
      <point x="642.0" y="-498.0"/>
      <point x="684.0" y="-498.0" type="curve" smooth="yes"/>
      <point x="698.0" y="-498.0"/>
      <point x="714.0" y="-494.0"/>
      <point x="714.0" y="-478.0" type="curve" smooth="yes"/>
      <point x="714.0" y="-472.0"/>
      <point x="710.0" y="-464.0"/>
      <point x="736.0" y="-490.0" type="curve" smooth="yes"/>
      <point x="690.0" y="-464.0"/>
      <point x="364.0" y="-281.0"/>
      <point x="364.0" y="498.0" type="curve" smooth="yes"/>
      <point x="364.0" y="1168.0"/>
      <point x="632.0" y="1388.0"/>
      <point x="704.0" y="1460.0" type="curve" smooth="yes"/>
      <point x="708.0" y="1468.0"/>
      <point x="714.0" y="1470.0"/>
      <point x="714.0" y="1480.0" type="curve" smooth="yes"/>
      <point x="714.0" y="1494.0"/>
      <point x="696.0" y="1498.0"/>
      <point x="684.0" y="1498.0" type="curve" smooth="yes"/>
      <point x="648.0" y="1498.0"/>
      <point x="574.0" y="1412.0"/>
      <point x="558.0" y="1412.0" type="curve" smooth="yes"/>
      <point x="248.0" y="1100.0"/>
      <point x="198.0" y="738.0"/>
    </contour>
  </outline>
</glyph>
<glyph name="parenright" format="2">
  <advance width="826.0"/>
  <unicode hex="0029"/>
  <outline>
    <contour>
      <point x="624.0" y="498.0" type="curve" smooth="yes"/>
      <point x="624.0" y="736.0"/>
      <point x="566.0" y="958.0"/>
      <point x="462.0" y="1156.0" type="curve" smooth="yes"/>
      <point x="354.0" y="1348.0"/>
      <point x="180.0" y="1498.0"/>
      <point x="138.0" y="1498.0" type="curve" smooth="yes"/>
      <point x="128.0" y="1498.0"/>
      <point x="108.0" y="1498.0"/>
      <point x="108.0" y="1478.0" type="curve" smooth="yes"/>
      <point x="108.0" y="1470.0"/>
      <point x="110.0" y="1468.0"/>
      <point x="108.0" y="1468.0" type="curve" smooth="yes"/>
      <point x="260.0" y="1310.0"/>
      <point x="458.0" y="1020.0"/>
      <point x="458.0" y="502.0" type="curve" smooth="yes"/>
      <point x="458.0" y="-174.0"/>
      <point x="188.0" y="-390.0"/>
      <point x="118.0" y="-460.0" type="curve" smooth="yes"/>
      <point x="112.0" y="-470.0"/>
      <point x="108.0" y="-470.0"/>
      <point x="108.0" y="-478.0" type="curve" smooth="yes"/>
      <point x="108.0" y="-498.0"/>
      <point x="128.0" y="-498.0"/>
      <point x="138.0" y="-498.0" type="curve" smooth="yes"/>
      <point x="174.0" y="-498.0"/>
      <point x="248.0" y="-412.0"/>
      <point x="264.0" y="-412.0" type="curve" smooth="yes"/>
      <point x="574.0" y="-100.0"/>
      <point x="624.0" y="262.0"/>
    </contour>
  </outline>
</glyph>
<glyph name="asterisk" format="2">
  <advance width="1066.0"/>
  <unicode hex="002A"/>
  <outline>
    <contour>
      <point x="534.0" y="612.0" type="curve" smooth="yes"/>
      <point x="560.0" y="612.0"/>
      <point x="608.0" y="628.0"/>
      <point x="608.0" y="680.0" type="curve"/>
      <point x="610.0" y="697.0"/>
      <point x="598.0" y="790.0"/>
      <point x="566.0" y="1000.0" type="curve"/>
      <point x="802.0" y="820.0" type="line"/>
      <point x="840.0" y="788.0"/>
      <point x="856.0" y="792.0"/>
      <point x="860.0" y="792.0" type="curve" smooth="yes"/>
      <point x="896.0" y="792.0"/>
      <point x="936.0" y="824.0"/>
      <point x="936.0" y="874.0" type="curve" smooth="yes"/>
      <point x="936.0" y="932.0"/>
      <point x="890.0" y="938.0"/>
      <point x="884.0" y="940.0" type="curve" smooth="yes"/>
      <point x="602.0" y="1056.0" type="line"/>
      <point x="888.0" y="1174.0" type="line" smooth="yes"/>
      <point x="892.0" y="1176.0"/>
      <point x="936.0" y="1180.0"/>
      <point x="936.0" y="1236.0" type="curve" smooth="yes"/>
      <point x="936.0" y="1310.0"/>
      <point x="868.0" y="1318.0"/>
      <point x="848.0" y="1318.0" type="curve" smooth="yes"/>
      <point x="850.0" y="1318.0"/>
      <point x="836.0" y="1314.0"/>
      <point x="864.0" y="1334.0" type="curve" smooth="yes"/>
      <point x="564.0" y="1108.0" type="line"/>
      <point x="613.0" y="1403.0"/>
      <point x="611.0" y="1414.0"/>
      <point x="610.0" y="1430.0" type="curve"/>
      <point x="606.0" y="1482.0"/>
      <point x="562.0" y="1498.0"/>
      <point x="532.0" y="1498.0" type="curve" smooth="yes"/>
      <point x="506.0" y="1498.0"/>
      <point x="458.0" y="1480.0"/>
      <point x="458.0" y="1432.0" type="curve"/>
      <point x="456.0" y="1414.0"/>
      <point x="454.0" y="1403.0"/>
      <point x="502.0" y="1108.0" type="curve"/>
      <point x="252.0" y="1300.0" type="line" smooth="yes"/>
      <point x="234.0" y="1314.0"/>
      <point x="216.0" y="1318.0"/>
      <point x="206.0" y="1318.0" type="curve" smooth="yes"/>
      <point x="170.0" y="1318.0"/>
      <point x="130.0" y="1286.0"/>
      <point x="130.0" y="1236.0" type="curve" smooth="yes"/>
      <point x="130.0" y="1178.0"/>
      <point x="176.0" y="1172.0"/>
      <point x="182.0" y="1170.0" type="curve" smooth="yes"/>
      <point x="464.0" y="1054.0" type="line"/>
      <point x="178.0" y="936.0" type="line" smooth="yes"/>
      <point x="174.0" y="934.0"/>
      <point x="130.0" y="930.0"/>
      <point x="130.0" y="874.0" type="curve" smooth="yes"/>
      <point x="130.0" y="778.0"/>
      <point x="220.0" y="792.0"/>
      <point x="206.0" y="792.0" type="curve"/>
      <point x="218.0" y="792.0"/>
      <point x="236.0" y="796.0"/>
      <point x="260.0" y="814.0" type="curve"/>
      <point x="502.0" y="1002.0" type="line"/>
      <point x="453.0" y="706.0"/>
      <point x="455.0" y="695.0"/>
      <point x="456.0" y="678.0" type="curve"/>
      <point x="458.0" y="632.0"/>
      <point x="500.0" y="612.0"/>
    </contour>
  </outline>
</glyph>
<glyph name="plus" format="2">
  <advance width="1672.0"/>
  <unicode hex="002B"/>
  <outline>
    <contour>
      <point x="890.0" y="444.0" type="line"/>
      <point x="1480.0" y="444.0" type="line" smooth="yes"/>
      <point x="1506.0" y="444.0"/>
      <point x="1562.0" y="444.0"/>
      <point x="1562.0" y="498.0" type="curve" smooth="yes"/>
      <point x="1562.0" y="556.0"/>
      <point x="1510.0" y="556.0"/>
      <point x="1480.0" y="556.0" type="curve" smooth="yes"/>
      <point x="890.0" y="556.0" type="line"/>
      <point x="890.0" y="1146.0" type="line" smooth="yes"/>
      <point x="890.0" y="1170.0"/>
      <point x="890.0" y="1226.0"/>
      <point x="836.0" y="1226.0" type="curve" smooth="yes"/>
      <point x="778.0" y="1226.0"/>
      <point x="778.0" y="1174.0"/>
      <point x="778.0" y="1146.0" type="curve" smooth="yes"/>
      <point x="778.0" y="556.0" type="line"/>
      <point x="190.0" y="556.0" type="line" smooth="yes"/>
      <point x="162.0" y="556.0"/>
      <point x="108.0" y="556.0"/>
      <point x="108.0" y="500.0" type="curve" smooth="yes"/>
      <point x="108.0" y="444.0"/>
      <point x="162.0" y="444.0"/>
      <point x="190.0" y="444.0" type="curve" smooth="yes"/>
      <point x="778.0" y="444.0" type="line"/>
      <point x="778.0" y="-146.0" type="line" smooth="yes"/>
      <point x="778.0" y="-170.0"/>
      <point x="778.0" y="-226.0"/>
      <point x="832.0" y="-226.0" type="curve" smooth="yes"/>
      <point x="890.0" y="-226.0"/>
      <point x="890.0" y="-174.0"/>
      <point x="890.0" y="-146.0" type="curve" smooth="yes"/>
    </contour>
  </outline>
</glyph>
<glyph name="comma" format="2">
  <advance width="582.0"/>
  <unicode hex="002C"/>
  <outline>
    <contour>
      <point x="158.0" y="132.0" type="curve" smooth="yes"/>
      <point x="158.0" y="52.0"/>
      <point x="216.0" y="0.0"/>
      <point x="290.0" y="0.0" type="curve" smooth="yes"/>
      <point x="340.0" y="0.0"/>
      <point x="378.0" y="26.0"/>
      <point x="386.0" y="40.0" type="curve"/>
      <point x="366.0" y="-178.0"/>
      <point x="263.0" y="-283.0"/>
      <point x="218.0" y="-332.0" type="curve" smooth="yes"/>
      <point x="208.0" y="-340.0"/>
      <point x="204.0" y="-348.0"/>
      <point x="204.0" y="-356.0" type="curve" smooth="yes"/>
      <point x="204.0" y="-370.0"/>
      <point x="224.0" y="-390.0"/>
      <point x="238.0" y="-390.0" type="curve" smooth="yes"/>
      <point x="256.0" y="-390.0"/>
      <point x="446.0" y="-236.0"/>
      <point x="446.0" y="34.0" type="curve" smooth="yes"/>
      <point x="446.0" y="108.0"/>
      <point x="418.0" y="264.0"/>
      <point x="288.0" y="264.0" type="curve" smooth="yes"/>
      <point x="222.0" y="264.0"/>
      <point x="158.0" y="218.0"/>
    </contour>
  </outline>
</glyph>
<glyph name="period" format="2">
  <advance width="582.0"/>
  <unicode hex="002E"/>
  <outline>
    <contour>
      <point x="422.0" y="132.0" type="curve" smooth="yes"/>
      <point x="422.0" y="210.0"/>
      <point x="360.0" y="264.0"/>
      <point x="290.0" y="264.0" type="curve" smooth="yes"/>
      <point x="222.0" y="264.0"/>
      <point x="158.0" y="210.0"/>
      <point x="158.0" y="132.0" type="curve" smooth="yes"/>
      <point x="158.0" y="54.0"/>
      <point x="220.0" y="0.0"/>
      <point x="290.0" y="0.0" type="curve" smooth="yes"/>
      <point x="358.0" y="0.0"/>
      <point x="422.0" y="54.0"/>
    </contour>
  </outline>
</glyph>
<glyph name="slash" format="2">
  <advance width="1066.0"/>
  <unicode hex="002F"/>
  <outline>
    <contour>
      <point x="948.0" y="1404.0" type="line" smooth="yes"/>
      <point x="958.0" y="1428.0"/>
      <point x="958.0" y="1438.0"/>
      <point x="958.0" y="1440.0" type="curve" smooth="yes"/>
      <point x="958.0" y="1482.0"/>
      <point x="926.0" y="1498.0"/>
      <point x="904.0" y="1498.0" type="curve" smooth="yes"/>
      <point x="866.0" y="1498.0"/>
      <point x="856.0" y="1474.0"/>
      <point x="842.0" y="1442.0" type="curve"/>
      <point x="118.0" y="-404.0" type="line" smooth="yes"/>
      <point x="108.0" y="-428.0"/>
      <point x="108.0" y="-438.0"/>
      <point x="108.0" y="-440.0" type="curve" smooth="yes"/>
      <point x="108.0" y="-482.0"/>
      <point x="140.0" y="-498.0"/>
      <point x="162.0" y="-498.0" type="curve" smooth="yes"/>
      <point x="200.0" y="-498.0"/>
      <point x="210.0" y="-476.0"/>
      <point x="224.0" y="-442.0" type="curve"/>
    </contour>
  </outline>
</glyph>
<glyph name="zero" format="2">
  <advance width="1066.0"/>
  <unicode hex="0030"/>
  <outline>
    <contour>
      <point x="534.0" y="-10.0" type="curve" smooth="yes"/>
      <point x="673.0" y="-10.0"/>
      <point x="766.0" y="34.0"/>
      <point x="832.0" y="105.0" type="curve" smooth="yes"/>
      <point x="978.0" y="256.0"/>
      <point x="978.0" y="516.0"/>
      <point x="978.0" y="640.0" type="curve" smooth="yes"/>
      <point x="978.0" y="734.0"/>
      <point x="985.0" y="1047.0"/>
      <point x="818.0" y="1213.0" type="curve" smooth="yes"/>
      <point x="764.0" y="1234.0"/>
      <point x="705.0" y="1300.0"/>
      <point x="532.0" y="1300.0" type="curve" smooth="yes"/>
      <point x="403.0" y="1300.0"/>
      <point x="322.0" y="1260.0"/>
      <point x="256.0" y="1230.0" type="curve" smooth="yes"/>
      <point x="87.0" y="1063.0"/>
      <point x="88.0" y="770.0"/>
      <point x="88.0" y="640.0" type="curve" smooth="yes"/>
      <point x="88.0" y="542.0"/>
      <point x="83.0" y="292.0"/>
      <point x="214.0" y="142.0" type="curve" smooth="yes"/>
      <point x="285.0" y="26.0"/>
      <point x="399.0" y="-10.0"/>
    </contour>
    <contour>
      <point x="534.0" y="50.0" type="curve" smooth="yes"/>
      <point x="412.0" y="50.0"/>
      <point x="342.0" y="154.0"/>
      <point x="324.0" y="260.0" type="curve" smooth="yes"/>
      <point x="306.0" y="362.0"/>
      <point x="306.0" y="558.0"/>
      <point x="306.0" y="662.0" type="curve" smooth="yes"/>
      <point x="306.0" y="832.0"/>
      <point x="306.0" y="958.0"/>
      <point x="332.0" y="1076.0" type="curve" smooth="yes"/>
      <point x="356.0" y="1186.0"/>
      <point x="458.0" y="1240.0"/>
      <point x="534.0" y="1240.0" type="curve" smooth="yes"/>
      <point x="624.0" y="1240.0"/>
      <point x="680.0" y="1184.0"/>
      <point x="718.0" y="1130.0" type="curve" smooth="yes"/>
      <point x="758.0" y="1054.0"/>
      <point x="760.0" y="860.0"/>
      <point x="760.0" y="662.0" type="curve" smooth="yes"/>
      <point x="760.0" y="570.0"/>
      <point x="760.0" y="364.0"/>
      <point x="744.0" y="270.0" type="curve" smooth="yes"/>
      <point x="704.0" y="56.0"/>
      <point x="574.0" y="50.0"/>
    </contour>
  </outline>
</glyph>
<glyph name="one" format="2">
  <advance width="1066.0"/>
  <unicode hex="0031"/>
  <outline>
    <contour>
      <point x="450.0" y="1134.0" type="curve"/>
      <point x="450.0" y="82.0" type="line" smooth="yes"/>
      <point x="450.0" y="84.0"/>
      <point x="452.0" y="84.0"/>
      <point x="460.0" y="84.0" type="curve" smooth="yes"/>
      <point x="186.0" y="84.0" type="line"/>
      <point x="186.0" y="0.0" type="line"/>
      <point x="300.0" y="2.0"/>
      <point x="438.0" y="4.0"/>
      <point x="552.0" y="4.0" type="curve" smooth="yes"/>
      <point x="666.0" y="4.0"/>
      <point x="804.0" y="2.0"/>
      <point x="918.0" y="0.0" type="curve"/>
      <point x="918.0" y="84.0" type="line"/>
      <point x="642.0" y="84.0" type="line" smooth="yes"/>
      <point x="650.0" y="84.0"/>
      <point x="652.0" y="84.0"/>
      <point x="652.0" y="82.0" type="curve" smooth="yes"/>
      <point x="652.0" y="1244.0" type="line" smooth="yes"/>
      <point x="652.0" y="1282.0"/>
      <point x="650.0" y="1300.0"/>
      <point x="616.0" y="1300.0" type="curve"/>
      <point x="594.0" y="1300.0"/>
      <point x="590.0" y="1300.0"/>
      <point x="572.0" y="1286.0" type="curve"/>
      <point x="464.0" y="1206.0"/>
      <point x="316.0" y="1176.0"/>
      <point x="226.0" y="1172.0" type="curve" smooth="yes"/>
      <point x="207.0" y="1172.0"/>
      <point x="183.0" y="1172.0"/>
      <point x="168.0" y="1168.0" type="curve"/>
      <point x="166.0" y="1154.0"/>
      <point x="166.0" y="1138.0"/>
      <point x="166.0" y="1086.0" type="curve"/>
      <point x="206.0" y="1086.0" type="line"/>
      <point x="260.0" y="1086.0"/>
      <point x="356.0" y="1100.0"/>
    </contour>
  </outline>
</glyph>
<glyph name="two" format="2">
  <advance width="1066.0"/>
  <unicode hex="0032"/>
  <outline>
    <contour>
      <point x="738.0" y="936.0" type="curve" smooth="yes"/>
      <point x="738.0" y="784.0"/>
      <point x="660.0" y="656.0"/>
      <point x="516.0" y="508.0" type="curve" smooth="yes"/>
      <point x="100.0" y="76.0" type="line" smooth="yes"/>
      <point x="94.0" y="60.0"/>
      <point x="96.0" y="44.0"/>
      <point x="96.0" y="36.0" type="curve"/>
      <point x="96.0" y="0.0" type="line"/>
      <point x="916.0" y="0.0" type="line"/>
      <point x="970.0" y="406.0" type="line"/>
      <point x="890.0" y="406.0" type="line"/>
      <point x="874.0" y="284.0"/>
      <point x="854.0" y="220.0"/>
      <point x="838.0" y="224.0" type="curve"/>
      <point x="820.0" y="212.0"/>
      <point x="658.0" y="212.0"/>
      <point x="642.0" y="212.0" type="curve" smooth="yes"/>
      <point x="324.0" y="212.0" type="line"/>
      <point x="467.0" y="342.0"/>
      <point x="621.0" y="480.0"/>
      <point x="760.0" y="598.0" type="curve" smooth="yes"/>
      <point x="848.0" y="664.0"/>
      <point x="970.0" y="758.0"/>
      <point x="970.0" y="938.0" type="curve" smooth="yes"/>
      <point x="970.0" y="1176.0"/>
      <point x="754.0" y="1300.0"/>
      <point x="506.0" y="1300.0" type="curve" smooth="yes"/>
      <point x="270.0" y="1300.0"/>
      <point x="96.0" y="1166.0"/>
      <point x="96.0" y="984.0" type="curve" smooth="yes"/>
      <point x="96.0" y="900.0"/>
      <point x="150.0" y="860.0"/>
      <point x="216.0" y="860.0" type="curve" smooth="yes"/>
      <point x="266.0" y="860.0"/>
      <point x="336.0" y="892.0"/>
      <point x="336.0" y="980.0" type="curve" smooth="yes"/>
      <point x="336.0" y="1096.0"/>
      <point x="226.0" y="1090.0"/>
      <point x="242.0" y="1096.0" type="curve"/>
      <point x="292.0" y="1184.0"/>
      <point x="376.0" y="1216.0"/>
      <point x="454.0" y="1216.0" type="curve" smooth="yes"/>
      <point x="618.0" y="1216.0"/>
      <point x="738.0" y="1104.0"/>
    </contour>
  </outline>
</glyph>
<glyph name="three" format="2">
  <advance width="1066.0"/>
  <unicode hex="0033"/>
  <outline>
    <contour>
      <point x="518.0" y="-10.0" type="curve" smooth="yes"/>
      <point x="854.0" y="-10.0"/>
      <point x="988.0" y="182.0"/>
      <point x="988.0" y="364.0" type="curve" smooth="yes"/>
      <point x="988.0" y="504.0"/>
      <point x="896.0" y="660.0"/>
      <point x="624.0" y="702.0" type="curve"/>
      <point x="750.0" y="722.0"/>
      <point x="926.0" y="832.0"/>
      <point x="926.0" y="1028.0" type="curve" smooth="yes"/>
      <point x="926.0" y="1174.0"/>
      <point x="792.0" y="1300.0"/>
      <point x="522.0" y="1300.0" type="curve" smooth="yes"/>
      <point x="304.0" y="1300.0"/>
      <point x="140.0" y="1180.0"/>
      <point x="140.0" y="1012.0" type="curve" smooth="yes"/>
      <point x="140.0" y="922.0"/>
      <point x="210.0" y="894.0"/>
      <point x="254.0" y="894.0" type="curve" smooth="yes"/>
      <point x="324.0" y="894.0"/>
      <point x="370.0" y="940.0"/>
      <point x="370.0" y="1008.0" type="curve" smooth="yes"/>
      <point x="370.0" y="1086.0"/>
      <point x="302.0" y="1136.0"/>
      <point x="274.0" y="1122.0" type="curve"/>
      <point x="340.0" y="1212.0"/>
      <point x="454.0" y="1226.0"/>
      <point x="514.0" y="1226.0" type="curve" smooth="yes"/>
      <point x="668.0" y="1226.0"/>
      <point x="696.0" y="1108.0"/>
      <point x="696.0" y="1030.0" type="curve" smooth="yes"/>
      <point x="696.0" y="990.0"/>
      <point x="680.0" y="736.0"/>
      <point x="464.0" y="732.0" type="curve" smooth="yes"/>
      <point x="376.0" y="728.0"/>
      <point x="370.0" y="726.0"/>
      <point x="368.0" y="724.0" type="curve" smooth="yes"/>
      <point x="350.0" y="720.0"/>
      <point x="352.0" y="702.0"/>
      <point x="352.0" y="696.0" type="curve" smooth="yes"/>
      <point x="352.0" y="668.0"/>
      <point x="360.0" y="666.0"/>
      <point x="402.0" y="666.0" type="curve" smooth="yes"/>
      <point x="500.0" y="666.0" type="line" smooth="yes"/>
      <point x="732.0" y="666.0"/>
      <point x="736.0" y="452.0"/>
      <point x="736.0" y="368.0" type="curve" smooth="yes"/>
      <point x="736.0" y="306.0"/>
      <point x="746.0" y="68.0"/>
      <point x="510.0" y="68.0" type="curve" smooth="yes"/>
      <point x="438.0" y="68.0"/>
      <point x="312.0" y="94.0"/>
      <point x="232.0" y="190.0" type="curve"/>
      <point x="286.0" y="202.0"/>
      <point x="330.0" y="238.0"/>
      <point x="330.0" y="310.0" type="curve" smooth="yes"/>
      <point x="330.0" y="386.0"/>
      <point x="276.0" y="434.0"/>
      <point x="206.0" y="434.0" type="curve" smooth="yes"/>
      <point x="136.0" y="434.0"/>
      <point x="78.0" y="392.0"/>
      <point x="78.0" y="304.0" type="curve" smooth="yes"/>
      <point x="78.0" y="122.0"/>
      <point x="266.0" y="-10.0"/>
    </contour>
  </outline>
</glyph>
<glyph name="four" format="2">
  <advance width="1066.0"/>
  <unicode hex="0034"/>
  <outline>
    <contour>
      <point x="608.0" y="322.0" type="line"/>
      <point x="608.0" y="82.0" type="line" smooth="yes"/>
      <point x="608.0" y="82.0"/>
      <point x="608.0" y="84.0"/>
      <point x="616.0" y="84.0" type="curve" smooth="yes"/>
      <point x="396.0" y="84.0" type="line"/>
      <point x="396.0" y="0.0" type="line"/>
      <point x="454.0" y="4.0"/>
      <point x="640.0" y="4.0"/>
      <point x="710.0" y="4.0" type="curve" smooth="yes"/>
      <point x="774.0" y="4.0"/>
      <point x="950.0" y="4.0"/>
      <point x="1002.0" y="0.0" type="curve"/>
      <point x="1002.0" y="84.0" type="line"/>
      <point x="812.0" y="84.0" type="line" smooth="yes"/>
      <point x="820.0" y="84.0"/>
      <point x="820.0" y="82.0"/>
      <point x="820.0" y="82.0" type="curve" smooth="yes"/>
      <point x="820.0" y="322.0" type="line"/>
      <point x="1018.0" y="322.0" type="line"/>
      <point x="1018.0" y="406.0" type="line"/>
      <point x="820.0" y="406.0" type="line"/>
      <point x="820.0" y="1240.0" type="line" smooth="yes"/>
      <point x="820.0" y="1274.0"/>
      <point x="816.0" y="1284.0"/>
      <point x="788.0" y="1290.0" type="curve" smooth="yes"/>
      <point x="758.0" y="1296.0"/>
      <point x="752.0" y="1294.0"/>
      <point x="726.0" y="1288.0" type="curve" smooth="yes"/>
      <point x="48.0" y="406.0" type="line"/>
      <point x="48.0" y="322.0" type="line"/>
    </contour>
    <contour>
      <point x="136.0" y="406.0" type="line"/>
      <point x="624.0" y="1050.0" type="line"/>
      <point x="624.0" y="406.0" type="line"/>
    </contour>
  </outline>
</glyph>
<glyph name="five" format="2">
  <advance width="1066.0"/>
  <unicode hex="0035"/>
  <outline>
    <contour>
      <point x="488.0" y="-10.0" type="curve" smooth="yes"/>
      <point x="782.0" y="-10.0"/>
      <point x="970.0" y="156.0"/>
      <point x="970.0" y="404.0" type="curve" smooth="yes"/>
      <point x="970.0" y="636.0"/>
      <point x="820.0" y="808.0"/>
      <point x="546.0" y="808.0" type="curve" smooth="yes"/>
      <point x="482.0" y="808.0"/>
      <point x="376.0" y="796.0"/>
      <point x="286.0" y="730.0" type="curve"/>
      <point x="286.0" y="1054.0" type="line"/>
      <point x="322.0" y="1048.0"/>
      <point x="360.0" y="1032.0"/>
      <point x="448.0" y="1032.0" type="curve" smooth="yes"/>
      <point x="544.0" y="1032.0"/>
      <point x="624.0" y="1056.0"/>
      <point x="690.0" y="1090.0" type="curve" smooth="yes"/>
      <point x="785.0" y="1139.0"/>
      <point x="851.0" y="1210.0"/>
      <point x="884.0" y="1258.0" type="curve" smooth="yes"/>
      <point x="884.0" y="1276.0"/>
      <point x="884.0" y="1298.0"/>
      <point x="862.0" y="1298.0" type="curve" smooth="yes"/>
      <point x="858.0" y="1298.0"/>
      <point x="856.0" y="1300.0"/>
      <point x="828.0" y="1288.0" type="curve" smooth="yes"/>
      <point x="682.0" y="1232.0"/>
      <point x="594.0" y="1236.0"/>
      <point x="542.0" y="1236.0" type="curve" smooth="yes"/>
      <point x="410.0" y="1236.0"/>
      <point x="306.0" y="1268.0"/>
      <point x="250.0" y="1288.0" type="curve"/>
      <point x="226.0" y="1298.0"/>
      <point x="224.0" y="1300.0"/>
      <point x="220.0" y="1300.0" type="curve" smooth="yes"/>
      <point x="202.0" y="1300.0"/>
      <point x="200.0" y="1292.0"/>
      <point x="200.0" y="1252.0" type="curve" smooth="yes"/>
      <point x="200.0" y="680.0" type="line" smooth="yes"/>
      <point x="200.0" y="644.0"/>
      <point x="200.0" y="624.0"/>
      <point x="236.0" y="624.0" type="curve" smooth="yes"/>
      <point x="258.0" y="624.0"/>
      <point x="262.0" y="630.0"/>
      <point x="278.0" y="648.0" type="curve" smooth="yes"/>
      <point x="398.0" y="798.0"/>
      <point x="520.0" y="748.0"/>
      <point x="540.0" y="748.0" type="curve" smooth="yes"/>
      <point x="522.0" y="748.0"/>
      <point x="560.0" y="815.0"/>
      <point x="614.0" y="779.0" type="curve" smooth="yes"/>
      <point x="693.0" y="740.0"/>
      <point x="732.0" y="600.0"/>
      <point x="732.0" y="406.0" type="curve" smooth="yes"/>
      <point x="732.0" y="315.0"/>
      <point x="732.0" y="197.0"/>
      <point x="649.0" y="119.0" type="curve" smooth="yes"/>
      <point x="611.0" y="80.0"/>
      <point x="554.0" y="68.0"/>
      <point x="480.0" y="68.0" type="curve" smooth="yes"/>
      <point x="446.0" y="68.0"/>
      <point x="300.0" y="64.0"/>
      <point x="214.0" y="214.0" type="curve"/>
      <point x="242.0" y="226.0"/>
      <point x="318.0" y="228.0"/>
      <point x="318.0" y="324.0" type="curve" smooth="yes"/>
      <point x="318.0" y="436.0"/>
      <point x="228.0" y="438.0"/>
      <point x="208.0" y="438.0" type="curve" smooth="yes"/>
      <point x="160.0" y="438.0"/>
      <point x="96.0" y="406.0"/>
      <point x="96.0" y="320.0" type="curve" smooth="yes"/>
      <point x="96.0" y="148.0"/>
      <point x="252.0" y="-10.0"/>
    </contour>
  </outline>
</glyph>
<glyph name="six" format="2">
  <advance width="1066.0"/>
  <unicode hex="0036"/>
  <outline>
    <contour>
      <point x="88.0" y="634.0" type="curve" smooth="yes"/>
      <point x="88.0" y="461.0"/>
      <point x="109.0" y="301.0"/>
      <point x="192.0" y="168.0" type="curve" smooth="yes"/>
      <point x="279.0" y="30.0"/>
      <point x="418.0" y="-10.0"/>
      <point x="542.0" y="-10.0" type="curve" smooth="yes"/>
      <point x="654.0" y="-10.0"/>
      <point x="750.0" y="18.0"/>
      <point x="827.0" y="77.0" type="curve" smooth="yes"/>
      <point x="919.0" y="146.0"/>
      <point x="978.0" y="260.0"/>
      <point x="978.0" y="412.0" type="curve" smooth="yes"/>
      <point x="978.0" y="550.0"/>
      <point x="932.0" y="651.0"/>
      <point x="857.0" y="721.0" type="curve" smooth="yes"/>
      <point x="783.0" y="789.0"/>
      <point x="680.0" y="824.0"/>
      <point x="568.0" y="824.0" type="curve" smooth="yes"/>
      <point x="538.0" y="824.0"/>
      <point x="410.0" y="846.0"/>
      <point x="316.0" y="650.0" type="curve"/>
      <point x="310.0" y="888.0"/>
      <point x="336.0" y="966.0"/>
      <point x="332.0" y="1008.0" type="curve" smooth="yes"/>
      <point x="384.0" y="1138.0"/>
      <point x="508.0" y="1226.0"/>
      <point x="654.0" y="1226.0" type="curve" smooth="yes"/>
      <point x="684.0" y="1226.0"/>
      <point x="770.0" y="1224.0"/>
      <point x="812.0" y="1168.0" type="curve"/>
      <point x="738.0" y="1158.0"/>
      <point x="722.0" y="1104.0"/>
      <point x="722.0" y="1064.0" type="curve" smooth="yes"/>
      <point x="722.0" y="1004.0"/>
      <point x="764.0" y="960.0"/>
      <point x="826.0" y="960.0" type="curve" smooth="yes"/>
      <point x="890.0" y="960.0"/>
      <point x="932.0" y="1002.0"/>
      <point x="932.0" y="1068.0" type="curve" smooth="yes"/>
      <point x="932.0" y="1198.0"/>
      <point x="836.0" y="1300.0"/>
      <point x="652.0" y="1300.0" type="curve" smooth="yes"/>
      <point x="398.0" y="1300.0"/>
      <point x="88.0" y="1138.0"/>
    </contour>
    <contour>
      <point x="538.0" y="68.0" type="curve" smooth="yes"/>
      <point x="500.0" y="68.0"/>
      <point x="460.0" y="48.0"/>
      <point x="422.0" y="84.0" type="curve" smooth="yes"/>
      <point x="320.0" y="160.0"/>
      <point x="320.0" y="370.0"/>
      <point x="320.0" y="426.0" type="curve" smooth="yes"/>
      <point x="320.0" y="664.0"/>
      <point x="432.0" y="766.0"/>
      <point x="548.0" y="766.0" type="curve" smooth="yes"/>
      <point x="612.0" y="766.0"/>
      <point x="660.0" y="750.0"/>
      <point x="692.0" y="708.0" type="curve" smooth="yes"/>
      <point x="750.0" y="645.0"/>
      <point x="750.0" y="553.0"/>
      <point x="750.0" y="416.0" type="curve" smooth="yes"/>
      <point x="750.0" y="270.0"/>
      <point x="750.0" y="180.0"/>
      <point x="683.0" y="113.0" type="curve" smooth="yes"/>
      <point x="669.0" y="121.0"/>
      <point x="652.0" y="68.0"/>
    </contour>
  </outline>
</glyph>
<glyph name="seven" format="2">
  <advance width="1066.0"/>
  <unicode hex="0037"/>
  <outline>
    <contour>
      <point x="472.0" y="-10.0" type="curve" smooth="yes"/>
      <point x="484.0" y="-10.0"/>
      <point x="578.0" y="-22.0"/>
      <point x="578.0" y="116.0" type="curve" smooth="yes"/>
      <point x="578.0" y="144.0"/>
      <point x="578.0" y="170.0"/>
      <point x="578.0" y="198.0" type="curve" smooth="yes"/>
      <point x="578.0" y="500.0"/>
      <point x="636.0" y="716.0"/>
      <point x="730.0" y="830.0" type="curve" smooth="yes"/>
      <point x="835.0" y="960.0"/>
      <point x="940.0" y="1090.0"/>
      <point x="1046.0" y="1220.0" type="curve" smooth="yes"/>
      <point x="1048.0" y="1232.0"/>
      <point x="1048.0" y="1248.0"/>
      <point x="1048.0" y="1290.0" type="curve"/>
      <point x="1048.0" y="1290.0" type="line"/>
      <point x="656.0" y="1290.0" type="line"/>
      <point x="610.0" y="1290.0"/>
      <point x="316.0" y="1302.0"/>
      <point x="288.0" y="1308.0" type="curve"/>
      <point x="256.0" y="1318.0"/>
      <point x="254.0" y="1334.0"/>
      <point x="250.0" y="1354.0" type="curve"/>
      <point x="170.0" y="1354.0" type="line"/>
      <point x="108.0" y="884.0" type="line"/>
      <point x="188.0" y="884.0" type="line"/>
      <point x="208.0" y="1042.0"/>
      <point x="230.0" y="1044.0"/>
      <point x="236.0" y="1062.0" type="curve" smooth="yes"/>
      <point x="256.0" y="1078.0"/>
      <point x="410.0" y="1078.0"/>
      <point x="452.0" y="1078.0" type="curve" smooth="yes"/>
      <point x="816.0" y="1078.0" type="line"/>
      <point x="766.0" y="1011.0"/>
      <point x="716.0" y="943.0"/>
      <point x="666.0" y="876.0" type="curve" smooth="yes"/>
      <point x="556.0" y="752.0"/>
      <point x="368.0" y="466.0"/>
      <point x="368.0" y="112.0" type="curve" smooth="yes"/>
      <point x="368.0" y="-32.0"/>
      <point x="480.0" y="-10.0"/>
    </contour>
  </outline>
</glyph>
<glyph name="eight" format="2">
  <advance width="1066.0"/>
  <unicode hex="0038"/>
  <outline>
    <contour>
      <point x="528.0" y="-10.0" type="curve" smooth="yes"/>
      <point x="836.0" y="-10.0"/>
      <point x="988.0" y="154.0"/>
      <point x="988.0" y="364.0" type="curve" smooth="yes"/>
      <point x="988.0" y="654.0"/>
      <point x="758.0" y="682.0"/>
      <point x="712.0" y="736.0" type="curve"/>
      <point x="834.0" y="798.0"/>
      <point x="926.0" y="878.0"/>
      <point x="926.0" y="1016.0" type="curve" smooth="yes"/>
      <point x="926.0" y="1218.0"/>
      <point x="746.0" y="1300.0"/>
      <point x="538.0" y="1300.0" type="curve" smooth="yes"/>
      <point x="278.0" y="1300.0"/>
      <point x="140.0" y="1158.0"/>
      <point x="140.0" y="970.0" type="curve" smooth="yes"/>
      <point x="140.0" y="889.0"/>
      <point x="169.0" y="804.0"/>
      <point x="241.0" y="745.0" type="curve" smooth="yes"/>
      <point x="264.0" y="724.0"/>
      <point x="305.0" y="691.0"/>
      <point x="346.0" y="666.0" type="curve"/>
      <point x="204.0" y="604.0"/>
      <point x="78.0" y="492.0"/>
      <point x="78.0" y="322.0" type="curve" smooth="yes"/>
      <point x="78.0" y="86.0"/>
      <point x="286.0" y="-10.0"/>
    </contour>
    <contour>
      <point x="538.0" y="68.0" type="curve" smooth="yes"/>
      <point x="332.0" y="68.0"/>
      <point x="224.0" y="176.0"/>
      <point x="224.0" y="324.0" type="curve" smooth="yes"/>
      <point x="224.0" y="522.0"/>
      <point x="388.0" y="612.0"/>
      <point x="426.0" y="620.0" type="curve"/>
      <point x="497.0" y="579.0"/>
      <point x="593.0" y="521.0"/>
      <point x="704.0" y="454.0" type="curve" smooth="yes"/>
      <point x="766.0" y="420.0"/>
      <point x="842.0" y="372.0"/>
      <point x="842.0" y="276.0" type="curve" smooth="yes"/>
      <point x="842.0" y="108.0"/>
      <point x="656.0" y="68.0"/>
    </contour>
    <contour>
      <point x="636.0" y="778.0" type="curve"/>
      <point x="542.0" y="832.0"/>
      <point x="448.0" y="886.0"/>
      <point x="354.0" y="940.0" type="curve" smooth="yes"/>
      <point x="398.0" y="908.0"/>
      <point x="270.0" y="936.0"/>
      <point x="270.0" y="1064.0" type="curve" smooth="yes"/>
      <point x="270.0" y="1204.0"/>
      <point x="446.0" y="1226.0"/>
      <point x="528.0" y="1226.0" type="curve" smooth="yes"/>
      <point x="708.0" y="1226.0"/>
      <point x="796.0" y="1136.0"/>
      <point x="796.0" y="1014.0" type="curve" smooth="yes"/>
      <point x="796.0" y="962.0"/>
      <point x="792.0" y="864.0"/>
    </contour>
  </outline>
</glyph>
<glyph name="nine" format="2">
  <advance width="1066.0"/>
  <unicode hex="0039"/>
  <outline>
    <contour>
      <point x="442.0" y="-10.0" type="curve" smooth="yes"/>
      <point x="674.0" y="-10.0"/>
      <point x="978.0" y="138.0"/>
      <point x="978.0" y="660.0" type="curve" smooth="yes"/>
      <point x="978.0" y="804.0"/>
      <point x="984.0" y="1300.0"/>
      <point x="536.0" y="1300.0" type="curve" smooth="yes"/>
      <point x="428.0" y="1300.0"/>
      <point x="325.0" y="1265.0"/>
      <point x="257.0" y="1226.0" type="curve" smooth="yes"/>
      <point x="157.0" y="1167.0"/>
      <point x="88.0" y="1019.0"/>
      <point x="88.0" y="878.0" type="curve" smooth="yes"/>
      <point x="88.0" y="718.0"/>
      <point x="153.0" y="601.0"/>
      <point x="250.0" y="534.0" type="curve" smooth="yes"/>
      <point x="320.0" y="487.0"/>
      <point x="405.0" y="466.0"/>
      <point x="498.0" y="466.0" type="curve" smooth="yes"/>
      <point x="614.0" y="466.0"/>
      <point x="700.0" y="552.0"/>
      <point x="750.0" y="642.0" type="curve"/>
      <point x="754.0" y="414.0"/>
      <point x="724.0" y="288.0"/>
      <point x="681.0" y="216.0" type="curve" smooth="yes"/>
      <point x="654.0" y="158.0"/>
      <point x="579.0" y="66.0"/>
      <point x="436.0" y="66.0" type="curve" smooth="yes"/>
      <point x="388.0" y="66.0"/>
      <point x="312.0" y="74.0"/>
      <point x="260.0" y="124.0" type="curve"/>
      <point x="248.0" y="122.0"/>
      <point x="344.0" y="120.0"/>
      <point x="344.0" y="226.0" type="curve" smooth="yes"/>
      <point x="344.0" y="286.0"/>
      <point x="302.0" y="330.0"/>
      <point x="240.0" y="330.0" type="curve" smooth="yes"/>
      <point x="176.0" y="330.0"/>
      <point x="134.0" y="288.0"/>
      <point x="134.0" y="222.0" type="curve" smooth="yes"/>
      <point x="134.0" y="84.0"/>
      <point x="246.0" y="-10.0"/>
    </contour>
    <contour>
      <point x="518.0" y="524.0" type="curve" smooth="yes"/>
      <point x="432.0" y="524.0"/>
      <point x="406.0" y="551.0"/>
      <point x="377.0" y="575.0" type="curve" smooth="yes"/>
      <point x="316.0" y="639.0"/>
      <point x="316.0" y="741.0"/>
      <point x="316.0" y="874.0" type="curve" smooth="yes"/>
      <point x="316.0" y="1014.0"/>
      <point x="316.0" y="1116.0"/>
      <point x="393.0" y="1192.0" type="curve" smooth="yes"/>
      <point x="398.0" y="1166.0"/>
      <point x="422.0" y="1226.0"/>
      <point x="540.0" y="1226.0" type="curve" smooth="yes"/>
      <point x="658.0" y="1226.0"/>
      <point x="694.0" y="1134.0"/>
      <point x="702.0" y="1132.0" type="curve" smooth="yes"/>
      <point x="756.0" y="1018.0"/>
      <point x="748.0" y="872.0"/>
      <point x="748.0" y="848.0" type="curve" smooth="yes"/>
      <point x="748.0" y="746.0"/>
      <point x="700.0" y="524.0"/>
    </contour>
  </outline>
</glyph>
<glyph name="colon" format="2">
  <advance width="582.0"/>
  <unicode hex="003A"/>
  <outline>
    <contour>
      <point x="422.0" y="754.0" type="curve" smooth="yes"/>
      <point x="422.0" y="832.0"/>
      <point x="360.0" y="886.0"/>
      <point x="290.0" y="886.0" type="curve" smooth="yes"/>
      <point x="222.0" y="886.0"/>
      <point x="158.0" y="832.0"/>
      <point x="158.0" y="754.0" type="curve" smooth="yes"/>
      <point x="158.0" y="676.0"/>
      <point x="220.0" y="622.0"/>
      <point x="290.0" y="622.0" type="curve" smooth="yes"/>
      <point x="358.0" y="622.0"/>
      <point x="422.0" y="676.0"/>
    </contour>
    <contour>
      <point x="422.0" y="132.0" type="curve" smooth="yes"/>
      <point x="422.0" y="210.0"/>
      <point x="360.0" y="264.0"/>
      <point x="290.0" y="264.0" type="curve" smooth="yes"/>
      <point x="222.0" y="264.0"/>
      <point x="158.0" y="210.0"/>
      <point x="158.0" y="132.0" type="curve" smooth="yes"/>
      <point x="158.0" y="54.0"/>
      <point x="220.0" y="0.0"/>
      <point x="290.0" y="0.0" type="curve" smooth="yes"/>
      <point x="358.0" y="0.0"/>
      <point x="422.0" y="54.0"/>
    </contour>
  </outline>
</glyph>
<glyph name="semicolon" format="2">
  <advance width="582.0"/>
  <unicode hex="003B"/>
  <outline>
    <contour>
      <point x="290.0" y="622.0" type="curve" smooth="yes"/>
      <point x="358.0" y="622.0"/>
      <point x="422.0" y="676.0"/>
      <point x="422.0" y="754.0" type="curve" smooth="yes"/>
      <point x="422.0" y="832.0"/>
      <point x="360.0" y="886.0"/>
      <point x="290.0" y="886.0" type="curve" smooth="yes"/>
      <point x="222.0" y="886.0"/>
      <point x="158.0" y="832.0"/>
      <point x="158.0" y="754.0" type="curve" smooth="yes"/>
      <point x="158.0" y="676.0"/>
      <point x="220.0" y="622.0"/>
    </contour>
    <contour>
      <point x="238.0" y="-390.0" type="curve" smooth="yes"/>
      <point x="254.0" y="-390.0"/>
      <point x="428.0" y="-232.0"/>
      <point x="428.0" y="40.0" type="curve" smooth="yes"/>
      <point x="428.0" y="190.0"/>
      <point x="376.0" y="264.0"/>
      <point x="288.0" y="264.0" type="curve" smooth="yes"/>
      <point x="222.0" y="264.0"/>
      <point x="158.0" y="218.0"/>
      <point x="158.0" y="132.0" type="curve" smooth="yes"/>
      <point x="158.0" y="52.0"/>
      <point x="216.0" y="0.0"/>
      <point x="290.0" y="0.0" type="curve" smooth="yes"/>
      <point x="346.0" y="0.0"/>
      <point x="361.0" y="19.0"/>
      <point x="366.0" y="22.0" type="curve"/>
      <point x="352.0" y="-272.0"/>
      <point x="224.0" y="-322.0"/>
      <point x="222.0" y="-330.0" type="curve" smooth="yes"/>
      <point x="208.0" y="-342.0"/>
      <point x="204.0" y="-346.0"/>
      <point x="204.0" y="-354.0" type="curve" smooth="yes"/>
      <point x="204.0" y="-370.0"/>
      <point x="224.0" y="-390.0"/>
    </contour>
  </outline>
</glyph>
<glyph name="equal" format="2">
  <advance width="1672.0"/>
  <unicode hex="003D"/>
  <outline>
    <contour>
      <point x="1488.0" y="652.0" type="line" smooth="yes"/>
      <point x="1512.0" y="652.0"/>
      <point x="1562.0" y="652.0"/>
      <point x="1562.0" y="706.0" type="curve" smooth="yes"/>
      <point x="1562.0" y="764.0"/>
      <point x="1504.0" y="764.0"/>
      <point x="1468.0" y="764.0" type="curve" smooth="yes"/>
      <point x="202.0" y="764.0" type="line" smooth="yes"/>
      <point x="166.0" y="764.0"/>
      <point x="108.0" y="764.0"/>
      <point x="108.0" y="706.0" type="curve" smooth="yes"/>
      <point x="108.0" y="652.0"/>
      <point x="158.0" y="652.0"/>
      <point x="182.0" y="652.0" type="curve" smooth="yes"/>
    </contour>
    <contour>
      <point x="1468.0" y="236.0" type="line" smooth="yes"/>
      <point x="1504.0" y="236.0"/>
      <point x="1562.0" y="236.0"/>
      <point x="1562.0" y="294.0" type="curve" smooth="yes"/>
      <point x="1562.0" y="348.0"/>
      <point x="1512.0" y="348.0"/>
      <point x="1488.0" y="348.0" type="curve" smooth="yes"/>
      <point x="182.0" y="348.0" type="line" smooth="yes"/>
      <point x="158.0" y="348.0"/>
      <point x="108.0" y="348.0"/>
      <point x="108.0" y="294.0" type="curve" smooth="yes"/>
      <point x="108.0" y="236.0"/>
      <point x="166.0" y="236.0"/>
      <point x="202.0" y="236.0" type="curve" smooth="yes"/>
    </contour>
  </outline>
</glyph>
<glyph name="question" format="2">
  <advance width="1006.0"/>
  <unicode hex="003F"/>
  <outline>
    <contour>
      <point x="896.0" y="1130.0" type="curve" smooth="yes"/>
      <point x="896.0" y="1434.0"/>
      <point x="498.0" y="1394.0"/>
      <point x="486.0" y="1394.0" type="curve" smooth="yes"/>
      <point x="224.0" y="1394.0"/>
      <point x="108.0" y="1266.0"/>
      <point x="108.0" y="1136.0" type="curve" smooth="yes"/>
      <point x="108.0" y="1030.0"/>
      <point x="202.0" y="1026.0"/>
      <point x="212.0" y="1026.0" type="curve" smooth="yes"/>
      <point x="242.0" y="1026.0"/>
      <point x="318.0" y="1044.0"/>
      <point x="318.0" y="1132.0" type="curve" smooth="yes"/>
      <point x="318.0" y="1198.0"/>
      <point x="256.0" y="1244.0"/>
      <point x="244.0" y="1232.0" type="curve"/>
      <point x="276.0" y="1290.0"/>
      <point x="362.0" y="1334.0"/>
      <point x="476.0" y="1334.0" type="curve" smooth="yes"/>
      <point x="674.0" y="1334.0"/>
      <point x="678.0" y="1232.0"/>
      <point x="678.0" y="1142.0" type="curve" smooth="yes"/>
      <point x="678.0" y="1050.0"/>
      <point x="656.0" y="1012.0"/>
      <point x="614.0" y="968.0" type="curve" smooth="yes"/>
      <point x="490.0" y="840.0"/>
      <point x="430.0" y="682.0"/>
      <point x="430.0" y="528.0" type="curve" smooth="yes"/>
      <point x="430.0" y="507.0"/>
      <point x="430.0" y="485.0"/>
      <point x="430.0" y="464.0" type="curve" smooth="yes"/>
      <point x="430.0" y="422.0"/>
      <point x="430.0" y="416.0"/>
      <point x="470.0" y="416.0" type="curve" smooth="yes"/>
      <point x="510.0" y="416.0"/>
      <point x="510.0" y="418.0"/>
      <point x="510.0" y="464.0" type="curve" smooth="yes"/>
      <point x="510.0" y="518.0" type="line" smooth="yes"/>
      <point x="510.0" y="660.0"/>
      <point x="598.0" y="806.0"/>
      <point x="748.0" y="912.0" type="curve" smooth="yes"/>
      <point x="772.0" y="924.0"/>
      <point x="896.0" y="962.0"/>
    </contour>
    <contour>
      <point x="602.0" y="132.0" type="curve" smooth="yes"/>
      <point x="602.0" y="204.0"/>
      <point x="544.0" y="264.0"/>
      <point x="470.0" y="264.0" type="curve" smooth="yes"/>
      <point x="398.0" y="264.0"/>
      <point x="338.0" y="206.0"/>
      <point x="338.0" y="132.0" type="curve" smooth="yes"/>
      <point x="338.0" y="60.0"/>
      <point x="396.0" y="0.0"/>
      <point x="470.0" y="0.0" type="curve" smooth="yes"/>
      <point x="542.0" y="0.0"/>
      <point x="602.0" y="58.0"/>
    </contour>
  </outline>
</glyph>
<glyph name="at" format="2">
  <advance width="1672.0"/>
  <unicode hex="0040"/>
  <outline>
    <contour>
      <point x="844.0" y="-6.0" type="curve" smooth="yes"/>
      <point x="1178.0" y="-6.0"/>
      <point x="1448.0" y="88.0"/>
      <point x="1545.0" y="136.0" type="curve" smooth="yes"/>
      <point x="1672.0" y="175.0"/>
      <point x="1622.0" y="179.0"/>
      <point x="1583.0" y="162.0" type="curve" smooth="yes"/>
      <point x="1568.0" y="153.0"/>
      <point x="1562.0" y="155.0"/>
      <point x="1562.0" y="158.0" type="curve" smooth="yes"/>
      <point x="1562.0" y="176.0"/>
      <point x="1548.0" y="178.0"/>
      <point x="1510.0" y="178.0" type="curve" smooth="yes"/>
      <point x="1480.0" y="178.0" type="line" smooth="yes"/>
      <point x="1446.0" y="178.0"/>
      <point x="1442.0" y="180.0"/>
      <point x="1410.0" y="164.0" type="curve" smooth="yes"/>
      <point x="1320.0" y="138.0"/>
      <point x="1114.0" y="54.0"/>
      <point x="842.0" y="54.0" type="curve" smooth="yes"/>
      <point x="390.0" y="54.0"/>
      <point x="188.0" y="356.0"/>
      <point x="188.0" y="694.0" type="curve" smooth="yes"/>
      <point x="188.0" y="1064.0"/>
      <point x="424.0" y="1334.0"/>
      <point x="834.0" y="1334.0" type="curve" smooth="yes"/>
      <point x="1216.0" y="1334.0"/>
      <point x="1482.0" y="1088.0"/>
      <point x="1482.0" y="676.0" type="curve" smooth="yes"/>
      <point x="1482.0" y="530.0"/>
      <point x="1466.0" y="322.0"/>
      <point x="1338.0" y="322.0" type="curve" smooth="yes"/>
      <point x="1278.0" y="322.0"/>
      <point x="1270.0" y="392.0"/>
      <point x="1270.0" y="444.0" type="curve" smooth="yes"/>
      <point x="1270.0" y="906.0" type="line" smooth="yes"/>
      <point x="1270.0" y="952.0"/>
      <point x="1268.0" y="956.0"/>
      <point x="1216.0" y="956.0" type="curve" smooth="yes"/>
      <point x="1238.0" y="956.0"/>
      <point x="1194.0" y="954.0"/>
      <point x="1162.0" y="940.0" type="curve"/>
      <point x="1102.0" y="1044.0"/>
      <point x="994.0" y="1126.0"/>
      <point x="834.0" y="1126.0" type="curve" smooth="yes"/>
      <point x="576.0" y="1126.0"/>
      <point x="400.0" y="962.0"/>
      <point x="400.0" y="694.0" type="curve" smooth="yes"/>
      <point x="400.0" y="428.0"/>
      <point x="576.0" y="262.0"/>
      <point x="834.0" y="262.0" type="curve" smooth="yes"/>
      <point x="956.0" y="262.0"/>
      <point x="1044.0" y="332.0"/>
      <point x="1096.0" y="374.0" type="curve"/>
      <point x="1140.0" y="284.0"/>
      <point x="1264.0" y="262.0"/>
      <point x="1318.0" y="262.0" type="curve" smooth="yes"/>
      <point x="1550.0" y="262.0"/>
      <point x="1562.0" y="562.0"/>
      <point x="1562.0" y="682.0" type="curve" smooth="yes"/>
      <point x="1562.0" y="1142.0"/>
      <point x="1260.0" y="1394.0"/>
      <point x="836.0" y="1394.0" type="curve" smooth="yes"/>
      <point x="374.0" y="1394.0"/>
      <point x="108.0" y="1102.0"/>
      <point x="108.0" y="694.0" type="curve" smooth="yes"/>
      <point x="108.0" y="320.0"/>
      <point x="338.0" y="-6.0"/>
    </contour>
    <contour>
      <point x="836.0" y="322.0" type="curve" smooth="yes"/>
      <point x="712.0" y="322.0"/>
      <point x="596.0" y="438.0"/>
      <point x="596.0" y="694.0" type="curve" smooth="yes"/>
      <point x="596.0" y="952.0"/>
      <point x="714.0" y="1066.0"/>
      <point x="836.0" y="1066.0" type="curve" smooth="yes"/>
      <point x="926.0" y="1066.0"/>
      <point x="990.0" y="1020.0"/>
      <point x="1012.0" y="1016.0" type="curve" smooth="yes"/>
      <point x="1034.0" y="1008.0"/>
      <point x="1074.0" y="956.0"/>
      <point x="1074.0" y="926.0" type="curve" smooth="yes"/>
      <point x="1074.0" y="468.0" type="line" smooth="yes"/>
      <point x="1012.0" y="364.0"/>
      <point x="904.0" y="322.0"/>
    </contour>
  </outline>
</glyph>
<glyph name="A" format="2">
  <advance width="1624.0"/>
  <unicode hex="0041"/>
  <outline>
    <contour>
      <point x="810.0" y="1378.0" type="curve" smooth="yes"/>
      <point x="766.0" y="1378.0"/>
      <point x="760.0" y="1368.0"/>
      <point x="746.0" y="1334.0" type="curve" smooth="yes"/>
      <point x="240.0" y="126.0" type="line" smooth="yes"/>
      <point x="226.0" y="90.0"/>
      <point x="224.0" y="80.0"/>
      <point x="64.0" y="84.0" type="curve"/>
      <point x="64.0" y="0.0" type="line"/>
      <point x="130.0" y="4.0"/>
      <point x="220.0" y="4.0"/>
      <point x="248.0" y="4.0" type="curve" smooth="yes"/>
      <point x="314.0" y="4.0"/>
      <point x="402.0" y="8.0"/>
      <point x="460.0" y="0.0" type="curve"/>
      <point x="460.0" y="84.0" type="line"/>
      <point x="462.0" y="88.0"/>
      <point x="324.0" y="102.0"/>
      <point x="324.0" y="100.0" type="curve" smooth="yes"/>
      <point x="324.0" y="116.0"/>
      <point x="332.0" y="122.0"/>
      <point x="336.0" y="134.0" type="curve"/>
      <point x="450.0" y="412.0" type="line"/>
      <point x="1016.0" y="412.0" type="line"/>
      <point x="1150.0" y="86.0" type="line"/>
      <point x="1156.0" y="70.0"/>
      <point x="1154.0" y="78.0"/>
      <point x="1154.0" y="78.0" type="curve" smooth="yes"/>
      <point x="1091.0" y="84.0"/>
      <point x="1053.0" y="84.0"/>
      <point x="1006.0" y="84.0" type="curve"/>
      <point x="1006.0" y="0.0" type="line"/>
      <point x="1068.0" y="4.0"/>
      <point x="1222.0" y="4.0"/>
      <point x="1294.0" y="4.0" type="curve" smooth="yes"/>
      <point x="1340.0" y="4.0"/>
      <point x="1524.0" y="6.0"/>
      <point x="1558.0" y="0.0" type="curve"/>
      <point x="1558.0" y="84.0" type="line"/>
      <point x="1594.0" y="84.0" type="line" smooth="yes"/>
      <point x="1543.0" y="84.0"/>
      <point x="1471.0" y="70.0"/>
      <point x="1402.0" y="78.0" type="curve" smooth="yes"/>
      <point x="878.0" y="1334.0" type="line" smooth="yes"/>
      <point x="856.0" y="1386.0"/>
      <point x="832.0" y="1378.0"/>
    </contour>
    <contour>
      <point x="734.0" y="1090.0" type="line"/>
      <point x="980.0" y="496.0" type="line"/>
      <point x="486.0" y="496.0" type="line"/>
    </contour>
  </outline>
</glyph>
<glyph name="B" format="2">
  <advance width="1528.0"/>
  <unicode hex="0042"/>
  <outline>
    <contour>
      <point x="1418.0" y="370.0" type="curve" smooth="yes"/>
      <point x="1418.0" y="568.0"/>
      <point x="1246.0" y="706.0"/>
      <point x="1016.0" y="714.0" type="curve"/>
      <point x="1230.0" y="752.0"/>
      <point x="1356.0" y="872.0"/>
      <point x="1356.0" y="1030.0" type="curve" smooth="yes"/>
      <point x="1356.0" y="1206.0"/>
      <point x="1202.0" y="1372.0"/>
      <point x="882.0" y="1372.0" type="curve" smooth="yes"/>
      <point x="110.0" y="1372.0" type="line"/>
      <point x="110.0" y="1288.0" type="line"/>
      <point x="278.0" y="1288.0" type="line" smooth="yes"/>
      <point x="262.0" y="1288.0"/>
      <point x="280.0" y="1310.0"/>
      <point x="280.0" y="1292.0" type="curve" smooth="yes"/>
      <point x="280.0" y="80.0" type="line" smooth="yes"/>
      <point x="280.0" y="62.0"/>
      <point x="262.0" y="84.0"/>
      <point x="278.0" y="84.0" type="curve" smooth="yes"/>
      <point x="110.0" y="84.0" type="line"/>
      <point x="110.0" y="0.0" type="line"/>
      <point x="942.0" y="0.0" type="line" smooth="yes"/>
      <point x="1264.0" y="0.0"/>
      <point x="1418.0" y="180.0"/>
    </contour>
    <contour>
      <point x="502.0" y="744.0" type="line"/>
      <point x="502.0" y="1290.0" type="line" smooth="yes"/>
      <point x="502.0" y="1292.0"/>
      <point x="502.0" y="1288.0"/>
      <point x="488.0" y="1288.0" type="curve" smooth="yes"/>
      <point x="860.0" y="1288.0" type="line" smooth="yes"/>
      <point x="1066.0" y="1288.0"/>
      <point x="1120.0" y="1140.0"/>
      <point x="1120.0" y="1030.0" type="curve" smooth="yes"/>
      <point x="1120.0" y="852.0"/>
      <point x="1000.0" y="744.0"/>
      <point x="812.0" y="744.0" type="curve" smooth="yes"/>
    </contour>
    <contour>
      <point x="866.0" y="84.0" type="curve" smooth="yes"/>
      <point x="488.0" y="84.0" type="line" smooth="yes"/>
      <point x="502.0" y="84.0"/>
      <point x="502.0" y="80.0"/>
      <point x="502.0" y="82.0" type="curve" smooth="yes"/>
      <point x="502.0" y="684.0" type="line"/>
      <point x="884.0" y="684.0" type="line" smooth="yes"/>
      <point x="1106.0" y="684.0"/>
      <point x="1176.0" y="516.0"/>
      <point x="1176.0" y="372.0" type="curve" smooth="yes"/>
      <point x="1176.0" y="344.0"/>
      <point x="1166.0" y="84.0"/>
    </contour>
  </outline>
</glyph>
<glyph name="C" format="2">
  <advance width="1550.0"/>
  <unicode hex="0043"/>
  <outline>
    <contour>
      <point x="108.0" y="686.0" type="curve" smooth="yes"/>
      <point x="108.0" y="274.0"/>
      <point x="400.0" y="-10.0"/>
      <point x="870.0" y="-10.0" type="curve" smooth="yes"/>
      <point x="1224.0" y="-10.0"/>
      <point x="1444.0" y="228.0"/>
      <point x="1444.0" y="456.0" type="curve" smooth="yes"/>
      <point x="1444.0" y="496.0"/>
      <point x="1430.0" y="492.0"/>
      <point x="1404.0" y="492.0" type="curve" smooth="yes"/>
      <point x="1384.0" y="492.0"/>
      <point x="1366.0" y="498.0"/>
      <point x="1364.0" y="466.0" type="curve" smooth="yes"/>
      <point x="1350.0" y="204.0"/>
      <point x="1122.0" y="74.0"/>
      <point x="922.0" y="74.0" type="curve" smooth="yes"/>
      <point x="729.0" y="74.0"/>
      <point x="575.0" y="139.0"/>
      <point x="484.0" y="247.0" type="curve" smooth="yes"/>
      <point x="384.0" y="366.0"/>
      <point x="360.0" y="519.0"/>
      <point x="360.0" y="688.0" type="curve" smooth="yes"/>
      <point x="360.0" y="781.0"/>
      <point x="363.0" y="998.0"/>
      <point x="493.0" y="1135.0" type="curve" smooth="yes"/>
      <point x="612.0" y="1259.0"/>
      <point x="776.0" y="1298.0"/>
      <point x="914.0" y="1298.0" type="curve" smooth="yes"/>
      <point x="1138.0" y="1298.0"/>
      <point x="1314.0" y="1132.0"/>
      <point x="1356.0" y="892.0" type="curve" smooth="yes"/>
      <point x="1362.0" y="858.0"/>
      <point x="1364.0" y="856.0"/>
      <point x="1400.0" y="856.0" type="curve" smooth="yes"/>
      <point x="1442.0" y="856.0"/>
      <point x="1444.0" y="858.0"/>
      <point x="1444.0" y="904.0" type="curve" smooth="yes"/>
      <point x="1444.0" y="1334.0" type="line" smooth="yes"/>
      <point x="1444.0" y="1374.0"/>
      <point x="1442.0" y="1380.0"/>
      <point x="1416.0" y="1380.0" type="curve" smooth="yes"/>
      <point x="1398.0" y="1380.0"/>
      <point x="1400.0" y="1374.0"/>
      <point x="1386.0" y="1360.0" type="curve" smooth="yes"/>
      <point x="1266.0" y="1222.0" type="line"/>
      <point x="1118.0" y="1374.0"/>
      <point x="966.0" y="1382.0"/>
      <point x="868.0" y="1382.0" type="curve" smooth="yes"/>
      <point x="402.0" y="1382.0"/>
      <point x="108.0" y="1100.0"/>
    </contour>
  </outline>
</glyph>
<glyph name="D" format="2">
  <advance width="1648.0"/>
  <unicode hex="0044"/>
  <outline>
    <contour>
      <point x="1540.0" y="674.0" type="curve" smooth="yes"/>
      <point x="1540.0" y="1112.0"/>
      <point x="1256.0" y="1372.0"/>
      <point x="876.0" y="1372.0" type="curve" smooth="yes"/>
      <point x="112.0" y="1372.0" type="line"/>
      <point x="112.0" y="1288.0" type="line"/>
      <point x="168.0" y="1288.0"/>
      <point x="224.0" y="1288.0"/>
      <point x="280.0" y="1288.0" type="curve" smooth="yes"/>
      <point x="264.0" y="1288.0"/>
      <point x="282.0" y="1310.0"/>
      <point x="282.0" y="1292.0" type="curve" smooth="yes"/>
      <point x="282.0" y="80.0" type="line" smooth="yes"/>
      <point x="282.0" y="62.0"/>
      <point x="264.0" y="84.0"/>
      <point x="280.0" y="84.0" type="curve" smooth="yes"/>
      <point x="224.0" y="84.0"/>
      <point x="168.0" y="84.0"/>
      <point x="112.0" y="84.0" type="curve"/>
      <point x="112.0" y="0.0" type="line"/>
      <point x="878.0" y="0.0" type="line" smooth="yes"/>
      <point x="1258.0" y="0.0"/>
      <point x="1540.0" y="246.0"/>
    </contour>
    <contour>
      <point x="496.0" y="84.0" type="line" smooth="yes"/>
      <point x="510.0" y="84.0"/>
      <point x="510.0" y="80.0"/>
      <point x="510.0" y="82.0" type="curve" smooth="yes"/>
      <point x="510.0" y="1290.0" type="line" smooth="yes"/>
      <point x="510.0" y="1292.0"/>
      <point x="510.0" y="1288.0"/>
      <point x="496.0" y="1288.0" type="curve" smooth="yes"/>
      <point x="812.0" y="1288.0" type="line" smooth="yes"/>
      <point x="920.0" y="1288.0"/>
      <point x="1096.0" y="1260.0"/>
      <point x="1196.0" y="1116.0" type="curve" smooth="yes"/>
      <point x="1250.0" y="1036.0"/>
      <point x="1298.0" y="926.0"/>
      <point x="1298.0" y="676.0" type="curve" smooth="yes"/>
      <point x="1298.0" y="398.0"/>
      <point x="1230.0" y="298.0"/>
      <point x="1200.0" y="252.0" type="curve" smooth="yes"/>
      <point x="1096.0" y="108.0"/>
      <point x="920.0" y="84.0"/>
      <point x="810.0" y="84.0" type="curve" smooth="yes"/>
    </contour>
  </outline>
</glyph>
<glyph name="E" format="2">
  <advance width="1406.0"/>
  <unicode hex="0045"/>
  <outline>
    <contour>
      <point x="1356.0" y="538.0" type="line"/>
      <point x="1276.0" y="538.0" type="line"/>
      <point x="1238.0" y="276.0"/>
      <point x="1202.0" y="84.0"/>
      <point x="824.0" y="84.0" type="curve" smooth="yes"/>
      <point x="508.0" y="84.0" type="line" smooth="yes"/>
      <point x="522.0" y="84.0"/>
      <point x="522.0" y="80.0"/>
      <point x="522.0" y="82.0" type="curve" smooth="yes"/>
      <point x="522.0" y="664.0" type="line"/>
      <point x="640.0" y="664.0" type="line" smooth="yes"/>
      <point x="826.0" y="664.0"/>
      <point x="842.0" y="574.0"/>
      <point x="842.0" y="430.0" type="curve"/>
      <point x="922.0" y="430.0" type="line"/>
      <point x="922.0" y="982.0" type="line"/>
      <point x="842.0" y="982.0" type="line"/>
      <point x="842.0" y="840.0"/>
      <point x="828.0" y="748.0"/>
      <point x="640.0" y="748.0" type="curve" smooth="yes"/>
      <point x="522.0" y="748.0" type="line"/>
      <point x="522.0" y="1280.0" type="line" smooth="yes"/>
      <point x="522.0" y="1282.0"/>
      <point x="522.0" y="1278.0"/>
      <point x="508.0" y="1278.0" type="curve" smooth="yes"/>
      <point x="828.0" y="1278.0" type="line" smooth="yes"/>
      <point x="1154.0" y="1278.0"/>
      <point x="1188.0" y="1118.0"/>
      <point x="1216.0" y="888.0" type="curve"/>
      <point x="1296.0" y="888.0" type="line"/>
      <point x="1242.0" y="1362.0" type="line"/>
      <point x="114.0" y="1362.0" type="line"/>
      <point x="114.0" y="1278.0" type="line"/>
      <point x="282.0" y="1278.0" type="line" smooth="yes"/>
      <point x="266.0" y="1278.0"/>
      <point x="284.0" y="1300.0"/>
      <point x="284.0" y="1282.0" type="curve" smooth="yes"/>
      <point x="284.0" y="80.0" type="line" smooth="yes"/>
      <point x="284.0" y="62.0"/>
      <point x="266.0" y="84.0"/>
      <point x="282.0" y="84.0" type="curve" smooth="yes"/>
      <point x="114.0" y="84.0" type="line"/>
      <point x="114.0" y="0.0" type="line"/>
      <point x="1276.0" y="0.0" type="line"/>
    </contour>
  </outline>
</glyph>
<glyph name="F" format="2">
  <advance width="1346.0"/>
  <unicode hex="0046"/>
  <outline>
    <contour>
      <point x="1212.0" y="1362.0" type="line"/>
      <point x="114.0" y="1362.0" type="line"/>
      <point x="114.0" y="1278.0" type="line"/>
      <point x="282.0" y="1278.0" type="line" smooth="yes"/>
      <point x="266.0" y="1278.0"/>
      <point x="284.0" y="1300.0"/>
      <point x="284.0" y="1282.0" type="curve" smooth="yes"/>
      <point x="284.0" y="80.0" type="line" smooth="yes"/>
      <point x="284.0" y="62.0"/>
      <point x="266.0" y="84.0"/>
      <point x="282.0" y="84.0" type="curve" smooth="yes"/>
      <point x="114.0" y="84.0" type="line"/>
      <point x="114.0" y="0.0" type="line"/>
      <point x="178.0" y="4.0"/>
      <point x="336.0" y="4.0"/>
      <point x="408.0" y="4.0" type="curve" smooth="yes"/>
      <point x="506.0" y="4.0"/>
      <point x="638.0" y="4.0"/>
      <point x="736.0" y="0.0" type="curve"/>
      <point x="736.0" y="84.0" type="line"/>
      <point x="488.0" y="84.0" type="line" smooth="yes"/>
      <point x="526.0" y="84.0"/>
      <point x="522.0" y="78.0"/>
      <point x="522.0" y="80.0" type="curve" smooth="yes"/>
      <point x="522.0" y="640.0" type="line"/>
      <point x="630.0" y="640.0" type="line" smooth="yes"/>
      <point x="816.0" y="640.0"/>
      <point x="832.0" y="552.0"/>
      <point x="832.0" y="406.0" type="curve"/>
      <point x="912.0" y="406.0" type="line"/>
      <point x="912.0" y="958.0" type="line"/>
      <point x="832.0" y="958.0" type="line"/>
      <point x="832.0" y="810.0"/>
      <point x="818.0" y="724.0"/>
      <point x="630.0" y="724.0" type="curve" smooth="yes"/>
      <point x="522.0" y="724.0" type="line"/>
      <point x="522.0" y="1280.0" type="line" smooth="yes"/>
      <point x="522.0" y="1282.0"/>
      <point x="522.0" y="1278.0"/>
      <point x="508.0" y="1278.0" type="curve" smooth="yes"/>
      <point x="806.0" y="1278.0" type="line" smooth="yes"/>
      <point x="1130.0" y="1278.0"/>
      <point x="1160.0" y="1112.0"/>
      <point x="1186.0" y="888.0" type="curve"/>
      <point x="1266.0" y="888.0" type="line"/>
    </contour>
  </outline>
</glyph>
<glyph name="G" format="2">
  <advance width="1692.0"/>
  <unicode hex="0047"/>
  <outline>
    <contour>
      <point x="870.0" y="-10.0" type="curve" smooth="yes"/>
      <point x="926.0" y="-10.0"/>
      <point x="1048.0" y="-7.0"/>
      <point x="1148.0" y="42.0" type="curve" smooth="yes"/>
      <point x="1189.0" y="61.0"/>
      <point x="1225.0" y="85.0"/>
      <point x="1250.0" y="120.0" type="curve"/>
      <point x="1320.0" y="28.0"/>
      <point x="1416.0" y="0.0"/>
      <point x="1418.0" y="0.0" type="curve" smooth="yes"/>
      <point x="1438.0" y="0.0"/>
      <point x="1440.0" y="12.0"/>
      <point x="1440.0" y="48.0" type="curve" smooth="yes"/>
      <point x="1440.0" y="185.0"/>
      <point x="1440.0" y="322.0"/>
      <point x="1440.0" y="460.0" type="curve" smooth="yes"/>
      <point x="1440.0" y="458.0"/>
      <point x="1438.0" y="458.0"/>
      <point x="1432.0" y="458.0" type="curve"/>
      <point x="1485.0" y="458.0"/>
      <point x="1539.0" y="458.0"/>
      <point x="1592.0" y="458.0" type="curve"/>
      <point x="1592.0" y="485.0"/>
      <point x="1592.0" y="515.0"/>
      <point x="1592.0" y="542.0" type="curve"/>
      <point x="1548.0" y="534.0"/>
      <point x="1376.0" y="538.0"/>
      <point x="1304.0" y="538.0" type="curve" smooth="yes"/>
      <point x="1212.0" y="538.0"/>
      <point x="1040.0" y="540.0"/>
      <point x="928.0" y="542.0" type="curve"/>
      <point x="928.0" y="515.0"/>
      <point x="928.0" y="485.0"/>
      <point x="928.0" y="458.0" type="curve"/>
      <point x="1023.0" y="458.0"/>
      <point x="1117.0" y="458.0"/>
      <point x="1212.0" y="458.0" type="curve" smooth="yes"/>
      <point x="1204.0" y="458.0"/>
      <point x="1202.0" y="458.0"/>
      <point x="1202.0" y="460.0" type="curve" smooth="yes"/>
      <point x="1202.0" y="392.0"/>
      <point x="1202.0" y="322.0"/>
      <point x="1202.0" y="254.0" type="curve" smooth="yes"/>
      <point x="1202.0" y="210.0"/>
      <point x="1194.0" y="164.0"/>
      <point x="1108.0" y="118.0" type="curve" smooth="yes"/>
      <point x="1054.0" y="98.0"/>
      <point x="998.0" y="74.0"/>
      <point x="932.0" y="74.0" type="curve" smooth="yes"/>
      <point x="724.0" y="74.0"/>
      <point x="561.0" y="150.0"/>
      <point x="474.0" y="266.0" type="curve" smooth="yes"/>
      <point x="384.0" y="380.0"/>
      <point x="360.0" y="523.0"/>
      <point x="360.0" y="688.0" type="curve" smooth="yes"/>
      <point x="360.0" y="897.0"/>
      <point x="398.0" y="1014.0"/>
      <point x="477.0" y="1118.0" type="curve" smooth="yes"/>
      <point x="544.0" y="1206.0"/>
      <point x="686.0" y="1298.0"/>
      <point x="912.0" y="1298.0" type="curve" smooth="yes"/>
      <point x="1138.0" y="1298.0"/>
      <point x="1310.0" y="1130.0"/>
      <point x="1352.0" y="892.0" type="curve" smooth="yes"/>
      <point x="1358.0" y="858.0"/>
      <point x="1360.0" y="856.0"/>
      <point x="1396.0" y="856.0" type="curve" smooth="yes"/>
      <point x="1438.0" y="856.0"/>
      <point x="1440.0" y="858.0"/>
      <point x="1440.0" y="904.0" type="curve" smooth="yes"/>
      <point x="1440.0" y="1047.0"/>
      <point x="1440.0" y="1190.0"/>
      <point x="1440.0" y="1334.0" type="curve" smooth="yes"/>
      <point x="1440.0" y="1374.0"/>
      <point x="1438.0" y="1380.0"/>
      <point x="1412.0" y="1380.0" type="curve" smooth="yes"/>
      <point x="1394.0" y="1380.0"/>
      <point x="1396.0" y="1374.0"/>
      <point x="1382.0" y="1360.0" type="curve" smooth="yes"/>
      <point x="1342.0" y="1314.0"/>
      <point x="1302.0" y="1268.0"/>
      <point x="1262.0" y="1222.0" type="curve"/>
      <point x="1082.0" y="1398.0"/>
      <point x="926.0" y="1382.0"/>
      <point x="866.0" y="1382.0" type="curve" smooth="yes"/>
      <point x="404.0" y="1382.0"/>
      <point x="108.0" y="1102.0"/>
      <point x="108.0" y="686.0" type="curve" smooth="yes"/>
      <point x="108.0" y="288.0"/>
      <point x="382.0" y="-10.0"/>
    </contour>
  </outline>
</glyph>
<glyph name="H" format="2">
  <advance width="1686.0"/>
  <unicode hex="0048"/>
  <outline>
    <contour>
      <point x="114.0" y="0.0" type="line"/>
      <point x="178.0" y="4.0"/>
      <point x="332.0" y="4.0"/>
      <point x="404.0" y="4.0" type="curve" smooth="yes"/>
      <point x="476.0" y="4.0"/>
      <point x="628.0" y="4.0"/>
      <point x="692.0" y="0.0" type="curve"/>
      <point x="692.0" y="84.0" type="line"/>
      <point x="524.0" y="84.0" type="line" smooth="yes"/>
      <point x="540.0" y="84.0"/>
      <point x="522.0" y="62.0"/>
      <point x="522.0" y="80.0" type="curve" smooth="yes"/>
      <point x="522.0" y="670.0" type="line"/>
      <point x="1162.0" y="670.0" type="line"/>
      <point x="1162.0" y="80.0" type="line" smooth="yes"/>
      <point x="1162.0" y="62.0"/>
      <point x="1144.0" y="84.0"/>
      <point x="1160.0" y="84.0" type="curve" smooth="yes"/>
      <point x="992.0" y="84.0" type="line"/>
      <point x="992.0" y="0.0" type="line"/>
      <point x="1056.0" y="4.0"/>
      <point x="1210.0" y="4.0"/>
      <point x="1282.0" y="4.0" type="curve" smooth="yes"/>
      <point x="1354.0" y="4.0"/>
      <point x="1506.0" y="4.0"/>
      <point x="1570.0" y="0.0" type="curve"/>
      <point x="1570.0" y="84.0" type="line"/>
      <point x="1402.0" y="84.0" type="line" smooth="yes"/>
      <point x="1418.0" y="84.0"/>
      <point x="1400.0" y="62.0"/>
      <point x="1400.0" y="80.0" type="curve" smooth="yes"/>
      <point x="1400.0" y="1292.0" type="line" smooth="yes"/>
      <point x="1400.0" y="1310.0"/>
      <point x="1418.0" y="1288.0"/>
      <point x="1402.0" y="1288.0" type="curve" smooth="yes"/>
      <point x="1570.0" y="1288.0" type="line"/>
      <point x="1570.0" y="1372.0" type="line"/>
      <point x="1506.0" y="1368.0"/>
      <point x="1352.0" y="1368.0"/>
      <point x="1280.0" y="1368.0" type="curve" smooth="yes"/>
      <point x="1208.0" y="1368.0"/>
      <point x="1056.0" y="1368.0"/>
      <point x="992.0" y="1372.0" type="curve"/>
      <point x="992.0" y="1288.0" type="line"/>
      <point x="1160.0" y="1288.0" type="line" smooth="yes"/>
      <point x="1144.0" y="1288.0"/>
      <point x="1162.0" y="1310.0"/>
      <point x="1162.0" y="1292.0" type="curve" smooth="yes"/>
      <point x="1162.0" y="754.0" type="line"/>
      <point x="522.0" y="754.0" type="line"/>
      <point x="522.0" y="1292.0" type="line" smooth="yes"/>
      <point x="522.0" y="1310.0"/>
      <point x="540.0" y="1288.0"/>
      <point x="524.0" y="1288.0" type="curve" smooth="yes"/>
      <point x="692.0" y="1288.0" type="line"/>
      <point x="692.0" y="1372.0" type="line"/>
      <point x="628.0" y="1368.0"/>
      <point x="474.0" y="1368.0"/>
      <point x="402.0" y="1368.0" type="curve" smooth="yes"/>
      <point x="330.0" y="1368.0"/>
      <point x="178.0" y="1368.0"/>
      <point x="114.0" y="1372.0" type="curve"/>
      <point x="114.0" y="1288.0" type="line"/>
      <point x="282.0" y="1288.0" type="line" smooth="yes"/>
      <point x="266.0" y="1288.0"/>
      <point x="284.0" y="1310.0"/>
      <point x="284.0" y="1292.0" type="curve" smooth="yes"/>
      <point x="284.0" y="80.0" type="line" smooth="yes"/>
      <point x="284.0" y="62.0"/>
      <point x="266.0" y="84.0"/>
      <point x="282.0" y="84.0" type="curve" smooth="yes"/>
      <point x="114.0" y="84.0" type="line"/>
    </contour>
  </outline>
</glyph>
<glyph name="I" format="2">
  <advance width="804.0"/>
  <unicode hex="0049"/>
  <outline>
    <contour>
      <point x="104.0" y="0.0" type="line"/>
      <point x="180.0" y="4.0"/>
      <point x="320.0" y="4.0"/>
      <point x="404.0" y="4.0" type="curve" smooth="yes"/>
      <point x="486.0" y="4.0"/>
      <point x="626.0" y="4.0"/>
      <point x="702.0" y="0.0" type="curve"/>
      <point x="702.0" y="84.0" type="line"/>
      <point x="526.0" y="84.0" type="line" smooth="yes"/>
      <point x="540.0" y="84.0"/>
      <point x="522.0" y="62.0"/>
      <point x="522.0" y="80.0" type="curve" smooth="yes"/>
      <point x="522.0" y="1292.0" type="line" smooth="yes"/>
      <point x="522.0" y="1310.0"/>
      <point x="540.0" y="1288.0"/>
      <point x="526.0" y="1288.0" type="curve" smooth="yes"/>
      <point x="702.0" y="1288.0" type="line"/>
      <point x="702.0" y="1372.0" type="line"/>
      <point x="626.0" y="1368.0"/>
      <point x="486.0" y="1368.0"/>
      <point x="402.0" y="1368.0" type="curve" smooth="yes"/>
      <point x="320.0" y="1368.0"/>
      <point x="180.0" y="1368.0"/>
      <point x="104.0" y="1372.0" type="curve"/>
      <point x="104.0" y="1288.0" type="line"/>
      <point x="280.0" y="1288.0" type="line" smooth="yes"/>
      <point x="266.0" y="1288.0"/>
      <point x="284.0" y="1310.0"/>
      <point x="284.0" y="1292.0" type="curve" smooth="yes"/>
      <point x="284.0" y="80.0" type="line" smooth="yes"/>
      <point x="284.0" y="62.0"/>
      <point x="266.0" y="84.0"/>
      <point x="280.0" y="84.0" type="curve" smooth="yes"/>
      <point x="104.0" y="84.0" type="line"/>
    </contour>
  </outline>
</glyph>
<glyph name="J" format="2">
  <advance width="1104.0"/>
  <unicode hex="004A"/>
  <outline>
    <contour>
      <point x="422.0" y="-10.0" type="curve" smooth="yes"/>
      <point x="674.0" y="-10.0"/>
      <point x="834.0" y="110.0"/>
      <point x="834.0" y="298.0" type="curve" smooth="yes"/>
      <point x="834.0" y="1288.0" type="line" smooth="yes"/>
      <point x="834.0" y="1284.0"/>
      <point x="828.0" y="1288.0"/>
      <point x="800.0" y="1288.0" type="curve"/>
      <point x="962.0" y="1288.0" type="line"/>
      <point x="962.0" y="1372.0" type="line"/>
      <point x="976.0" y="1370.0"/>
      <point x="740.0" y="1368.0"/>
      <point x="706.0" y="1368.0" type="curve" smooth="yes"/>
      <point x="600.0" y="1368.0"/>
      <point x="488.0" y="1368.0"/>
      <point x="384.0" y="1372.0" type="curve"/>
      <point x="384.0" y="1288.0" type="line"/>
      <point x="642.0" y="1288.0" type="line" smooth="yes"/>
      <point x="602.0" y="1288.0"/>
      <point x="606.0" y="1292.0"/>
      <point x="606.0" y="1290.0" type="curve" smooth="yes"/>
      <point x="606.0" y="296.0" type="line" smooth="yes"/>
      <point x="606.0" y="258.0"/>
      <point x="606.0" y="50.0"/>
      <point x="412.0" y="50.0" type="curve" smooth="yes"/>
      <point x="338.0" y="50.0"/>
      <point x="288.0" y="80.0"/>
      <point x="248.0" y="112.0" type="curve"/>
      <point x="188.0" y="98.0"/>
      <point x="322.0" y="102.0"/>
      <point x="322.0" y="228.0" type="curve" smooth="yes"/>
      <point x="322.0" y="312.0"/>
      <point x="258.0" y="354.0"/>
      <point x="198.0" y="354.0" type="curve" smooth="yes"/>
      <point x="120.0" y="354.0"/>
      <point x="70.0" y="302.0"/>
      <point x="70.0" y="228.0" type="curve" smooth="yes"/>
      <point x="70.0" y="88.0"/>
      <point x="208.0" y="-10.0"/>
    </contour>
  </outline>
</glyph>
<glyph name="K" format="2">
  <advance width="1686.0"/>
  <unicode hex="004B"/>
  <outline>
    <contour>
      <point x="114.0" y="0.0" type="line"/>
      <point x="178.0" y="4.0"/>
      <point x="332.0" y="4.0"/>
      <point x="404.0" y="4.0" type="curve" smooth="yes"/>
      <point x="476.0" y="4.0"/>
      <point x="628.0" y="4.0"/>
      <point x="692.0" y="0.0" type="curve"/>
      <point x="692.0" y="84.0" type="line"/>
      <point x="524.0" y="84.0" type="line" smooth="yes"/>
      <point x="540.0" y="84.0"/>
      <point x="522.0" y="62.0"/>
      <point x="522.0" y="80.0" type="curve" smooth="yes"/>
      <point x="522.0" y="504.0" type="line"/>
      <point x="746.0" y="704.0" type="line"/>
      <point x="1174.0" y="118.0" type="line" smooth="yes"/>
      <point x="1184.0" y="104.0"/>
      <point x="1180.0" y="100.0"/>
      <point x="1186.0" y="92.0" type="curve" smooth="yes"/>
      <point x="1150.0" y="84.0"/>
      <point x="1132.0" y="84.0"/>
      <point x="1076.0" y="84.0" type="curve"/>
      <point x="1076.0" y="0.0" type="line"/>
      <point x="1152.0" y="4.0"/>
      <point x="1284.0" y="4.0"/>
      <point x="1364.0" y="4.0" type="curve" smooth="yes"/>
      <point x="1422.0" y="4.0"/>
      <point x="1566.0" y="6.0"/>
      <point x="1602.0" y="0.0" type="curve"/>
      <point x="1602.0" y="84.0" type="line"/>
      <point x="1450.0" y="84.0"/>
      <point x="1462.0" y="90.0"/>
      <point x="1432.0" y="132.0" type="curve" smooth="yes"/>
      <point x="908.0" y="842.0" type="line"/>
      <point x="1374.0" y="1242.0" type="line" smooth="yes"/>
      <point x="1474.0" y="1334.0"/>
      <point x="1528.0" y="1286.0"/>
      <point x="1572.0" y="1288.0" type="curve"/>
      <point x="1572.0" y="1372.0" type="line"/>
      <point x="1504.0" y="1370.0"/>
      <point x="1404.0" y="1368.0"/>
      <point x="1408.0" y="1368.0" type="curve" smooth="yes"/>
      <point x="1350.0" y="1368.0"/>
      <point x="1226.0" y="1368.0"/>
      <point x="1170.0" y="1372.0" type="curve"/>
      <point x="1170.0" y="1288.0" type="line"/>
      <point x="1168.0" y="1286.0"/>
      <point x="1204.0" y="1296.0"/>
      <point x="1254.0" y="1290.0" type="curve" smooth="yes"/>
      <point x="1286.0" y="1300.0"/>
      <point x="1290.0" y="1296.0"/>
      <point x="1300.0" y="1296.0" type="curve" smooth="yes"/>
      <point x="522.0" y="610.0" type="line"/>
      <point x="522.0" y="1292.0" type="line" smooth="yes"/>
      <point x="522.0" y="1310.0"/>
      <point x="540.0" y="1288.0"/>
      <point x="524.0" y="1288.0" type="curve" smooth="yes"/>
      <point x="692.0" y="1288.0" type="line"/>
      <point x="692.0" y="1372.0" type="line"/>
      <point x="628.0" y="1368.0"/>
      <point x="474.0" y="1368.0"/>
      <point x="402.0" y="1368.0" type="curve" smooth="yes"/>
      <point x="330.0" y="1368.0"/>
      <point x="178.0" y="1368.0"/>
      <point x="114.0" y="1372.0" type="curve"/>
      <point x="114.0" y="1288.0" type="line"/>
      <point x="282.0" y="1288.0" type="line" smooth="yes"/>
      <point x="268.0" y="1288.0"/>
      <point x="284.0" y="1308.0"/>
      <point x="284.0" y="1292.0" type="curve" smooth="yes"/>
      <point x="284.0" y="80.0" type="line" smooth="yes"/>
      <point x="284.0" y="64.0"/>
      <point x="266.0" y="84.0"/>
      <point x="282.0" y="84.0" type="curve" smooth="yes"/>
      <point x="114.0" y="84.0" type="line"/>
    </contour>
  </outline>
</glyph>
<glyph name="L" format="2">
  <advance width="1282.0"/>
  <unicode hex="004C"/>
  <outline>
    <contour>
      <point x="1206.0" y="538.0" type="line"/>
      <point x="1126.0" y="538.0" type="line"/>
      <point x="1116.0" y="406.0"/>
      <point x="1084.0" y="84.0"/>
      <point x="736.0" y="84.0" type="curve" smooth="yes"/>
      <point x="508.0" y="84.0" type="line" smooth="yes"/>
      <point x="522.0" y="84.0"/>
      <point x="522.0" y="80.0"/>
      <point x="522.0" y="82.0" type="curve" smooth="yes"/>
      <point x="522.0" y="1292.0" type="line" smooth="yes"/>
      <point x="522.0" y="1296.0"/>
      <point x="526.0" y="1288.0"/>
      <point x="488.0" y="1288.0" type="curve" smooth="yes"/>
      <point x="736.0" y="1288.0" type="line"/>
      <point x="736.0" y="1372.0" type="line"/>
      <point x="638.0" y="1368.0"/>
      <point x="506.0" y="1368.0"/>
      <point x="408.0" y="1368.0" type="curve" smooth="yes"/>
      <point x="336.0" y="1368.0"/>
      <point x="178.0" y="1368.0"/>
      <point x="114.0" y="1372.0" type="curve"/>
      <point x="114.0" y="1288.0" type="line"/>
      <point x="282.0" y="1288.0" type="line" smooth="yes"/>
      <point x="266.0" y="1288.0"/>
      <point x="284.0" y="1310.0"/>
      <point x="284.0" y="1292.0" type="curve" smooth="yes"/>
      <point x="284.0" y="80.0" type="line" smooth="yes"/>
      <point x="284.0" y="62.0"/>
      <point x="266.0" y="84.0"/>
      <point x="282.0" y="84.0" type="curve" smooth="yes"/>
      <point x="114.0" y="84.0" type="line"/>
      <point x="114.0" y="0.0" type="line"/>
      <point x="1152.0" y="0.0" type="line"/>
    </contour>
  </outline>
</glyph>
<glyph name="M" format="2">
  <advance width="2050.0"/>
  <unicode hex="004D"/>
  <outline>
    <contour>
      <point x="1026.0" y="224.0" type="line"/>
      <point x="548.0" y="1334.0" type="line" smooth="yes"/>
      <point x="532.0" y="1370.0"/>
      <point x="514.0" y="1372.0"/>
      <point x="474.0" y="1372.0" type="curve" smooth="yes"/>
      <point x="112.0" y="1372.0" type="line"/>
      <point x="112.0" y="1288.0" type="line"/>
      <point x="280.0" y="1288.0" type="line" smooth="yes"/>
      <point x="264.0" y="1288.0"/>
      <point x="282.0" y="1310.0"/>
      <point x="282.0" y="1292.0" type="curve" smooth="yes"/>
      <point x="282.0" y="138.0" type="line" smooth="yes"/>
      <point x="282.0" y="94.0"/>
      <point x="280.0" y="84.0"/>
      <point x="162.0" y="84.0" type="curve"/>
      <point x="112.0" y="84.0" type="line"/>
      <point x="112.0" y="0.0" type="line"/>
      <point x="164.0" y="8.0"/>
      <point x="264.0" y="4.0"/>
      <point x="326.0" y="4.0" type="curve" smooth="yes"/>
      <point x="394.0" y="4.0"/>
      <point x="484.0" y="8.0"/>
      <point x="542.0" y="0.0" type="curve"/>
      <point x="542.0" y="84.0" type="line"/>
      <point x="492.0" y="84.0" type="line"/>
      <point x="384.0" y="84.0"/>
      <point x="372.0" y="90.0"/>
      <point x="372.0" y="138.0" type="curve" smooth="yes"/>
      <point x="372.0" y="1270.0" type="line"/>
      <point x="374.0" y="1270.0" type="line"/>
      <point x="906.0" y="38.0" type="line" smooth="yes"/>
      <point x="922.0" y="4.0"/>
      <point x="940.0" y="0.0"/>
      <point x="958.0" y="0.0" type="curve" smooth="yes"/>
      <point x="992.0" y="0.0"/>
      <point x="1006.0" y="26.0"/>
      <point x="1014.0" y="42.0" type="curve" smooth="yes"/>
      <point x="1554.0" y="1290.0" type="line"/>
      <point x="1556.0" y="1290.0" type="line"/>
      <point x="1556.0" y="80.0" type="line" smooth="yes"/>
      <point x="1556.0" y="62.0"/>
      <point x="1538.0" y="84.0"/>
      <point x="1554.0" y="84.0" type="curve" smooth="yes"/>
      <point x="1386.0" y="84.0" type="line"/>
      <point x="1386.0" y="0.0" type="line"/>
      <point x="1438.0" y="4.0"/>
      <point x="1596.0" y="4.0"/>
      <point x="1658.0" y="4.0" type="curve" smooth="yes"/>
      <point x="1720.0" y="4.0"/>
      <point x="1884.0" y="4.0"/>
      <point x="1936.0" y="0.0" type="curve"/>
      <point x="1936.0" y="84.0" type="line"/>
      <point x="1768.0" y="84.0" type="line" smooth="yes"/>
      <point x="1784.0" y="84.0"/>
      <point x="1766.0" y="62.0"/>
      <point x="1766.0" y="80.0" type="curve" smooth="yes"/>
      <point x="1766.0" y="1292.0" type="line" smooth="yes"/>
      <point x="1766.0" y="1310.0"/>
      <point x="1784.0" y="1288.0"/>
      <point x="1768.0" y="1288.0" type="curve" smooth="yes"/>
      <point x="1936.0" y="1288.0" type="line"/>
      <point x="1936.0" y="1372.0" type="line"/>
      <point x="1578.0" y="1372.0" type="line" smooth="yes"/>
      <point x="1544.0" y="1372.0"/>
      <point x="1520.0" y="1372.0"/>
      <point x="1500.0" y="1328.0" type="curve" smooth="yes"/>
    </contour>
  </outline>
</glyph>
<glyph name="N" format="2">
  <advance width="1686.0"/>
  <unicode hex="004E"/>
  <outline>
    <contour>
      <point x="1310.0" y="352.0" type="line"/>
      <point x="548.0" y="1348.0" type="line" smooth="yes"/>
      <point x="530.0" y="1370.0"/>
      <point x="528.0" y="1372.0"/>
      <point x="486.0" y="1372.0" type="curve" smooth="yes"/>
      <point x="114.0" y="1372.0" type="line"/>
      <point x="114.0" y="1288.0" type="line"/>
      <point x="94.0" y="1288.0" type="line" smooth="yes"/>
      <point x="216.0" y="1288.0"/>
      <point x="284.0" y="1280.0"/>
      <point x="332.0" y="1280.0" type="curve"/>
      <point x="286.0" y="1286.0"/>
      <point x="284.0" y="1288.0"/>
      <point x="284.0" y="1326.0" type="curve" smooth="yes"/>
      <point x="284.0" y="132.0" type="line" smooth="yes"/>
      <point x="284.0" y="86.0"/>
      <point x="260.0" y="84.0"/>
      <point x="166.0" y="84.0" type="curve"/>
      <point x="114.0" y="84.0" type="line"/>
      <point x="114.0" y="0.0" type="line"/>
      <point x="166.0" y="8.0"/>
      <point x="266.0" y="4.0"/>
      <point x="328.0" y="4.0" type="curve" smooth="yes"/>
      <point x="396.0" y="4.0"/>
      <point x="486.0" y="8.0"/>
      <point x="544.0" y="0.0" type="curve"/>
      <point x="544.0" y="84.0" type="line"/>
      <point x="524.0" y="84.0" type="line"/>
      <point x="396.0" y="84.0"/>
      <point x="374.0" y="86.0"/>
      <point x="374.0" y="132.0" type="curve" smooth="yes"/>
      <point x="374.0" y="1222.0" type="line"/>
      <point x="378.0" y="1220.0"/>
      <point x="376.0" y="1218.0"/>
      <point x="382.0" y="1210.0" type="curve" smooth="yes"/>
      <point x="1304.0" y="24.0" type="line" smooth="yes"/>
      <point x="1320.0" y="0.0"/>
      <point x="1326.0" y="0.0"/>
      <point x="1354.0" y="0.0" type="curve" smooth="yes"/>
      <point x="1400.0" y="0.0"/>
      <point x="1400.0" y="10.0"/>
      <point x="1400.0" y="56.0" type="curve" smooth="yes"/>
      <point x="1400.0" y="1234.0" type="line" smooth="yes"/>
      <point x="1400.0" y="1284.0"/>
      <point x="1406.0" y="1288.0"/>
      <point x="1520.0" y="1288.0" type="curve"/>
      <point x="1570.0" y="1288.0" type="line"/>
      <point x="1570.0" y="1372.0" type="line"/>
      <point x="1518.0" y="1364.0"/>
      <point x="1418.0" y="1368.0"/>
      <point x="1356.0" y="1368.0" type="curve" smooth="yes"/>
      <point x="1288.0" y="1368.0"/>
      <point x="1198.0" y="1364.0"/>
      <point x="1140.0" y="1372.0" type="curve"/>
      <point x="1140.0" y="1288.0" type="line"/>
      <point x="1190.0" y="1288.0" type="line"/>
      <point x="1308.0" y="1288.0"/>
      <point x="1310.0" y="1282.0"/>
      <point x="1310.0" y="1234.0" type="curve" smooth="yes"/>
    </contour>
  </outline>
</glyph>
<glyph name="O" format="2">
  <advance width="1610.0"/>
  <unicode hex="004F"/>
  <outline>
    <contour>
      <point x="1502.0" y="680.0" type="curve" smooth="yes"/>
      <point x="1502.0" y="1114.0"/>
      <point x="1220.0" y="1382.0"/>
      <point x="808.0" y="1382.0" type="curve" smooth="yes"/>
      <point x="368.0" y="1382.0"/>
      <point x="108.0" y="1094.0"/>
      <point x="108.0" y="680.0" type="curve" smooth="yes"/>
      <point x="108.0" y="270.0"/>
      <point x="372.0" y="-10.0"/>
      <point x="804.0" y="-10.0" type="curve" smooth="yes"/>
      <point x="1242.0" y="-10.0"/>
      <point x="1502.0" y="274.0"/>
    </contour>
    <contour>
      <point x="804.0" y="58.0" type="curve" smooth="yes"/>
      <point x="675.0" y="58.0"/>
      <point x="528.0" y="120.0"/>
      <point x="447.0" y="272.0" type="curve" smooth="yes"/>
      <point x="375.0" y="404.0"/>
      <point x="360.0" y="554.0"/>
      <point x="360.0" y="708.0" type="curve" smooth="yes"/>
      <point x="360.0" y="824.0"/>
      <point x="368.0" y="999.0"/>
      <point x="463.0" y="1141.0" type="curve" smooth="yes"/>
      <point x="542.0" y="1259.0"/>
      <point x="674.0" y="1316.0"/>
      <point x="804.0" y="1316.0" type="curve" smooth="yes"/>
      <point x="946.0" y="1316.0"/>
      <point x="1083.0" y="1252.0"/>
      <point x="1161.0" y="1123.0" type="curve" smooth="yes"/>
      <point x="1243.0" y="988.0"/>
      <point x="1250.0" y="829.0"/>
      <point x="1250.0" y="708.0" type="curve" smooth="yes"/>
      <point x="1250.0" y="582.0"/>
      <point x="1242.0" y="397.0"/>
      <point x="1150.0" y="252.0" type="curve" smooth="yes"/>
      <point x="1062.0" y="108.0"/>
      <point x="923.0" y="58.0"/>
    </contour>
  </outline>
</glyph>
<glyph name="P" format="2">
  <advance width="1468.0"/>
  <unicode hex="0050"/>
  <outline>
    <contour>
      <point x="520.0" y="614.0" type="line"/>
      <point x="856.0" y="614.0" type="line" smooth="yes"/>
      <point x="1152.0" y="614.0"/>
      <point x="1356.0" y="764.0"/>
      <point x="1356.0" y="988.0" type="curve" smooth="yes"/>
      <point x="1356.0" y="1202.0"/>
      <point x="1172.0" y="1372.0"/>
      <point x="852.0" y="1372.0" type="curve" smooth="yes"/>
      <point x="112.0" y="1372.0" type="line"/>
      <point x="112.0" y="1288.0" type="line"/>
      <point x="280.0" y="1288.0" type="line" smooth="yes"/>
      <point x="264.0" y="1288.0"/>
      <point x="282.0" y="1310.0"/>
      <point x="282.0" y="1292.0" type="curve" smooth="yes"/>
      <point x="282.0" y="80.0" type="line" smooth="yes"/>
      <point x="282.0" y="62.0"/>
      <point x="264.0" y="84.0"/>
      <point x="280.0" y="84.0" type="curve" smooth="yes"/>
      <point x="112.0" y="84.0" type="line"/>
      <point x="112.0" y="0.0" type="line"/>
      <point x="176.0" y="4.0"/>
      <point x="330.0" y="4.0"/>
      <point x="402.0" y="4.0" type="curve" smooth="yes"/>
      <point x="474.0" y="4.0"/>
      <point x="626.0" y="4.0"/>
      <point x="690.0" y="0.0" type="curve"/>
      <point x="690.0" y="84.0" type="line"/>
      <point x="522.0" y="84.0" type="line" smooth="yes"/>
      <point x="538.0" y="84.0"/>
      <point x="520.0" y="62.0"/>
      <point x="520.0" y="80.0" type="curve" smooth="yes"/>
    </contour>
    <contour>
      <point x="510.0" y="686.0" type="line"/>
      <point x="510.0" y="1290.0" type="line" smooth="yes"/>
      <point x="510.0" y="1292.0"/>
      <point x="510.0" y="1288.0"/>
      <point x="496.0" y="1288.0" type="curve" smooth="yes"/>
      <point x="790.0" y="1288.0" type="line" smooth="yes"/>
      <point x="1030.0" y="1288.0"/>
      <point x="1104.0" y="1200.0"/>
      <point x="1104.0" y="988.0" type="curve" smooth="yes"/>
      <point x="1104.0" y="758.0"/>
      <point x="1016.0" y="686.0"/>
      <point x="788.0" y="686.0" type="curve" smooth="yes"/>
    </contour>
  </outline>
</glyph>
<glyph name="Q" format="2">
  <advance width="1610.0"/>
  <unicode hex="0051"/>
  <outline>
    <contour>
      <point x="1094.0" y="40.0" type="curve"/>
      <point x="1424.0" y="164.0"/>
      <point x="1502.0" y="464.0"/>
      <point x="1502.0" y="680.0" type="curve" smooth="yes"/>
      <point x="1502.0" y="1114.0"/>
      <point x="1220.0" y="1382.0"/>
      <point x="808.0" y="1382.0" type="curve" smooth="yes"/>
      <point x="368.0" y="1382.0"/>
      <point x="108.0" y="1094.0"/>
      <point x="108.0" y="680.0" type="curve" smooth="yes"/>
      <point x="108.0" y="276.0"/>
      <point x="366.0" y="-10.0"/>
      <point x="806.0" y="-10.0" type="curve" smooth="yes"/>
      <point x="834.0" y="-10.0"/>
      <point x="894.0" y="-14.0"/>
      <point x="992.0" y="10.0" type="curve"/>
      <point x="1052.0" y="-270.0"/>
      <point x="1086.0" y="-390.0"/>
      <point x="1258.0" y="-390.0" type="curve" smooth="yes"/>
      <point x="1470.0" y="-390.0"/>
      <point x="1512.0" y="-108.0"/>
      <point x="1512.0" y="-18.0" type="curve" smooth="yes"/>
      <point x="1512.0" y="-2.0"/>
      <point x="1512.0" y="26.0"/>
      <point x="1484.0" y="26.0" type="curve" smooth="yes"/>
      <point x="1462.0" y="26.0"/>
      <point x="1458.0" y="2.0"/>
      <point x="1458.0" y="4.0" type="curve" smooth="yes"/>
      <point x="1444.0" y="-156.0"/>
      <point x="1296.0" y="-138.0"/>
      <point x="1284.0" y="-138.0" type="curve" smooth="yes"/>
      <point x="1214.0" y="-138.0"/>
      <point x="1162.0" y="-100.0"/>
    </contour>
    <contour>
      <point x="642.0" y="90.0" type="curve"/>
      <point x="296.0" y="234.0"/>
      <point x="350.0" y="614.0"/>
      <point x="350.0" y="682.0" type="curve" smooth="yes"/>
      <point x="350.0" y="747.0"/>
      <point x="350.0" y="941.0"/>
      <point x="429.0" y="1089.0" type="curve" smooth="yes"/>
      <point x="531.0" y="1280.0"/>
      <point x="704.0" y="1316.0"/>
      <point x="804.0" y="1316.0" type="curve" smooth="yes"/>
      <point x="922.0" y="1316.0"/>
      <point x="1077.0" y="1271.0"/>
      <point x="1172.0" y="1102.0" type="curve" smooth="yes"/>
      <point x="1254.0" y="962.0"/>
      <point x="1260.0" y="785.0"/>
      <point x="1260.0" y="682.0" type="curve" smooth="yes"/>
      <point x="1260.0" y="388.0"/>
      <point x="1150.0" y="184.0"/>
      <point x="1036.0" y="122.0" type="curve"/>
      <point x="1006.0" y="178.0"/>
      <point x="950.0" y="304.0"/>
      <point x="804.0" y="304.0" type="curve" smooth="yes"/>
      <point x="708.0" y="304.0"/>
      <point x="624.0" y="238.0"/>
      <point x="624.0" y="148.0" type="curve" smooth="yes"/>
      <point x="624.0" y="144.0"/>
      <point x="618.0" y="122.0"/>
    </contour>
    <contour>
      <point x="972.0" y="88.0" type="curve"/>
      <point x="910.0" y="62.0"/>
      <point x="850.0" y="56.0"/>
      <point x="806.0" y="56.0" type="curve" smooth="yes"/>
      <point x="708.0" y="56.0"/>
      <point x="684.0" y="110.0"/>
      <point x="684.0" y="148.0" type="curve" smooth="yes"/>
      <point x="684.0" y="206.0"/>
      <point x="742.0" y="244.0"/>
      <point x="806.0" y="244.0" type="curve" smooth="yes"/>
      <point x="882.0" y="244.0"/>
      <point x="938.0" y="192.0"/>
    </contour>
  </outline>
</glyph>
<glyph name="R" format="2">
  <advance width="1612.0"/>
  <unicode hex="0052"/>
  <outline>
    <contour>
      <point x="1014.0" y="682.0" type="curve"/>
      <point x="1242.0" y="732.0"/>
      <point x="1348.0" y="868.0"/>
      <point x="1348.0" y="1004.0" type="curve" smooth="yes"/>
      <point x="1348.0" y="1202.0"/>
      <point x="1144.0" y="1372.0"/>
      <point x="782.0" y="1372.0" type="curve" smooth="yes"/>
      <point x="112.0" y="1372.0" type="line"/>
      <point x="112.0" y="1288.0" type="line"/>
      <point x="280.0" y="1288.0" type="line" smooth="yes"/>
      <point x="264.0" y="1288.0"/>
      <point x="282.0" y="1310.0"/>
      <point x="282.0" y="1292.0" type="curve" smooth="yes"/>
      <point x="282.0" y="80.0" type="line" smooth="yes"/>
      <point x="282.0" y="62.0"/>
      <point x="264.0" y="84.0"/>
      <point x="280.0" y="84.0" type="curve" smooth="yes"/>
      <point x="112.0" y="84.0" type="line"/>
      <point x="112.0" y="0.0" type="line"/>
      <point x="170.0" y="4.0"/>
      <point x="328.0" y="4.0"/>
      <point x="396.0" y="4.0" type="curve" smooth="yes"/>
      <point x="464.0" y="4.0"/>
      <point x="622.0" y="4.0"/>
      <point x="680.0" y="0.0" type="curve"/>
      <point x="680.0" y="84.0" type="line"/>
      <point x="512.0" y="84.0" type="line" smooth="yes"/>
      <point x="528.0" y="84.0"/>
      <point x="510.0" y="62.0"/>
      <point x="510.0" y="80.0" type="curve" smooth="yes"/>
      <point x="510.0" y="656.0" type="line"/>
      <point x="748.0" y="656.0" type="line" smooth="yes"/>
      <point x="858.0" y="656.0"/>
      <point x="926.0" y="610.0"/>
      <point x="946.0" y="584.0" type="curve" smooth="yes"/>
      <point x="1014.0" y="508.0"/>
      <point x="1014.0" y="478.0"/>
      <point x="1014.0" y="330.0" type="curve" smooth="yes"/>
      <point x="1014.0" y="194.0"/>
      <point x="1014.0" y="108.0"/>
      <point x="1132.0" y="48.0" type="curve" smooth="yes"/>
      <point x="1214.0" y="-6.0"/>
      <point x="1330.0" y="-10.0"/>
      <point x="1396.0" y="-10.0" type="curve" smooth="yes"/>
      <point x="1602.0" y="-10.0"/>
      <point x="1616.0" y="172.0"/>
      <point x="1616.0" y="182.0" type="curve" smooth="yes"/>
      <point x="1616.0" y="226.0"/>
      <point x="1588.0" y="218.0"/>
      <point x="1576.0" y="218.0" type="curve" smooth="yes"/>
      <point x="1540.0" y="218.0"/>
      <point x="1536.0" y="204.0"/>
      <point x="1536.0" y="184.0" type="curve"/>
      <point x="1528.0" y="102.0"/>
      <point x="1482.0" y="50.0"/>
      <point x="1410.0" y="50.0" type="curve" smooth="yes"/>
      <point x="1278.0" y="50.0"/>
      <point x="1264.0" y="216.0"/>
      <point x="1270.0" y="236.0" type="curve" smooth="yes"/>
      <point x="1268.0" y="246.0"/>
      <point x="1258.0" y="362.0"/>
      <point x="1260.0" y="362.0" type="curve"/>
      <point x="1256.0" y="474.0"/>
      <point x="1228.0" y="616.0"/>
    </contour>
    <contour>
      <point x="510.0" y="716.0" type="line"/>
      <point x="510.0" y="1290.0" type="line" smooth="yes"/>
      <point x="510.0" y="1312.0"/>
      <point x="514.0" y="1298.0"/>
      <point x="550.0" y="1292.0" type="curve"/>
      <point x="657.0" y="1288.0"/>
      <point x="727.0" y="1288.0"/>
      <point x="814.0" y="1288.0" type="curve" smooth="yes"/>
      <point x="1122.0" y="1288.0"/>
      <point x="1096.0" y="1082.0"/>
      <point x="1096.0" y="1002.0" type="curve" smooth="yes"/>
      <point x="1096.0" y="770.0"/>
      <point x="932.0" y="716.0"/>
      <point x="748.0" y="716.0" type="curve" smooth="yes"/>
    </contour>
  </outline>
</glyph>
<glyph name="S" format="2">
  <advance width="1186.0"/>
  <unicode hex="0053"/>
  <outline>
    <contour>
      <point x="916.0" y="320.0" type="curve" smooth="yes"/>
      <point x="916.0" y="222.0"/>
      <point x="862.0" y="74.0"/>
      <point x="648.0" y="74.0" type="curve" smooth="yes"/>
      <point x="548.0" y="74.0"/>
      <point x="214.0" y="80.0"/>
      <point x="188.0" y="396.0" type="curve"/>
      <point x="186.0" y="444.0"/>
      <point x="200.0" y="456.0"/>
      <point x="148.0" y="456.0" type="curve" smooth="yes"/>
      <point x="110.0" y="456.0"/>
      <point x="108.0" y="456.0"/>
      <point x="108.0" y="406.0" type="curve" smooth="yes"/>
      <point x="108.0" y="38.0" type="line" smooth="yes"/>
      <point x="108.0" y="-2.0"/>
      <point x="110.0" y="-8.0"/>
      <point x="136.0" y="-8.0" type="curve" smooth="yes"/>
      <point x="154.0" y="-8.0"/>
      <point x="160.0" y="2.0"/>
      <point x="190.0" y="56.0" type="curve" smooth="yes"/>
      <point x="210.0" y="78.0"/>
      <point x="230.0" y="98.0"/>
      <point x="250.0" y="120.0" type="curve"/>
      <point x="420.0" y="-42.0"/>
      <point x="646.0" y="-10.0"/>
      <point x="646.0" y="-10.0" type="curve" smooth="yes"/>
      <point x="960.0" y="-10.0"/>
      <point x="1078.0" y="202.0"/>
      <point x="1078.0" y="396.0" type="curve" smooth="yes"/>
      <point x="1078.0" y="495.0"/>
      <point x="1045.0" y="567.0"/>
      <point x="1029.0" y="601.0" type="curve" smooth="yes"/>
      <point x="928.0" y="757.0"/>
      <point x="831.0" y="780.0"/>
      <point x="638.0" y="826.0" type="curve" smooth="yes"/>
      <point x="455.0" y="871.0"/>
      <point x="397.0" y="885.0"/>
      <point x="336.0" y="940.0" type="curve" smooth="yes"/>
      <point x="324.0" y="990.0"/>
      <point x="270.0" y="1014.0"/>
      <point x="270.0" y="1084.0" type="curve" smooth="yes"/>
      <point x="270.0" y="1160.0"/>
      <point x="322.0" y="1304.0"/>
      <point x="536.0" y="1304.0" type="curve" smooth="yes"/>
      <point x="574.0" y="1304.0"/>
      <point x="864.0" y="1414.0"/>
      <point x="928.0" y="982.0" type="curve" smooth="yes"/>
      <point x="940.0" y="910.0"/>
      <point x="942.0" y="916.0"/>
      <point x="976.0" y="916.0" type="curve" smooth="yes"/>
      <point x="1016.0" y="916.0"/>
      <point x="1016.0" y="922.0"/>
      <point x="1016.0" y="964.0" type="curve" smooth="yes"/>
      <point x="1016.0" y="1334.0" type="line" smooth="yes"/>
      <point x="1016.0" y="1374.0"/>
      <point x="1014.0" y="1380.0"/>
      <point x="988.0" y="1380.0" type="curve" smooth="yes"/>
      <point x="974.0" y="1380.0"/>
      <point x="970.0" y="1372.0"/>
      <point x="954.0" y="1358.0" type="curve" smooth="yes"/>
      <point x="927.0" y="1323.0"/>
      <point x="901.0" y="1287.0"/>
      <point x="874.0" y="1252.0" type="curve"/>
      <point x="742.0" y="1396.0"/>
      <point x="578.0" y="1382.0"/>
      <point x="534.0" y="1382.0" type="curve" smooth="yes"/>
      <point x="248.0" y="1382.0"/>
      <point x="108.0" y="1204.0"/>
      <point x="108.0" y="1002.0" type="curve" smooth="yes"/>
      <point x="108.0" y="976.0"/>
      <point x="82.0" y="942.0"/>
      <point x="36.0" y="868.0" type="curve" smooth="yes"/>
      <point x="186.0" y="686.0"/>
      <point x="222.0" y="680.0"/>
      <point x="460.0" y="624.0" type="curve" smooth="yes"/>
      <point x="642.0" y="584.0"/>
      <point x="718.0" y="562.0"/>
      <point x="724.0" y="590.0" type="curve" smooth="yes"/>
      <point x="828.0" y="566.0"/>
      <point x="916.0" y="458.0"/>
    </contour>
  </outline>
</glyph>
<glyph name="T" format="2">
  <advance width="1490.0"/>
  <unicode hex="0054"/>
  <outline>
    <contour>
      <point x="1384.0" y="1356.0" type="line"/>
      <point x="106.0" y="1356.0" type="line"/>
      <point x="68.0" y="882.0" type="line"/>
      <point x="148.0" y="882.0" type="line"/>
      <point x="164.0" y="1118.0"/>
      <point x="182.0" y="1272.0"/>
      <point x="476.0" y="1272.0" type="curve" smooth="yes"/>
      <point x="527.0" y="1272.0"/>
      <point x="585.0" y="1272.0"/>
      <point x="632.0" y="1274.0" type="curve" smooth="yes"/>
      <point x="628.0" y="1276.0"/>
      <point x="628.0" y="1274.0"/>
      <point x="628.0" y="1274.0" type="curve" smooth="yes"/>
      <point x="628.0" y="82.0" type="line" smooth="yes"/>
      <point x="628.0" y="78.0"/>
      <point x="622.0" y="84.0"/>
      <point x="666.0" y="84.0" type="curve" smooth="yes"/>
      <point x="384.0" y="84.0" type="line"/>
      <point x="384.0" y="0.0" type="line"/>
      <point x="506.0" y="2.0"/>
      <point x="624.0" y="4.0"/>
      <point x="748.0" y="4.0" type="curve" smooth="yes"/>
      <point x="872.0" y="4.0"/>
      <point x="988.0" y="2.0"/>
      <point x="1110.0" y="0.0" type="curve"/>
      <point x="1110.0" y="84.0" type="line"/>
      <point x="828.0" y="84.0" type="line" smooth="yes"/>
      <point x="872.0" y="84.0"/>
      <point x="866.0" y="78.0"/>
      <point x="866.0" y="82.0" type="curve" smooth="yes"/>
      <point x="866.0" y="1274.0" type="line" smooth="yes"/>
      <point x="866.0" y="1278.0"/>
      <point x="866.0" y="1274.0"/>
      <point x="866.0" y="1274.0" type="curve" smooth="yes"/>
      <point x="911.0" y="1272.0"/>
      <point x="965.0" y="1272.0"/>
      <point x="1014.0" y="1272.0" type="curve" smooth="yes"/>
      <point x="1304.0" y="1272.0"/>
      <point x="1324.0" y="1120.0"/>
      <point x="1342.0" y="882.0" type="curve"/>
      <point x="1422.0" y="882.0" type="line"/>
    </contour>
  </outline>
</glyph>
<glyph name="U" format="2">
  <advance width="1654.0"/>
  <unicode hex="0055"/>
  <outline>
    <contour>
      <point x="868.0" y="74.0" type="curve" smooth="yes"/>
      <point x="430.0" y="74.0"/>
      <point x="522.0" y="446.0"/>
      <point x="522.0" y="424.0" type="curve" smooth="yes"/>
      <point x="522.0" y="1292.0" type="line" smooth="yes"/>
      <point x="522.0" y="1310.0"/>
      <point x="540.0" y="1288.0"/>
      <point x="524.0" y="1288.0" type="curve" smooth="yes"/>
      <point x="692.0" y="1288.0" type="line"/>
      <point x="692.0" y="1372.0" type="line"/>
      <point x="628.0" y="1368.0"/>
      <point x="474.0" y="1368.0"/>
      <point x="402.0" y="1368.0" type="curve" smooth="yes"/>
      <point x="330.0" y="1368.0"/>
      <point x="178.0" y="1368.0"/>
      <point x="114.0" y="1372.0" type="curve"/>
      <point x="114.0" y="1288.0" type="line"/>
      <point x="282.0" y="1288.0" type="line" smooth="yes"/>
      <point x="266.0" y="1288.0"/>
      <point x="284.0" y="1310.0"/>
      <point x="284.0" y="1292.0" type="curve" smooth="yes"/>
      <point x="284.0" y="464.0" type="line" smooth="yes"/>
      <point x="284.0" y="192.0"/>
      <point x="486.0" y="-10.0"/>
      <point x="860.0" y="-10.0" type="curve" smooth="yes"/>
      <point x="1280.0" y="-10.0"/>
      <point x="1370.0" y="304.0"/>
      <point x="1370.0" y="426.0" type="curve" smooth="yes"/>
      <point x="1370.0" y="1276.0" type="line" smooth="yes"/>
      <point x="1370.0" y="1364.0"/>
      <point x="1516.0" y="1288.0"/>
      <point x="1490.0" y="1288.0" type="curve"/>
      <point x="1540.0" y="1288.0" type="line"/>
      <point x="1540.0" y="1372.0" type="line"/>
      <point x="1490.0" y="1364.0"/>
      <point x="1388.0" y="1368.0"/>
      <point x="1328.0" y="1368.0" type="curve" smooth="yes"/>
      <point x="1264.0" y="1368.0"/>
      <point x="1170.0" y="1364.0"/>
      <point x="1114.0" y="1372.0" type="curve"/>
      <point x="1114.0" y="1288.0" type="line"/>
      <point x="1164.0" y="1288.0" type="line"/>
      <point x="1252.0" y="1288.0"/>
      <point x="1284.0" y="1288.0"/>
      <point x="1284.0" y="1248.0" type="curve" smooth="yes"/>
      <point x="1284.0" y="462.0" type="line" smooth="yes"/>
      <point x="1284.0" y="182.0"/>
      <point x="1086.0" y="74.0"/>
    </contour>
  </outline>
</glyph>
<glyph name="V" format="2">
  <advance width="1624.0"/>
  <unicode hex="0056"/>
  <outline>
    <contour>
      <point x="812.0" y="-4.0" type="curve" smooth="yes"/>
      <point x="832.0" y="-4.0"/>
      <point x="856.0" y="-10.0"/>
      <point x="878.0" y="38.0" type="curve" smooth="yes"/>
      <point x="1418.0" y="1246.0" type="line" smooth="yes"/>
      <point x="1420.0" y="1242.0"/>
      <point x="1406.0" y="1288.0"/>
      <point x="1550.0" y="1288.0" type="curve"/>
      <point x="1588.0" y="1288.0" type="line"/>
      <point x="1588.0" y="1372.0" type="line"/>
      <point x="1528.0" y="1370.0"/>
      <point x="1460.0" y="1368.0"/>
      <point x="1408.0" y="1368.0" type="curve" smooth="yes"/>
      <point x="1340.0" y="1368.0"/>
      <point x="1270.0" y="1364.0"/>
      <point x="1198.0" y="1372.0" type="curve"/>
      <point x="1198.0" y="1288.0" type="line"/>
      <point x="1212.0" y="1284.0"/>
      <point x="1332.0" y="1266.0"/>
      <point x="1332.0" y="1276.0" type="curve" smooth="yes"/>
      <point x="1332.0" y="1264.0"/>
      <point x="1328.0" y="1254.0"/>
      <point x="1322.0" y="1240.0" type="curve" smooth="yes"/>
      <point x="890.0" y="268.0" type="line"/>
      <point x="434.0" y="1294.0" type="line" smooth="yes"/>
      <point x="440.0" y="1280.0"/>
      <point x="436.0" y="1286.0"/>
      <point x="436.0" y="1292.0" type="curve" smooth="yes"/>
      <point x="499.0" y="1288.0"/>
      <point x="527.0" y="1288.0"/>
      <point x="582.0" y="1288.0" type="curve"/>
      <point x="582.0" y="1372.0" type="line"/>
      <point x="514.0" y="1368.0"/>
      <point x="366.0" y="1368.0"/>
      <point x="290.0" y="1368.0" type="curve" smooth="yes"/>
      <point x="256.0" y="1368.0"/>
      <point x="80.0" y="1364.0"/>
      <point x="34.0" y="1372.0" type="curve"/>
      <point x="34.0" y="1288.0" type="line"/>
      <point x="218.0" y="1288.0" type="line"/>
      <point x="204.0" y="1288.0"/>
      <point x="188.0" y="1280.0"/>
      <point x="184.0" y="1292.0" type="curve" smooth="yes"/>
      <point x="748.0" y="36.0" type="line" smooth="yes"/>
      <point x="760.0" y="10.0"/>
      <point x="760.0" y="-4.0"/>
    </contour>
  </outline>
</glyph>
<glyph name="W" format="2">
  <advance width="2230.0"/>
  <unicode hex="0057"/>
  <outline>
    <contour>
      <point x="778.0" y="312.0" type="line"/>
      <point x="420.0" y="1282.0" type="line" smooth="yes"/>
      <point x="412.0" y="1304.0"/>
      <point x="414.0" y="1294.0"/>
      <point x="414.0" y="1292.0" type="curve" smooth="yes"/>
      <point x="478.0" y="1288.0"/>
      <point x="514.0" y="1288.0"/>
      <point x="566.0" y="1288.0" type="curve"/>
      <point x="566.0" y="1372.0" type="line"/>
      <point x="504.0" y="1368.0"/>
      <point x="352.0" y="1368.0"/>
      <point x="280.0" y="1368.0" type="curve" smooth="yes"/>
      <point x="226.0" y="1368.0"/>
      <point x="66.0" y="1364.0"/>
      <point x="30.0" y="1372.0" type="curve"/>
      <point x="30.0" y="1288.0" type="line"/>
      <point x="202.0" y="1288.0" type="line"/>
      <point x="172.0" y="1288.0"/>
      <point x="172.0" y="1286.0"/>
      <point x="168.0" y="1296.0" type="curve" smooth="yes"/>
      <point x="638.0" y="44.0" type="line" smooth="yes"/>
      <point x="654.0" y="0.0"/>
      <point x="656.0" y="-4.0"/>
      <point x="698.0" y="-4.0" type="curve" smooth="yes"/>
      <point x="736.0" y="-4.0"/>
      <point x="746.0" y="6.0"/>
      <point x="758.0" y="40.0" type="curve" smooth="yes"/>
      <point x="1116.0" y="1008.0" type="line"/>
      <point x="1472.0" y="42.0" type="line" smooth="yes"/>
      <point x="1486.0" y="0.0"/>
      <point x="1494.0" y="-4.0"/>
      <point x="1534.0" y="-4.0" type="curve" smooth="yes"/>
      <point x="1574.0" y="-4.0"/>
      <point x="1578.0" y="6.0"/>
      <point x="1592.0" y="42.0" type="curve" smooth="yes"/>
      <point x="2046.0" y="1246.0" type="line" smooth="yes"/>
      <point x="2040.0" y="1220.0"/>
      <point x="1988.0" y="1280.0"/>
      <point x="2112.0" y="1286.0" type="curve"/>
      <point x="2200.0" y="1288.0" type="line"/>
      <point x="2200.0" y="1372.0" type="line"/>
      <point x="2172.0" y="1372.0"/>
      <point x="2094.0" y="1368.0"/>
      <point x="2028.0" y="1368.0" type="curve" smooth="yes"/>
      <point x="1960.0" y="1368.0"/>
      <point x="1876.0" y="1364.0"/>
      <point x="1808.0" y="1372.0" type="curve"/>
      <point x="1808.0" y="1288.0" type="line"/>
      <point x="1814.0" y="1288.0"/>
      <point x="1908.0" y="1304.0"/>
      <point x="1966.0" y="1272.0" type="curve" smooth="yes"/>
      <point x="1966.0" y="1270.0"/>
      <point x="1970.0" y="1278.0"/>
      <point x="1966.0" y="1268.0" type="curve" smooth="yes"/>
      <point x="1612.0" y="310.0" type="line"/>
      <point x="1252.0" y="1286.0" type="line"/>
      <point x="1248.0" y="1298.0"/>
      <point x="1250.0" y="1294.0"/>
      <point x="1250.0" y="1292.0" type="curve" smooth="yes"/>
      <point x="1314.0" y="1288.0"/>
      <point x="1350.0" y="1288.0"/>
      <point x="1400.0" y="1288.0" type="curve"/>
      <point x="1400.0" y="1372.0" type="line"/>
      <point x="1338.0" y="1368.0"/>
      <point x="1186.0" y="1368.0"/>
      <point x="1114.0" y="1368.0" type="curve" smooth="yes"/>
      <point x="1062.0" y="1368.0"/>
      <point x="900.0" y="1364.0"/>
      <point x="866.0" y="1372.0" type="curve"/>
      <point x="866.0" y="1288.0" type="line"/>
      <point x="1038.0" y="1288.0" type="line"/>
      <point x="1016.0" y="1288.0"/>
      <point x="998.0" y="1282.0"/>
      <point x="994.0" y="1318.0" type="curve" smooth="yes"/>
      <point x="1015.0" y="1275.0"/>
      <point x="1059.0" y="1149.0"/>
      <point x="1072.0" y="1112.0" type="curve"/>
    </contour>
  </outline>
</glyph>
<glyph name="X" format="2">
  <advance width="1624.0"/>
  <unicode hex="0058"/>
  <outline>
    <contour>
      <point x="894.0" y="780.0" type="line"/>
      <point x="1252.0" y="1246.0" type="line" smooth="yes"/>
      <point x="1276.0" y="1272.0"/>
      <point x="1342.0" y="1288.0"/>
      <point x="1426.0" y="1288.0" type="curve"/>
      <point x="1484.0" y="1288.0" type="line"/>
      <point x="1484.0" y="1372.0" type="line"/>
      <point x="1432.0" y="1364.0"/>
      <point x="1352.0" y="1368.0"/>
      <point x="1268.0" y="1368.0" type="curve" smooth="yes"/>
      <point x="1204.0" y="1368.0"/>
      <point x="1064.0" y="1368.0"/>
      <point x="1022.0" y="1372.0" type="curve"/>
      <point x="1022.0" y="1288.0" type="line"/>
      <point x="1042.0" y="1284.0"/>
      <point x="1092.0" y="1288.0"/>
      <point x="1162.0" y="1280.0" type="curve" smooth="yes"/>
      <point x="1158.0" y="1268.0"/>
      <point x="1144.0" y="1248.0"/>
      <point x="1140.0" y="1244.0" type="curve" smooth="yes"/>
      <point x="840.0" y="850.0" type="line"/>
      <point x="516.0" y="1290.0" type="line" smooth="yes"/>
      <point x="506.0" y="1306.0"/>
      <point x="514.0" y="1296.0"/>
      <point x="514.0" y="1294.0" type="curve" smooth="yes"/>
      <point x="569.0" y="1288.0"/>
      <point x="603.0" y="1288.0"/>
      <point x="638.0" y="1288.0" type="curve"/>
      <point x="638.0" y="1372.0" type="line"/>
      <point x="562.0" y="1368.0"/>
      <point x="420.0" y="1368.0"/>
      <point x="340.0" y="1368.0" type="curve" smooth="yes"/>
      <point x="270.0" y="1368.0"/>
      <point x="120.0" y="1366.0"/>
      <point x="76.0" y="1372.0" type="curve"/>
      <point x="76.0" y="1288.0" type="line"/>
      <point x="234.0" y="1288.0" type="line" smooth="yes"/>
      <point x="234.0" y="1288.0"/>
      <point x="232.0" y="1298.0"/>
      <point x="238.0" y="1292.0" type="curve" smooth="yes"/>
      <point x="700.0" y="670.0" type="line"/>
      <point x="276.0" y="118.0" type="line" smooth="yes"/>
      <point x="188.0" y="-6.0"/>
      <point x="44.0" y="84.0"/>
      <point x="104.0" y="84.0" type="curve"/>
      <point x="46.0" y="84.0" type="line"/>
      <point x="46.0" y="0.0" type="line"/>
      <point x="104.0" y="8.0"/>
      <point x="194.0" y="4.0"/>
      <point x="262.0" y="4.0" type="curve" smooth="yes"/>
      <point x="320.0" y="4.0"/>
      <point x="458.0" y="4.0"/>
      <point x="508.0" y="0.0" type="curve"/>
      <point x="508.0" y="84.0" type="line"/>
      <point x="502.0" y="88.0"/>
      <point x="440.0" y="74.0"/>
      <point x="370.0" y="92.0" type="curve" smooth="yes"/>
      <point x="372.0" y="104.0"/>
      <point x="382.0" y="118.0"/>
      <point x="386.0" y="120.0" type="curve" smooth="yes"/>
      <point x="752.0" y="602.0" type="line"/>
      <point x="1132.0" y="90.0" type="line" smooth="yes"/>
      <point x="1142.0" y="78.0"/>
      <point x="1138.0" y="78.0"/>
      <point x="1138.0" y="78.0" type="curve" smooth="yes"/>
      <point x="1083.0" y="86.0"/>
      <point x="1053.0" y="86.0"/>
      <point x="1014.0" y="84.0" type="curve"/>
      <point x="1014.0" y="0.0" type="line"/>
      <point x="1090.0" y="4.0"/>
      <point x="1232.0" y="4.0"/>
      <point x="1312.0" y="4.0" type="curve" smooth="yes"/>
      <point x="1360.0" y="4.0"/>
      <point x="1542.0" y="6.0"/>
      <point x="1576.0" y="0.0" type="curve"/>
      <point x="1576.0" y="84.0" type="line"/>
      <point x="1418.0" y="84.0" type="line" smooth="yes"/>
      <point x="1394.0" y="84.0"/>
      <point x="1416.0" y="84.0"/>
      <point x="1418.0" y="78.0" type="curve" smooth="yes"/>
    </contour>
  </outline>
</glyph>
<glyph name="Y" format="2">
  <advance width="1624.0"/>
  <unicode hex="0059"/>
  <outline>
    <contour>
      <point x="698.0" y="548.0" type="line"/>
      <point x="698.0" y="80.0" type="line" smooth="yes"/>
      <point x="698.0" y="62.0"/>
      <point x="680.0" y="84.0"/>
      <point x="696.0" y="84.0" type="curve" smooth="yes"/>
      <point x="528.0" y="84.0" type="line"/>
      <point x="528.0" y="0.0" type="line"/>
      <point x="586.0" y="4.0"/>
      <point x="744.0" y="4.0"/>
      <point x="812.0" y="4.0" type="curve" smooth="yes"/>
      <point x="882.0" y="4.0"/>
      <point x="1038.0" y="4.0"/>
      <point x="1100.0" y="0.0" type="curve"/>
      <point x="1100.0" y="84.0" type="line"/>
      <point x="928.0" y="84.0" type="line" smooth="yes"/>
      <point x="938.0" y="84.0"/>
      <point x="926.0" y="64.0"/>
      <point x="926.0" y="84.0" type="curve" smooth="yes"/>
      <point x="926.0" y="548.0" type="line"/>
      <point x="1412.0" y="1252.0" type="line" smooth="yes"/>
      <point x="1442.0" y="1294.0"/>
      <point x="1528.0" y="1288.0"/>
      <point x="1560.0" y="1288.0" type="curve"/>
      <point x="1602.0" y="1288.0" type="line"/>
      <point x="1602.0" y="1372.0" type="line"/>
      <point x="1538.0" y="1370.0"/>
      <point x="1474.0" y="1368.0"/>
      <point x="1422.0" y="1368.0" type="curve" smooth="yes"/>
      <point x="1356.0" y="1368.0"/>
      <point x="1280.0" y="1364.0"/>
      <point x="1210.0" y="1372.0" type="curve"/>
      <point x="1210.0" y="1288.0" type="line"/>
      <point x="1224.0" y="1286.0"/>
      <point x="1272.0" y="1298.0"/>
      <point x="1324.0" y="1280.0" type="curve" smooth="yes"/>
      <point x="1322.0" y="1272.0"/>
      <point x="1316.0" y="1270.0"/>
      <point x="1304.0" y="1250.0" type="curve" smooth="yes"/>
      <point x="900.0" y="658.0" type="line"/>
      <point x="462.0" y="1292.0" type="line" smooth="yes"/>
      <point x="460.0" y="1296.0"/>
      <point x="460.0" y="1294.0"/>
      <point x="460.0" y="1298.0" type="curve" smooth="yes"/>
      <point x="517.0" y="1296.0"/>
      <point x="593.0" y="1288.0"/>
      <point x="588.0" y="1288.0" type="curve"/>
      <point x="588.0" y="1372.0" type="line"/>
      <point x="514.0" y="1368.0"/>
      <point x="368.0" y="1368.0"/>
      <point x="290.0" y="1368.0" type="curve" smooth="yes"/>
      <point x="242.0" y="1368.0"/>
      <point x="54.0" y="1366.0"/>
      <point x="20.0" y="1372.0" type="curve"/>
      <point x="20.0" y="1288.0" type="line"/>
      <point x="180.0" y="1288.0" type="line" smooth="yes"/>
      <point x="158.0" y="1288.0"/>
      <point x="174.0" y="1304.0"/>
      <point x="178.0" y="1298.0" type="curve" smooth="yes"/>
    </contour>
  </outline>
</glyph>
<glyph name="Z" format="2">
  <advance width="1308.0"/>
  <unicode hex="005A"/>
  <outline>
    <contour>
      <point x="164.0" y="0.0" type="curve" smooth="yes"/>
      <point x="1182.0" y="0.0" type="line"/>
      <point x="1212.0" y="556.0" type="line"/>
      <point x="1132.0" y="556.0" type="line"/>
      <point x="1114.0" y="350.0"/>
      <point x="1110.0" y="90.0"/>
      <point x="688.0" y="90.0" type="curve" smooth="yes"/>
      <point x="388.0" y="90.0" type="line"/>
      <point x="1156.0" y="1238.0" type="line" smooth="yes"/>
      <point x="1172.0" y="1262.0"/>
      <point x="1186.0" y="1284.0"/>
      <point x="1200.0" y="1314.0" type="curve" smooth="yes"/>
      <point x="1200.0" y="1370.0"/>
      <point x="1188.0" y="1372.0"/>
      <point x="1144.0" y="1372.0" type="curve" smooth="yes"/>
      <point x="162.0" y="1372.0" type="line"/>
      <point x="140.0" y="898.0" type="line"/>
      <point x="220.0" y="898.0" type="line"/>
      <point x="234.0" y="1166.0"/>
      <point x="368.0" y="1288.0"/>
      <point x="644.0" y="1288.0" type="curve" smooth="yes"/>
      <point x="920.0" y="1288.0" type="line"/>
      <point x="124.0" y="94.0" type="line" smooth="yes"/>
      <point x="108.0" y="70.0"/>
      <point x="108.0" y="64.0"/>
      <point x="108.0" y="44.0" type="curve" smooth="yes"/>
      <point x="108.0" y="0.0"/>
      <point x="122.0" y="0.0"/>
    </contour>
  </outline>
</glyph>
<glyph name="bracketleft" format="2">
  <advance width="582.0"/>
  <unicode hex="005B"/>
  <outline>
    <contour>
      <point x="546.0" y="1386.0" type="line"/>
      <point x="546.0" y="1498.0" type="line"/>
      <point x="232.0" y="1498.0" type="line"/>
      <point x="232.0" y="-498.0" type="line"/>
      <point x="546.0" y="-498.0" type="line"/>
      <point x="546.0" y="-386.0" type="line"/>
      <point x="344.0" y="-386.0" type="line"/>
      <point x="344.0" y="1386.0" type="line"/>
    </contour>
  </outline>
</glyph>
<glyph name="bracketright" format="2">
  <advance width="582.0"/>
  <unicode hex="005D"/>
  <outline>
    <contour>
      <point x="348.0" y="1498.0" type="line"/>
      <point x="34.0" y="1498.0" type="line"/>
      <point x="34.0" y="1386.0" type="line"/>
      <point x="236.0" y="1386.0" type="line"/>
      <point x="236.0" y="-386.0" type="line"/>
      <point x="34.0" y="-386.0" type="line"/>
      <point x="34.0" y="-498.0" type="line"/>
      <point x="348.0" y="-498.0" type="line"/>
    </contour>
  </outline>
</glyph>
<glyph name="grave" format="2">
  <advance width="1066.0"/>
  <unicode hex="0060"/>
  <outline>
    <contour>
      <point x="578.0" y="1022.0" type="line"/>
      <point x="626.0" y="1086.0" type="line"/>
      <point x="412.0" y="1334.0" type="line" smooth="yes"/>
      <point x="358.0" y="1400.0"/>
      <point x="354.0" y="1404.0"/>
      <point x="314.0" y="1404.0" type="curve" smooth="yes"/>
      <point x="258.0" y="1404.0"/>
      <point x="212.0" y="1352.0"/>
      <point x="212.0" y="1298.0" type="curve" smooth="yes"/>
      <point x="212.0" y="1236.0"/>
      <point x="270.0" y="1212.0"/>
      <point x="256.0" y="1222.0" type="curve" smooth="yes"/>
    </contour>
  </outline>
</glyph>
<glyph name="a" format="2">
  <advance width="1034.0"/>
  <unicode hex="0061"/>
  <outline>
    <contour>
      <point x="60.0" y="208.0" type="curve" smooth="yes"/>
      <point x="60.0" y="24.0"/>
      <point x="294.0" y="-6.0"/>
      <point x="412.0" y="-6.0" type="curve" smooth="yes"/>
      <point x="550.0" y="-6.0"/>
      <point x="654.0" y="58.0"/>
      <point x="704.0" y="162.0" type="curve"/>
      <point x="710.0" y="72.0"/>
      <point x="782.0" y="-8.0"/>
      <point x="896.0" y="-8.0" type="curve" smooth="yes"/>
      <point x="986.0" y="-8.0"/>
      <point x="1070.0" y="22.0"/>
      <point x="1070.0" y="188.0" type="curve" smooth="yes"/>
      <point x="1070.0" y="300.0" type="line"/>
      <point x="1034.0" y="300.0" type="line"/>
      <point x="1034.0" y="186.0" type="line" smooth="yes"/>
      <point x="1034.0" y="64.0"/>
      <point x="980.0" y="48.0"/>
      <point x="954.0" y="48.0" type="curve" smooth="yes"/>
      <point x="872.0" y="48.0"/>
      <point x="872.0" y="126.0"/>
      <point x="872.0" y="248.0" type="curve" smooth="yes"/>
      <point x="872.0" y="566.0" type="line" smooth="yes"/>
      <point x="872.0" y="714.0"/>
      <point x="828.0" y="790.0"/>
      <point x="724.0" y="849.0" type="curve" smooth="yes"/>
      <point x="656.0" y="881.0"/>
      <point x="569.0" y="894.0"/>
      <point x="466.0" y="894.0" type="curve" smooth="yes"/>
      <point x="358.0" y="894.0"/>
      <point x="138.0" y="856.0"/>
      <point x="138.0" y="680.0" type="curve" smooth="yes"/>
      <point x="138.0" y="578.0"/>
      <point x="228.0" y="570.0"/>
      <point x="242.0" y="570.0" type="curve" smooth="yes"/>
      <point x="274.0" y="570.0"/>
      <point x="348.0" y="588.0"/>
      <point x="348.0" y="676.0" type="curve" smooth="yes"/>
      <point x="348.0" y="774.0"/>
      <point x="262.0" y="762.0"/>
      <point x="310.0" y="750.0" type="curve"/>
      <point x="354.0" y="818.0"/>
      <point x="428.0" y="834.0"/>
      <point x="458.0" y="834.0" type="curve" smooth="yes"/>
      <point x="610.0" y="834.0"/>
      <point x="676.0" y="740.0"/>
      <point x="676.0" y="598.0" type="curve" smooth="yes"/>
      <point x="676.0" y="516.0" type="line"/>
      <point x="585.0" y="515.0"/>
      <point x="405.0" y="498.0"/>
      <point x="269.0" y="450.0" type="curve" smooth="yes"/>
      <point x="159.0" y="405.0"/>
      <point x="60.0" y="333.0"/>
    </contour>
    <contour>
      <point x="262.0" y="208.0" type="curve" smooth="yes"/>
      <point x="262.0" y="460.0"/>
      <point x="612.0" y="460.0"/>
      <point x="676.0" y="466.0" type="curve"/>
      <point x="676.0" y="276.0" type="line" smooth="yes"/>
      <point x="676.0" y="199.0"/>
      <point x="646.0" y="144.0"/>
      <point x="603.0" y="108.0" type="curve" smooth="yes"/>
      <point x="550.0" y="65.0"/>
      <point x="478.0" y="54.0"/>
      <point x="442.0" y="54.0" type="curve" smooth="yes"/>
      <point x="338.0" y="54.0"/>
      <point x="262.0" y="128.0"/>
    </contour>
  </outline>
</glyph>
<glyph name="b" format="2">
  <advance width="1186.0"/>
  <unicode hex="0062"/>
  <outline>
    <contour>
      <point x="198.0" y="0.0" type="line"/>
      <point x="278.0" y="0.0" type="line"/>
      <point x="306.0" y="43.0"/>
      <point x="334.0" y="87.0"/>
      <point x="362.0" y="130.0" type="curve"/>
      <point x="406.0" y="66.0"/>
      <point x="506.0" y="-6.0"/>
      <point x="652.0" y="-6.0" type="curve" smooth="yes"/>
      <point x="912.0" y="-6.0"/>
      <point x="1112.0" y="154.0"/>
      <point x="1112.0" y="446.0" type="curve" smooth="yes"/>
      <point x="1112.0" y="714.0"/>
      <point x="940.0" y="892.0"/>
      <point x="676.0" y="892.0" type="curve" smooth="yes"/>
      <point x="562.0" y="892.0"/>
      <point x="460.0" y="862.0"/>
      <point x="384.0" y="780.0" type="curve"/>
      <point x="384.0" y="1388.0" type="line"/>
      <point x="80.0" y="1372.0" type="line"/>
      <point x="80.0" y="1288.0" type="line"/>
      <point x="182.0" y="1288.0"/>
      <point x="198.0" y="1290.0"/>
      <point x="198.0" y="1214.0" type="curve" smooth="yes"/>
    </contour>
    <contour>
      <point x="632.0" y="54.0" type="curve" smooth="yes"/>
      <point x="520.0" y="54.0"/>
      <point x="424.0" y="138.0"/>
      <point x="388.0" y="210.0" type="curve" smooth="yes"/>
      <point x="394.0" y="206.0"/>
      <point x="394.0" y="204.0"/>
      <point x="394.0" y="204.0" type="curve" smooth="yes"/>
      <point x="394.0" y="690.0" type="line" smooth="yes"/>
      <point x="394.0" y="688.0"/>
      <point x="394.0" y="692.0"/>
      <point x="400.0" y="702.0" type="curve" smooth="yes"/>
      <point x="454.0" y="780.0"/>
      <point x="552.0" y="832.0"/>
      <point x="652.0" y="832.0" type="curve" smooth="yes"/>
      <point x="669.0" y="832.0"/>
      <point x="720.0" y="852.0"/>
      <point x="768.0" y="830.0" type="curve" smooth="yes"/>
      <point x="852.0" y="775.0"/>
      <point x="894.0" y="642.0"/>
      <point x="894.0" y="446.0" type="curve" smooth="yes"/>
      <point x="894.0" y="244.0"/>
      <point x="849.0" y="152.0"/>
      <point x="796.0" y="106.0" type="curve" smooth="yes"/>
      <point x="711.0" y="16.0"/>
      <point x="614.0" y="54.0"/>
    </contour>
  </outline>
</glyph>
<glyph name="c" format="2">
  <advance width="946.0"/>
  <unicode hex="0063"/>
  <outline>
    <contour>
      <point x="292.0" y="452.0" type="curve" smooth="yes"/>
      <point x="292.0" y="542.0"/>
      <point x="276.0" y="828.0"/>
      <point x="546.0" y="828.0" type="curve" smooth="yes"/>
      <point x="676.0" y="828.0"/>
      <point x="700.0" y="786.0"/>
      <point x="700.0" y="742.0" type="curve"/>
      <point x="708.0" y="716.0"/>
      <point x="660.0" y="734.0"/>
      <point x="660.0" y="672.0" type="curve" smooth="yes"/>
      <point x="660.0" y="580.0"/>
      <point x="740.0" y="566.0"/>
      <point x="764.0" y="566.0" type="curve" smooth="yes"/>
      <point x="788.0" y="566.0"/>
      <point x="870.0" y="580.0"/>
      <point x="870.0" y="674.0" type="curve" smooth="yes"/>
      <point x="870.0" y="852.0"/>
      <point x="654.0" y="894.0"/>
      <point x="538.0" y="894.0" type="curve" smooth="yes"/>
      <point x="218.0" y="894.0"/>
      <point x="74.0" y="684.0"/>
      <point x="74.0" y="444.0" type="curve" smooth="yes"/>
      <point x="74.0" y="168.0"/>
      <point x="252.0" y="-6.0"/>
      <point x="532.0" y="-6.0" type="curve" smooth="yes"/>
      <point x="836.0" y="-6.0"/>
      <point x="894.0" y="216.0"/>
      <point x="894.0" y="232.0" type="curve" smooth="yes"/>
      <point x="894.0" y="248.0"/>
      <point x="884.0" y="254.0"/>
      <point x="856.0" y="254.0" type="curve" smooth="yes"/>
      <point x="824.0" y="254.0"/>
      <point x="824.0" y="256.0"/>
      <point x="810.0" y="216.0" type="curve" smooth="yes"/>
      <point x="764.0" y="114.0"/>
      <point x="684.0" y="60.0"/>
      <point x="570.0" y="60.0" type="curve" smooth="yes"/>
      <point x="270.0" y="60.0"/>
      <point x="292.0" y="386.0"/>
    </contour>
  </outline>
</glyph>
<glyph name="d" format="2">
  <advance width="1186.0"/>
  <unicode hex="0064"/>
  <outline>
    <contour>
      <point x="792.0" y="106.0" type="curve"/>
      <point x="792.0" y="-6.0" type="line"/>
      <point x="1106.0" y="0.0" type="line"/>
      <point x="1106.0" y="84.0" type="line"/>
      <point x="1004.0" y="84.0"/>
      <point x="988.0" y="82.0"/>
      <point x="988.0" y="158.0" type="curve" smooth="yes"/>
      <point x="988.0" y="1388.0" type="line"/>
      <point x="684.0" y="1372.0" type="line"/>
      <point x="684.0" y="1288.0" type="line"/>
      <point x="786.0" y="1288.0"/>
      <point x="802.0" y="1290.0"/>
      <point x="802.0" y="1214.0" type="curve" smooth="yes"/>
      <point x="802.0" y="788.0" type="line"/>
      <point x="752.0" y="804.0"/>
      <point x="652.0" y="892.0"/>
      <point x="532.0" y="892.0" type="curve" smooth="yes"/>
      <point x="272.0" y="892.0"/>
      <point x="74.0" y="730.0"/>
      <point x="74.0" y="442.0" type="curve" smooth="yes"/>
      <point x="74.0" y="170.0"/>
      <point x="248.0" y="-6.0"/>
      <point x="512.0" y="-6.0" type="curve" smooth="yes"/>
      <point x="676.0" y="-6.0"/>
      <point x="770.0" y="106.0"/>
    </contour>
    <contour>
      <point x="292.0" y="442.0" type="curve" smooth="yes"/>
      <point x="292.0" y="643.0"/>
      <point x="337.0" y="734.0"/>
      <point x="388.0" y="780.0" type="curve" smooth="yes"/>
      <point x="473.0" y="871.0"/>
      <point x="572.0" y="832.0"/>
      <point x="554.0" y="832.0" type="curve" smooth="yes"/>
      <point x="690.0" y="832.0"/>
      <point x="760.0" y="746.0"/>
      <point x="788.0" y="706.0" type="curve" smooth="yes"/>
      <point x="792.0" y="698.0"/>
      <point x="792.0" y="696.0"/>
      <point x="792.0" y="696.0" type="curve" smooth="yes"/>
      <point x="792.0" y="210.0" type="line" smooth="yes"/>
      <point x="792.0" y="186.0"/>
      <point x="756.0" y="136.0"/>
      <point x="732.0" y="130.0" type="curve" smooth="yes"/>
      <point x="698.0" y="130.0"/>
      <point x="638.0" y="54.0"/>
      <point x="534.0" y="54.0" type="curve" smooth="yes"/>
      <point x="518.0" y="54.0"/>
      <point x="467.0" y="33.0"/>
      <point x="419.0" y="55.0" type="curve" smooth="yes"/>
      <point x="334.0" y="111.0"/>
      <point x="292.0" y="244.0"/>
    </contour>
  </outline>
</glyph>
<glyph name="e" format="2">
  <advance width="978.0"/>
  <unicode hex="0065"/>
  <outline>
    <contour>
      <point x="280.0" y="444.0" type="curve"/>
      <point x="906.0" y="444.0" type="line" smooth="yes"/>
      <point x="914.0" y="452.0"/>
      <point x="928.0" y="456.0"/>
      <point x="928.0" y="488.0" type="curve" smooth="yes"/>
      <point x="928.0" y="702.0"/>
      <point x="824.0" y="894.0"/>
      <point x="520.0" y="894.0" type="curve" smooth="yes"/>
      <point x="220.0" y="894.0"/>
      <point x="62.0" y="692.0"/>
      <point x="62.0" y="446.0" type="curve" smooth="yes"/>
      <point x="62.0" y="186.0"/>
      <point x="242.0" y="-6.0"/>
      <point x="546.0" y="-6.0" type="curve" smooth="yes"/>
      <point x="842.0" y="-6.0"/>
      <point x="926.0" y="196.0"/>
      <point x="926.0" y="234.0" type="curve" smooth="yes"/>
      <point x="926.0" y="264.0"/>
      <point x="892.0" y="260.0"/>
      <point x="888.0" y="260.0" type="curve" smooth="yes"/>
      <point x="858.0" y="260.0"/>
      <point x="858.0" y="258.0"/>
      <point x="840.0" y="218.0" type="curve"/>
      <point x="824.0" y="192.0"/>
      <point x="780.0" y="60.0"/>
      <point x="566.0" y="60.0" type="curve" smooth="yes"/>
      <point x="487.0" y="60.0"/>
      <point x="418.0" y="77.0"/>
      <point x="368.0" y="134.0" type="curve" smooth="yes"/>
      <point x="281.0" y="226.0"/>
      <point x="280.0" y="354.0"/>
    </contour>
    <contour>
      <point x="280.0" y="498.0" type="line"/>
      <point x="282.0" y="682.0"/>
      <point x="336.0" y="834.0"/>
      <point x="518.0" y="834.0" type="curve" smooth="yes"/>
      <point x="682.0" y="834.0"/>
      <point x="758.0" y="714.0"/>
      <point x="762.0" y="498.0" type="curve"/>
    </contour>
  </outline>
</glyph>
<glyph name="f" format="2">
  <advance width="642.0"/>
  <unicode hex="0066"/>
  <outline>
    <contour>
      <point x="214.0" y="80.0" type="line" smooth="yes"/>
      <point x="168.0" y="94.0"/>
      <point x="136.0" y="84.0"/>
      <point x="96.0" y="84.0" type="curve"/>
      <point x="96.0" y="84.0" type="line"/>
      <point x="96.0" y="0.0" type="line"/>
      <point x="136.0" y="4.0"/>
      <point x="224.0" y="4.0"/>
      <point x="312.0" y="4.0" type="curve" smooth="yes"/>
      <point x="366.0" y="4.0"/>
      <point x="502.0" y="4.0"/>
      <point x="548.0" y="0.0" type="curve"/>
      <point x="548.0" y="84.0" type="line"/>
      <point x="590.0" y="84.0" type="line" smooth="yes"/>
      <point x="536.0" y="84.0"/>
      <point x="458.0" y="62.0"/>
      <point x="400.0" y="80.0" type="curve" smooth="yes"/>
      <point x="400.0" y="802.0" type="line"/>
      <point x="630.0" y="802.0" type="line"/>
      <point x="630.0" y="886.0" type="line"/>
      <point x="390.0" y="886.0" type="line"/>
      <point x="390.0" y="1098.0" type="line" smooth="yes"/>
      <point x="390.0" y="1308.0"/>
      <point x="530.0" y="1334.0"/>
      <point x="578.0" y="1334.0" type="curve" smooth="yes"/>
      <point x="608.0" y="1334.0"/>
      <point x="618.0" y="1326.0"/>
      <point x="622.0" y="1322.0" type="curve"/>
      <point x="600.0" y="1304.0"/>
      <point x="578.0" y="1278.0"/>
      <point x="578.0" y="1240.0" type="curve" smooth="yes"/>
      <point x="578.0" y="1148.0"/>
      <point x="656.0" y="1134.0"/>
      <point x="682.0" y="1134.0" type="curve" smooth="yes"/>
      <point x="712.0" y="1134.0"/>
      <point x="786.0" y="1152.0"/>
      <point x="786.0" y="1238.0" type="curve" smooth="yes"/>
      <point x="786.0" y="1324.0"/>
      <point x="716.0" y="1394.0"/>
      <point x="586.0" y="1394.0" type="curve" smooth="yes"/>
      <point x="416.0" y="1394.0"/>
      <point x="214.0" y="1322.0"/>
      <point x="214.0" y="1096.0" type="curve" smooth="yes"/>
      <point x="214.0" y="886.0" type="line"/>
      <point x="62.0" y="886.0" type="line"/>
      <point x="62.0" y="802.0" type="line"/>
      <point x="214.0" y="802.0" type="line"/>
    </contour>
  </outline>
</glyph>
<glyph name="g" format="2">
  <advance width="1066.0"/>
  <unicode hex="0067"/>
  <outline>
    <contour>
      <point x="534.0" y="-398.0" type="curve" smooth="yes"/>
      <point x="872.0" y="-398.0"/>
      <point x="1018.0" y="-280.0"/>
      <point x="1018.0" y="-146.0" type="curve" smooth="yes"/>
      <point x="1018.0" y="-44.0"/>
      <point x="979.0" y="46.0"/>
      <point x="877.0" y="97.0" type="curve" smooth="yes"/>
      <point x="772.0" y="152.0"/>
      <point x="628.0" y="152.0"/>
      <point x="468.0" y="152.0" type="curve" smooth="yes"/>
      <point x="420.0" y="152.0"/>
      <point x="332.0" y="152.0"/>
      <point x="326.0" y="154.0" type="curve" smooth="yes"/>
      <point x="240.0" y="170.0"/>
      <point x="218.0" y="240.0"/>
      <point x="218.0" y="282.0" type="curve" smooth="yes"/>
      <point x="218.0" y="312.0"/>
      <point x="226.0" y="340.0"/>
      <point x="242.0" y="360.0" type="curve"/>
      <point x="294.0" y="338.0"/>
      <point x="380.0" y="306.0"/>
      <point x="472.0" y="306.0" type="curve" smooth="yes"/>
      <point x="732.0" y="306.0"/>
      <point x="840.0" y="448.0"/>
      <point x="840.0" y="600.0" type="curve" smooth="yes"/>
      <point x="840.0" y="672.0"/>
      <point x="806.0" y="744.0"/>
      <point x="766.0" y="792.0" type="curve"/>
      <point x="808.0" y="818.0"/>
      <point x="886.0" y="838.0"/>
      <point x="904.0" y="828.0" type="curve"/>
      <point x="914.0" y="824.0"/>
      <point x="902.0" y="820.0"/>
      <point x="902.0" y="800.0" type="curve" smooth="yes"/>
      <point x="902.0" y="758.0"/>
      <point x="928.0" y="728.0"/>
      <point x="974.0" y="728.0" type="curve" smooth="yes"/>
      <point x="1036.0" y="728.0"/>
      <point x="1048.0" y="772.0"/>
      <point x="1048.0" y="800.0" type="curve" smooth="yes"/>
      <point x="1048.0" y="850.0"/>
      <point x="1008.0" y="896.0"/>
      <point x="930.0" y="896.0" type="curve" smooth="yes"/>
      <point x="860.0" y="896.0"/>
      <point x="784.0" y="864.0"/>
      <point x="724.0" y="824.0" type="curve"/>
      <point x="712.0" y="836.0"/>
      <point x="640.0" y="892.0"/>
      <point x="472.0" y="892.0" type="curve" smooth="yes"/>
      <point x="212.0" y="892.0"/>
      <point x="104.0" y="750.0"/>
      <point x="104.0" y="598.0" type="curve" smooth="yes"/>
      <point x="104.0" y="490.0"/>
      <point x="166.0" y="412.0"/>
      <point x="200.0" y="388.0" type="curve"/>
      <point x="110.0" y="278.0"/>
      <point x="134.0" y="196.0"/>
      <point x="134.0" y="214.0" type="curve" smooth="yes"/>
      <point x="134.0" y="194.0"/>
      <point x="136.0" y="96.0"/>
      <point x="222.0" y="30.0" type="curve"/>
      <point x="212.0" y="32.0"/>
      <point x="48.0" y="-4.0"/>
      <point x="48.0" y="-150.0" type="curve" smooth="yes"/>
      <point x="48.0" y="-252.0"/>
      <point x="150.0" y="-398.0"/>
    </contour>
    <contour>
      <point x="472.0" y="366.0" type="curve" smooth="yes"/>
      <point x="294.0" y="366.0"/>
      <point x="294.0" y="516.0"/>
      <point x="294.0" y="600.0" type="curve" smooth="yes"/>
      <point x="294.0" y="632.0"/>
      <point x="292.0" y="761.0"/>
      <point x="372.0" y="824.0" type="curve" smooth="yes"/>
      <point x="407.0" y="853.0"/>
      <point x="438.0" y="832.0"/>
      <point x="472.0" y="832.0" type="curve" smooth="yes"/>
      <point x="650.0" y="832.0"/>
      <point x="650.0" y="682.0"/>
      <point x="650.0" y="598.0" type="curve" smooth="yes"/>
      <point x="650.0" y="567.0"/>
      <point x="652.0" y="439.0"/>
      <point x="574.0" y="376.0" type="curve" smooth="yes"/>
      <point x="539.0" y="346.0"/>
      <point x="508.0" y="366.0"/>
    </contour>
    <contour>
      <point x="532.0" y="-338.0" type="curve" smooth="yes"/>
      <point x="294.0" y="-338.0"/>
      <point x="196.0" y="-242.0"/>
      <point x="196.0" y="-146.0" type="curve" smooth="yes"/>
      <point x="196.0" y="-93.0"/>
      <point x="224.0" y="-51.0"/>
      <point x="254.0" y="-33.0" type="curve" smooth="yes"/>
      <point x="313.0" y="12.0"/>
      <point x="359.0" y="-8.0"/>
      <point x="470.0" y="-12.0" type="curve"/>
      <point x="586.0" y="-12.0" type="line" smooth="yes"/>
      <point x="640.0" y="-12.0"/>
      <point x="870.0" y="-12.0"/>
      <point x="870.0" y="-150.0" type="curve" smooth="yes"/>
      <point x="870.0" y="-224.0"/>
      <point x="796.0" y="-338.0"/>
    </contour>
  </outline>
</glyph>
<glyph name="h" format="2">
  <advance width="1186.0"/>
  <unicode hex="0068"/>
  <outline>
    <contour>
      <point x="210.0" y="80.0" type="line" smooth="yes"/>
      <point x="164.0" y="94.0"/>
      <point x="132.0" y="84.0"/>
      <point x="92.0" y="84.0" type="curve"/>
      <point x="92.0" y="84.0" type="line"/>
      <point x="92.0" y="0.0" type="line"/>
      <point x="126.0" y="4.0"/>
      <point x="232.0" y="4.0"/>
      <point x="306.0" y="4.0" type="curve" smooth="yes"/>
      <point x="384.0" y="4.0"/>
      <point x="488.0" y="4.0"/>
      <point x="524.0" y="0.0" type="curve"/>
      <point x="524.0" y="84.0" type="line"/>
      <point x="524.0" y="84.0" type="line"/>
      <point x="484.0" y="84.0"/>
      <point x="452.0" y="92.0"/>
      <point x="406.0" y="80.0" type="curve" smooth="yes"/>
      <point x="406.0" y="514.0" type="line" smooth="yes"/>
      <point x="406.0" y="708.0"/>
      <point x="548.0" y="832.0"/>
      <point x="686.0" y="832.0" type="curve" smooth="yes"/>
      <point x="776.0" y="832.0"/>
      <point x="812.0" y="766.0"/>
      <point x="812.0" y="632.0" type="curve" smooth="yes"/>
      <point x="812.0" y="80.0" type="line" smooth="yes"/>
      <point x="766.0" y="94.0"/>
      <point x="734.0" y="84.0"/>
      <point x="694.0" y="84.0" type="curve"/>
      <point x="694.0" y="84.0" type="line"/>
      <point x="694.0" y="0.0" type="line"/>
      <point x="728.0" y="4.0"/>
      <point x="834.0" y="4.0"/>
      <point x="908.0" y="4.0" type="curve" smooth="yes"/>
      <point x="986.0" y="4.0"/>
      <point x="1090.0" y="4.0"/>
      <point x="1126.0" y="0.0" type="curve"/>
      <point x="1126.0" y="84.0" type="line"/>
      <point x="1126.0" y="84.0" type="line"/>
      <point x="1056.0" y="84.0"/>
      <point x="1052.0" y="92.0"/>
      <point x="1008.0" y="110.0" type="curve" smooth="yes"/>
      <point x="1008.0" y="716.0" type="line" smooth="yes"/>
      <point x="1008.0" y="705.0"/>
      <point x="977.0" y="784.0"/>
      <point x="934.0" y="815.0" type="curve" smooth="yes"/>
      <point x="872.0" y="870.0"/>
      <point x="800.0" y="892.0"/>
      <point x="716.0" y="892.0" type="curve" smooth="yes"/>
      <point x="528.0" y="892.0"/>
      <point x="434.0" y="764.0"/>
      <point x="398.0" y="694.0" type="curve"/>
      <point x="396.0" y="694.0" type="line"/>
      <point x="396.0" y="1388.0" type="line"/>
      <point x="92.0" y="1372.0" type="line"/>
      <point x="92.0" y="1288.0" type="line"/>
      <point x="194.0" y="1288.0"/>
      <point x="210.0" y="1290.0"/>
      <point x="210.0" y="1214.0" type="curve" smooth="yes"/>
    </contour>
  </outline>
</glyph>
<glyph name="i" format="2">
  <advance width="582.0"/>
  <unicode hex="0069"/>
  <outline>
    <contour>
      <point x="214.0" y="80.0" type="line" smooth="yes"/>
      <point x="168.0" y="94.0"/>
      <point x="136.0" y="84.0"/>
      <point x="96.0" y="84.0" type="curve"/>
      <point x="96.0" y="84.0" type="line"/>
      <point x="96.0" y="0.0" type="line"/>
      <point x="142.0" y="4.0"/>
      <point x="218.0" y="4.0"/>
      <point x="304.0" y="4.0" type="curve" smooth="yes"/>
      <point x="342.0" y="4.0"/>
      <point x="456.0" y="4.0"/>
      <point x="506.0" y="0.0" type="curve"/>
      <point x="506.0" y="84.0" type="line"/>
      <point x="479.0" y="84.0"/>
      <point x="441.0" y="86.0"/>
      <point x="400.0" y="80.0" type="curve" smooth="yes"/>
      <point x="400.0" y="892.0" type="line"/>
      <point x="102.0" y="876.0" type="line"/>
      <point x="102.0" y="792.0" type="line"/>
      <point x="202.0" y="792.0"/>
      <point x="214.0" y="792.0"/>
      <point x="214.0" y="716.0" type="curve" smooth="yes"/>
    </contour>
    <contour>
      <point x="416.0" y="1234.0" type="curve" smooth="yes"/>
      <point x="416.0" y="1302.0"/>
      <point x="358.0" y="1366.0"/>
      <point x="284.0" y="1366.0" type="curve" smooth="yes"/>
      <point x="216.0" y="1366.0"/>
      <point x="152.0" y="1314.0"/>
      <point x="152.0" y="1234.0" type="curve" smooth="yes"/>
      <point x="152.0" y="1158.0"/>
      <point x="214.0" y="1102.0"/>
      <point x="284.0" y="1102.0" type="curve" smooth="yes"/>
      <point x="356.0" y="1102.0"/>
      <point x="416.0" y="1164.0"/>
    </contour>
  </outline>
</glyph>
<glyph name="k" format="2">
  <advance width="1126.0"/>
  <unicode hex="006B"/>
  <outline>
    <contour>
      <point x="634.0" y="558.0" type="line"/>
      <point x="872.0" y="750.0" type="line" smooth="yes"/>
      <point x="904.0" y="784.0"/>
      <point x="914.0" y="802.0"/>
      <point x="1056.0" y="802.0" type="curve"/>
      <point x="1056.0" y="886.0" type="line"/>
      <point x="1032.0" y="884.0"/>
      <point x="956.0" y="882.0"/>
      <point x="924.0" y="882.0" type="curve" smooth="yes"/>
      <point x="886.0" y="882.0"/>
      <point x="794.0" y="882.0"/>
      <point x="722.0" y="886.0" type="curve"/>
      <point x="722.0" y="802.0" type="line"/>
      <point x="758.0" y="802.0"/>
      <point x="764.0" y="802.0"/>
      <point x="780.0" y="784.0" type="curve" smooth="yes"/>
      <point x="780.0" y="784.0"/>
      <point x="768.0" y="770.0"/>
      <point x="782.0" y="784.0" type="curve" smooth="yes"/>
      <point x="384.0" y="454.0" type="line"/>
      <point x="384.0" y="1388.0" type="line"/>
      <point x="80.0" y="1372.0" type="line"/>
      <point x="80.0" y="1288.0" type="line"/>
      <point x="182.0" y="1288.0"/>
      <point x="198.0" y="1290.0"/>
      <point x="198.0" y="1214.0" type="curve" smooth="yes"/>
      <point x="198.0" y="80.0" type="line" smooth="yes"/>
      <point x="198.0" y="94.0"/>
      <point x="212.0" y="84.0"/>
      <point x="218.0" y="84.0" type="curve"/>
      <point x="80.0" y="84.0" type="line"/>
      <point x="80.0" y="0.0" type="line"/>
      <point x="136.0" y="4.0"/>
      <point x="224.0" y="4.0"/>
      <point x="288.0" y="4.0" type="curve" smooth="yes"/>
      <point x="352.0" y="4.0"/>
      <point x="456.0" y="2.0"/>
      <point x="496.0" y="0.0" type="curve"/>
      <point x="496.0" y="84.0" type="line"/>
      <point x="358.0" y="84.0" type="line"/>
      <point x="364.0" y="84.0"/>
      <point x="378.0" y="92.0"/>
      <point x="378.0" y="80.0" type="curve" smooth="yes"/>
      <point x="378.0" y="348.0" type="line"/>
      <point x="419.0" y="382.0"/>
      <point x="461.0" y="416.0"/>
      <point x="502.0" y="450.0" type="curve"/>
      <point x="906.0" y="-102.0" type="line"/>
      <point x="794.0" y="50.0"/>
      <point x="762.0" y="94.0"/>
      <point x="762.0" y="98.0" type="curve" smooth="yes"/>
      <point x="762.0" y="82.0"/>
      <point x="724.0" y="84.0"/>
      <point x="712.0" y="84.0" type="curve"/>
      <point x="712.0" y="0.0" type="line"/>
      <point x="764.0" y="6.0"/>
      <point x="906.0" y="4.0"/>
      <point x="924.0" y="4.0" type="curve" smooth="yes"/>
      <point x="974.0" y="4.0"/>
      <point x="1058.0" y="2.0"/>
      <point x="1102.0" y="0.0" type="curve"/>
      <point x="1102.0" y="84.0" type="line"/>
      <point x="962.0" y="84.0"/>
      <point x="980.0" y="106.0"/>
      <point x="968.0" y="124.0" type="curve" smooth="yes"/>
    </contour>
  </outline>
</glyph>
<glyph name="l" format="2">
  <advance width="582.0"/>
  <unicode hex="006C"/>
  <outline>
    <contour>
      <point x="400.0" y="1388.0" type="line"/>
      <point x="96.0" y="1372.0" type="line"/>
      <point x="96.0" y="1288.0" type="line"/>
      <point x="198.0" y="1288.0"/>
      <point x="214.0" y="1290.0"/>
      <point x="214.0" y="1214.0" type="curve" smooth="yes"/>
      <point x="214.0" y="80.0" type="line" smooth="yes"/>
      <point x="168.0" y="94.0"/>
      <point x="136.0" y="84.0"/>
      <point x="96.0" y="84.0" type="curve"/>
      <point x="96.0" y="84.0" type="line"/>
      <point x="96.0" y="0.0" type="line"/>
      <point x="142.0" y="4.0"/>
      <point x="220.0" y="4.0"/>
      <point x="306.0" y="4.0" type="curve" smooth="yes"/>
      <point x="394.0" y="4.0"/>
      <point x="476.0" y="4.0"/>
      <point x="518.0" y="0.0" type="curve"/>
      <point x="518.0" y="84.0" type="line"/>
      <point x="518.0" y="84.0" type="line"/>
      <point x="478.0" y="84.0"/>
      <point x="446.0" y="92.0"/>
      <point x="400.0" y="80.0" type="curve" smooth="yes"/>
    </contour>
  </outline>
</glyph>
<glyph name="m" format="2">
  <advance width="1794.0"/>
  <unicode hex="006D"/>
  <outline>
    <contour>
      <point x="210.0" y="80.0" type="line" smooth="yes"/>
      <point x="164.0" y="94.0"/>
      <point x="132.0" y="84.0"/>
      <point x="92.0" y="84.0" type="curve"/>
      <point x="92.0" y="84.0" type="line"/>
      <point x="92.0" y="0.0" type="line"/>
      <point x="126.0" y="4.0"/>
      <point x="232.0" y="4.0"/>
      <point x="306.0" y="4.0" type="curve" smooth="yes"/>
      <point x="384.0" y="4.0"/>
      <point x="488.0" y="4.0"/>
      <point x="524.0" y="0.0" type="curve"/>
      <point x="524.0" y="84.0" type="line"/>
      <point x="524.0" y="84.0" type="line"/>
      <point x="484.0" y="84.0"/>
      <point x="452.0" y="92.0"/>
      <point x="406.0" y="80.0" type="curve" smooth="yes"/>
      <point x="406.0" y="514.0" type="line" smooth="yes"/>
      <point x="406.0" y="708.0"/>
      <point x="550.0" y="832.0"/>
      <point x="686.0" y="832.0" type="curve" smooth="yes"/>
      <point x="776.0" y="832.0"/>
      <point x="814.0" y="768.0"/>
      <point x="814.0" y="632.0" type="curve" smooth="yes"/>
      <point x="814.0" y="80.0" type="line" smooth="yes"/>
      <point x="768.0" y="94.0"/>
      <point x="736.0" y="84.0"/>
      <point x="696.0" y="84.0" type="curve"/>
      <point x="696.0" y="84.0" type="line"/>
      <point x="696.0" y="0.0" type="line"/>
      <point x="730.0" y="4.0"/>
      <point x="836.0" y="4.0"/>
      <point x="910.0" y="4.0" type="curve" smooth="yes"/>
      <point x="988.0" y="4.0"/>
      <point x="1092.0" y="4.0"/>
      <point x="1128.0" y="0.0" type="curve"/>
      <point x="1128.0" y="84.0" type="line"/>
      <point x="1128.0" y="84.0" type="line"/>
      <point x="1088.0" y="84.0"/>
      <point x="1056.0" y="92.0"/>
      <point x="1010.0" y="80.0" type="curve" smooth="yes"/>
      <point x="1010.0" y="514.0" type="line" smooth="yes"/>
      <point x="1010.0" y="708.0"/>
      <point x="1154.0" y="832.0"/>
      <point x="1290.0" y="832.0" type="curve" smooth="yes"/>
      <point x="1380.0" y="832.0"/>
      <point x="1418.0" y="768.0"/>
      <point x="1418.0" y="632.0" type="curve" smooth="yes"/>
      <point x="1418.0" y="80.0" type="line" smooth="yes"/>
      <point x="1372.0" y="94.0"/>
      <point x="1340.0" y="84.0"/>
      <point x="1300.0" y="84.0" type="curve"/>
      <point x="1300.0" y="84.0" type="line"/>
      <point x="1300.0" y="0.0" type="line"/>
      <point x="1334.0" y="4.0"/>
      <point x="1440.0" y="4.0"/>
      <point x="1514.0" y="4.0" type="curve" smooth="yes"/>
      <point x="1592.0" y="4.0"/>
      <point x="1696.0" y="4.0"/>
      <point x="1732.0" y="0.0" type="curve"/>
      <point x="1732.0" y="84.0" type="line"/>
      <point x="1732.0" y="84.0" type="line"/>
      <point x="1662.0" y="84.0"/>
      <point x="1658.0" y="92.0"/>
      <point x="1614.0" y="110.0" type="curve" smooth="yes"/>
      <point x="1614.0" y="716.0" type="line" smooth="yes"/>
      <point x="1614.0" y="702.0"/>
      <point x="1586.0" y="794.0"/>
      <point x="1544.0" y="826.0" type="curve" smooth="yes"/>
      <point x="1482.0" y="884.0"/>
      <point x="1408.0" y="892.0"/>
      <point x="1322.0" y="892.0" type="curve" smooth="yes"/>
      <point x="1172.0" y="892.0"/>
      <point x="1060.0" y="820.0"/>
      <point x="1006.0" y="696.0" type="curve"/>
      <point x="970.0" y="872.0"/>
      <point x="816.0" y="892.0"/>
      <point x="718.0" y="892.0" type="curve" smooth="yes"/>
      <point x="532.0" y="892.0"/>
      <point x="430.0" y="766.0"/>
      <point x="392.0" y="684.0" type="curve"/>
      <point x="390.0" y="684.0" type="line"/>
      <point x="390.0" y="892.0" type="line"/>
      <point x="92.0" y="876.0" type="line"/>
      <point x="92.0" y="792.0" type="line"/>
      <point x="194.0" y="792.0"/>
      <point x="210.0" y="794.0"/>
      <point x="210.0" y="718.0" type="curve" smooth="yes"/>
    </contour>
  </outline>
</glyph>
<glyph name="n" format="2">
  <advance width="1186.0"/>
  <unicode hex="006E"/>
  <outline>
    <contour>
      <point x="210.0" y="80.0" type="line" smooth="yes"/>
      <point x="164.0" y="94.0"/>
      <point x="132.0" y="84.0"/>
      <point x="92.0" y="84.0" type="curve"/>
      <point x="92.0" y="84.0" type="line"/>
      <point x="92.0" y="0.0" type="line"/>
      <point x="126.0" y="4.0"/>
      <point x="232.0" y="4.0"/>
      <point x="306.0" y="4.0" type="curve" smooth="yes"/>
      <point x="384.0" y="4.0"/>
      <point x="488.0" y="4.0"/>
      <point x="524.0" y="0.0" type="curve"/>
      <point x="524.0" y="84.0" type="line"/>
      <point x="524.0" y="84.0" type="line"/>
      <point x="484.0" y="84.0"/>
      <point x="452.0" y="92.0"/>
      <point x="406.0" y="80.0" type="curve" smooth="yes"/>
      <point x="406.0" y="514.0" type="line" smooth="yes"/>
      <point x="406.0" y="708.0"/>
      <point x="548.0" y="832.0"/>
      <point x="686.0" y="832.0" type="curve" smooth="yes"/>
      <point x="776.0" y="832.0"/>
      <point x="812.0" y="766.0"/>
      <point x="812.0" y="632.0" type="curve" smooth="yes"/>
      <point x="812.0" y="80.0" type="line" smooth="yes"/>
      <point x="766.0" y="94.0"/>
      <point x="734.0" y="84.0"/>
      <point x="694.0" y="84.0" type="curve"/>
      <point x="694.0" y="84.0" type="line"/>
      <point x="694.0" y="0.0" type="line"/>
      <point x="728.0" y="4.0"/>
      <point x="834.0" y="4.0"/>
      <point x="908.0" y="4.0" type="curve" smooth="yes"/>
      <point x="986.0" y="4.0"/>
      <point x="1090.0" y="4.0"/>
      <point x="1126.0" y="0.0" type="curve"/>
      <point x="1126.0" y="84.0" type="line"/>
      <point x="1126.0" y="84.0" type="line"/>
      <point x="1056.0" y="84.0"/>
      <point x="1052.0" y="92.0"/>
      <point x="1008.0" y="110.0" type="curve" smooth="yes"/>
      <point x="1008.0" y="716.0" type="line" smooth="yes"/>
      <point x="1008.0" y="704.0"/>
      <point x="976.0" y="796.0"/>
      <point x="936.0" y="828.0" type="curve" smooth="yes"/>
      <point x="874.0" y="884.0"/>
      <point x="800.0" y="892.0"/>
      <point x="716.0" y="892.0" type="curve" smooth="yes"/>
      <point x="512.0" y="892.0"/>
      <point x="418.0" y="742.0"/>
      <point x="392.0" y="684.0" type="curve"/>
      <point x="390.0" y="684.0" type="line"/>
      <point x="390.0" y="892.0" type="line"/>
      <point x="92.0" y="876.0" type="line"/>
      <point x="92.0" y="792.0" type="line"/>
      <point x="194.0" y="792.0"/>
      <point x="210.0" y="794.0"/>
      <point x="210.0" y="718.0" type="curve" smooth="yes"/>
    </contour>
  </outline>
</glyph>
<glyph name="o" format="2">
  <advance width="1066.0"/>
  <unicode hex="006F"/>
  <outline>
    <contour>
      <point x="1004.0" y="436.0" type="curve" smooth="yes"/>
      <point x="1004.0" y="704.0"/>
      <point x="834.0" y="894.0"/>
      <point x="532.0" y="894.0" type="curve" smooth="yes"/>
      <point x="236.0" y="894.0"/>
      <point x="62.0" y="708.0"/>
      <point x="62.0" y="436.0" type="curve" smooth="yes"/>
      <point x="62.0" y="194.0"/>
      <point x="216.0" y="-6.0"/>
      <point x="534.0" y="-6.0" type="curve" smooth="yes"/>
      <point x="846.0" y="-6.0"/>
      <point x="1004.0" y="192.0"/>
    </contour>
    <contour>
      <point x="532.0" y="60.0" type="curve" smooth="yes"/>
      <point x="440.0" y="60.0"/>
      <point x="392.0" y="98.0"/>
      <point x="362.0" y="122.0" type="curve" smooth="yes"/>
      <point x="286.0" y="200.0"/>
      <point x="280.0" y="326.0"/>
      <point x="280.0" y="458.0" type="curve" smooth="yes"/>
      <point x="280.0" y="554.0"/>
      <point x="284.0" y="652.0"/>
      <point x="322.0" y="722.0" type="curve" smooth="yes"/>
      <point x="346.0" y="770.0"/>
      <point x="414.0" y="834.0"/>
      <point x="534.0" y="834.0" type="curve" smooth="yes"/>
      <point x="620.0" y="834.0"/>
      <point x="694.0" y="796.0"/>
      <point x="734.0" y="742.0" type="curve" smooth="yes"/>
      <point x="786.0" y="666.0"/>
      <point x="786.0" y="540.0"/>
      <point x="786.0" y="458.0" type="curve" smooth="yes"/>
      <point x="786.0" y="336.0"/>
      <point x="782.0" y="188.0"/>
      <point x="696.0" y="104.0" type="curve" smooth="yes"/>
      <point x="646.0" y="64.0"/>
      <point x="592.0" y="60.0"/>
    </contour>
  </outline>
</glyph>
<glyph name="p" format="2">
  <advance width="1186.0"/>
  <unicode hex="0070"/>
  <outline>
    <contour>
      <point x="80.0" y="792.0" type="line"/>
      <point x="80.0" y="792.0" type="line"/>
      <point x="180.0" y="792.0"/>
      <point x="198.0" y="792.0"/>
      <point x="198.0" y="708.0" type="curve" smooth="yes"/>
      <point x="198.0" y="-310.0" type="line" smooth="yes"/>
      <point x="152.0" y="-296.0"/>
      <point x="120.0" y="-306.0"/>
      <point x="80.0" y="-306.0" type="curve"/>
      <point x="80.0" y="-306.0" type="line"/>
      <point x="80.0" y="-390.0" type="line"/>
      <point x="116.0" y="-386.0"/>
      <point x="220.0" y="-386.0"/>
      <point x="296.0" y="-386.0" type="curve" smooth="yes"/>
      <point x="372.0" y="-386.0"/>
      <point x="478.0" y="-386.0"/>
      <point x="512.0" y="-390.0" type="curve"/>
      <point x="512.0" y="-306.0" type="line"/>
      <point x="472.0" y="-306.0"/>
      <point x="440.0" y="-298.0"/>
      <point x="394.0" y="-310.0" type="curve" smooth="yes"/>
      <point x="394.0" y="82.0" type="line"/>
      <point x="528.0" y="-40.0"/>
      <point x="616.0" y="-6.0"/>
      <point x="652.0" y="-6.0" type="curve" smooth="yes"/>
      <point x="914.0" y="-6.0"/>
      <point x="1112.0" y="154.0"/>
      <point x="1112.0" y="446.0" type="curve" smooth="yes"/>
      <point x="1112.0" y="710.0"/>
      <point x="950.0" y="892.0"/>
      <point x="680.0" y="892.0" type="curve" smooth="yes"/>
      <point x="566.0" y="892.0"/>
      <point x="446.0" y="852.0"/>
      <point x="384.0" y="780.0" type="curve"/>
      <point x="384.0" y="892.0" type="line"/>
      <point x="80.0" y="876.0" type="line"/>
    </contour>
    <contour>
      <point x="894.0" y="444.0" type="curve" smooth="yes"/>
      <point x="894.0" y="176.0"/>
      <point x="766.0" y="54.0"/>
      <point x="626.0" y="54.0" type="curve" smooth="yes"/>
      <point x="606.0" y="54.0"/>
      <point x="510.0" y="48.0"/>
      <point x="414.0" y="168.0" type="curve" smooth="yes"/>
      <point x="394.0" y="196.0"/>
      <point x="396.0" y="208.0"/>
      <point x="394.0" y="238.0" type="curve" smooth="yes"/>
      <point x="394.0" y="612.0" type="line"/>
      <point x="394.0" y="678.0"/>
      <point x="396.0" y="722.0"/>
      <point x="502.0" y="824.0" type="curve"/>
      <point x="534.0" y="812.0"/>
      <point x="608.0" y="826.0"/>
      <point x="650.0" y="826.0" type="curve" smooth="yes"/>
      <point x="784.0" y="826.0"/>
      <point x="894.0" y="698.0"/>
    </contour>
  </outline>
</glyph>
<glyph name="q" format="2">
  <advance width="1126.0"/>
  <unicode hex="0071"/>
  <outline>
    <contour>
      <point x="74.0" y="444.0" type="curve" smooth="yes"/>
      <point x="74.0" y="150.0"/>
      <point x="266.0" y="-6.0"/>
      <point x="512.0" y="-6.0" type="curve" smooth="yes"/>
      <point x="624.0" y="-6.0"/>
      <point x="718.0" y="54.0"/>
      <point x="792.0" y="120.0" type="curve"/>
      <point x="792.0" y="-310.0" type="line" smooth="yes"/>
      <point x="746.0" y="-296.0"/>
      <point x="714.0" y="-306.0"/>
      <point x="674.0" y="-306.0" type="curve"/>
      <point x="674.0" y="-306.0" type="line"/>
      <point x="674.0" y="-390.0" type="line"/>
      <point x="710.0" y="-386.0"/>
      <point x="814.0" y="-386.0"/>
      <point x="890.0" y="-386.0" type="curve" smooth="yes"/>
      <point x="966.0" y="-386.0"/>
      <point x="1072.0" y="-386.0"/>
      <point x="1106.0" y="-390.0" type="curve"/>
      <point x="1106.0" y="-306.0" type="line"/>
      <point x="1106.0" y="-306.0" type="line"/>
      <point x="1066.0" y="-306.0"/>
      <point x="1034.0" y="-298.0"/>
      <point x="988.0" y="-310.0" type="curve" smooth="yes"/>
      <point x="988.0" y="892.0" type="line"/>
      <point x="918.0" y="892.0" type="line"/>
      <point x="828.0" y="718.0" type="line"/>
      <point x="738.0" y="866.0"/>
      <point x="624.0" y="892.0"/>
      <point x="530.0" y="892.0" type="curve" smooth="yes"/>
      <point x="266.0" y="892.0"/>
      <point x="74.0" y="726.0"/>
    </contour>
    <contour>
      <point x="292.0" y="440.0" type="curve" smooth="yes"/>
      <point x="292.0" y="720.0"/>
      <point x="432.0" y="826.0"/>
      <point x="558.0" y="826.0" type="curve" smooth="yes"/>
      <point x="710.0" y="826.0"/>
      <point x="802.0" y="660.0"/>
      <point x="802.0" y="562.0" type="curve" smooth="yes"/>
      <point x="802.0" y="286.0" type="line" smooth="yes"/>
      <point x="802.0" y="228.0"/>
      <point x="766.0" y="198.0"/>
      <point x="774.0" y="198.0" type="curve" smooth="yes"/>
      <point x="658.0" y="38.0"/>
      <point x="548.0" y="54.0"/>
      <point x="534.0" y="54.0" type="curve" smooth="yes"/>
      <point x="406.0" y="54.0"/>
      <point x="292.0" y="182.0"/>
    </contour>
  </outline>
</glyph>
<glyph name="r" format="2">
  <advance width="872.0"/>
  <unicode hex="0072"/>
  <outline>
    <contour>
      <point x="198.0" y="80.0" type="line" smooth="yes"/>
      <point x="198.0" y="94.0"/>
      <point x="212.0" y="84.0"/>
      <point x="218.0" y="84.0" type="curve"/>
      <point x="80.0" y="84.0" type="line"/>
      <point x="80.0" y="0.0" type="line"/>
      <point x="120.0" y="4.0"/>
      <point x="208.0" y="4.0"/>
      <point x="296.0" y="4.0" type="curve" smooth="yes"/>
      <point x="350.0" y="4.0"/>
      <point x="486.0" y="4.0"/>
      <point x="532.0" y="0.0" type="curve"/>
      <point x="532.0" y="84.0" type="line"/>
      <point x="400.0" y="84.0" type="line" smooth="yes"/>
      <point x="404.0" y="84.0"/>
      <point x="384.0" y="62.0"/>
      <point x="384.0" y="80.0" type="curve" smooth="yes"/>
      <point x="384.0" y="452.0" type="line" smooth="yes"/>
      <point x="384.0" y="586.0"/>
      <point x="432.0" y="832.0"/>
      <point x="630.0" y="832.0" type="curve" smooth="yes"/>
      <point x="630.0" y="832.0"/>
      <point x="640.0" y="830.0"/>
      <point x="650.0" y="826.0" type="curve"/>
      <point x="626.0" y="814.0"/>
      <point x="614.0" y="784.0"/>
      <point x="614.0" y="746.0" type="curve" smooth="yes"/>
      <point x="614.0" y="672.0"/>
      <point x="674.0" y="642.0"/>
      <point x="718.0" y="642.0" type="curve" smooth="yes"/>
      <point x="764.0" y="642.0"/>
      <point x="822.0" y="674.0"/>
      <point x="822.0" y="746.0" type="curve" smooth="yes"/>
      <point x="822.0" y="852.0"/>
      <point x="712.0" y="892.0"/>
      <point x="626.0" y="892.0" type="curve" smooth="yes"/>
      <point x="480.0" y="892.0"/>
      <point x="406.0" y="778.0"/>
      <point x="368.0" y="668.0" type="curve"/>
      <point x="366.0" y="668.0" type="line"/>
      <point x="366.0" y="892.0" type="line"/>
      <point x="80.0" y="876.0" type="line"/>
      <point x="80.0" y="792.0" type="line"/>
      <point x="182.0" y="792.0"/>
      <point x="198.0" y="794.0"/>
      <point x="198.0" y="718.0" type="curve" smooth="yes"/>
    </contour>
  </outline>
</glyph>
<glyph name="s" format="2">
  <advance width="836.0"/>
  <unicode hex="0073"/>
  <outline>
    <contour>
      <point x="776.0" y="272.0" type="curve" smooth="yes"/>
      <point x="776.0" y="354.0"/>
      <point x="742.0" y="418.0"/>
      <point x="670.0" y="474.0" type="curve" smooth="yes"/>
      <point x="598.0" y="530.0"/>
      <point x="542.0" y="540.0"/>
      <point x="386.0" y="566.0" type="curve" smooth="yes"/>
      <point x="314.0" y="582.0"/>
      <point x="178.0" y="606.0"/>
      <point x="178.0" y="706.0" type="curve" smooth="yes"/>
      <point x="178.0" y="812.0"/>
      <point x="340.0" y="840.0"/>
      <point x="408.0" y="840.0" type="curve" smooth="yes"/>
      <point x="552.0" y="840.0"/>
      <point x="630.0" y="762.0"/>
      <point x="640.0" y="650.0" type="curve" smooth="yes"/>
      <point x="642.0" y="628.0"/>
      <point x="636.0" y="616.0"/>
      <point x="680.0" y="616.0" type="curve" smooth="yes"/>
      <point x="720.0" y="616.0"/>
      <point x="720.0" y="622.0"/>
      <point x="720.0" y="664.0" type="curve" smooth="yes"/>
      <point x="720.0" y="846.0" type="line" smooth="yes"/>
      <point x="720.0" y="886.0"/>
      <point x="718.0" y="892.0"/>
      <point x="692.0" y="892.0" type="curve" smooth="yes"/>
      <point x="686.0" y="892.0"/>
      <point x="684.0" y="890.0"/>
      <point x="608.0" y="846.0" type="curve"/>
      <point x="608.0" y="846.0"/>
      <point x="610.0" y="844.0"/>
      <point x="612.0" y="842.0" type="curve"/>
      <point x="572.0" y="880.0"/>
      <point x="494.0" y="894.0"/>
      <point x="410.0" y="894.0" type="curve" smooth="yes"/>
      <point x="372.0" y="894.0"/>
      <point x="60.0" y="912.0"/>
      <point x="60.0" y="646.0" type="curve" smooth="yes"/>
      <point x="60.0" y="574.0"/>
      <point x="92.0" y="530.0"/>
      <point x="112.0" y="506.0" type="curve" smooth="yes"/>
      <point x="192.0" y="424.0"/>
      <point x="314.0" y="404.0"/>
      <point x="362.0" y="396.0" type="curve" smooth="yes"/>
      <point x="510.0" y="367.0"/>
      <point x="561.0" y="359.0"/>
      <point x="599.0" y="326.0" type="curve" smooth="yes"/>
      <point x="620.0" y="308.0"/>
      <point x="658.0" y="273.0"/>
      <point x="658.0" y="214.0" type="curve" smooth="yes"/>
      <point x="658.0" y="82.0"/>
      <point x="496.0" y="54.0"/>
      <point x="424.0" y="54.0" type="curve" smooth="yes"/>
      <point x="206.0" y="54.0"/>
      <point x="166.0" y="218.0"/>
      <point x="142.0" y="310.0" type="curve" smooth="yes"/>
      <point x="134.0" y="340.0"/>
      <point x="124.0" y="334.0"/>
      <point x="100.0" y="334.0" type="curve" smooth="yes"/>
      <point x="62.0" y="334.0"/>
      <point x="60.0" y="334.0"/>
      <point x="60.0" y="284.0" type="curve" smooth="yes"/>
      <point x="60.0" y="42.0" type="line" smooth="yes"/>
      <point x="60.0" y="2.0"/>
      <point x="62.0" y="-4.0"/>
      <point x="88.0" y="-4.0" type="curve" smooth="yes"/>
      <point x="102.0" y="-4.0"/>
      <point x="98.0" y="-6.0"/>
      <point x="104.0" y="-14.0" type="curve" smooth="yes"/>
      <point x="116.0" y="6.0"/>
      <point x="170.0" y="54.0"/>
      <point x="186.0" y="78.0" type="curve"/>
      <point x="230.0" y="44.0"/>
      <point x="314.0" y="-6.0"/>
      <point x="424.0" y="-6.0" type="curve" smooth="yes"/>
      <point x="454.0" y="-6.0"/>
      <point x="776.0" y="-32.0"/>
    </contour>
  </outline>
</glyph>
<glyph name="t" format="2">
  <advance width="826.0"/>
  <unicode hex="0074"/>
  <outline>
    <contour>
      <point x="390.0" y="802.0" type="line"/>
      <point x="676.0" y="802.0" type="line"/>
      <point x="676.0" y="886.0" type="line"/>
      <point x="390.0" y="886.0" type="line"/>
      <point x="390.0" y="1270.0" type="line"/>
      <point x="310.0" y="1270.0" type="line"/>
      <point x="306.0" y="1028.0"/>
      <point x="198.0" y="864.0"/>
      <point x="26.0" y="862.0" type="curve"/>
      <point x="26.0" y="802.0" type="line"/>
      <point x="194.0" y="802.0" type="line"/>
      <point x="194.0" y="244.0" type="line" smooth="yes"/>
      <point x="194.0" y="238.0"/>
      <point x="182.0" y="-6.0"/>
      <point x="484.0" y="-6.0" type="curve" smooth="yes"/>
      <point x="612.0" y="-6.0"/>
      <point x="714.0" y="82.0"/>
      <point x="714.0" y="248.0" type="curve" smooth="yes"/>
      <point x="714.0" y="354.0" type="line"/>
      <point x="634.0" y="354.0" type="line"/>
      <point x="634.0" y="250.0" type="line" smooth="yes"/>
      <point x="634.0" y="124.0"/>
      <point x="576.0" y="60.0"/>
      <point x="510.0" y="60.0" type="curve" smooth="yes"/>
      <point x="470.0" y="60.0"/>
      <point x="390.0" y="46.0"/>
      <point x="390.0" y="240.0" type="curve" smooth="yes"/>
    </contour>
  </outline>
</glyph>
<glyph name="u" format="2">
  <advance width="1186.0"/>
  <unicode hex="0075"/>
  <outline>
    <contour>
      <point x="210.0" y="818.0" type="curve" smooth="yes"/>
      <point x="210.0" y="268.0" type="line" smooth="yes"/>
      <point x="210.0" y="147.0"/>
      <point x="233.0" y="109.0"/>
      <point x="258.0" y="81.0" type="curve" smooth="yes"/>
      <point x="305.0" y="35.0"/>
      <point x="391.0" y="-6.0"/>
      <point x="538.0" y="-6.0" type="curve" smooth="yes"/>
      <point x="648.0" y="-6.0"/>
      <point x="770.0" y="82.0"/>
      <point x="820.0" y="156.0" type="curve"/>
      <point x="822.0" y="156.0" type="line"/>
      <point x="822.0" y="-6.0" type="line"/>
      <point x="1126.0" y="0.0" type="line"/>
      <point x="1126.0" y="84.0" type="line"/>
      <point x="1024.0" y="84.0"/>
      <point x="1008.0" y="82.0"/>
      <point x="1008.0" y="158.0" type="curve" smooth="yes"/>
      <point x="1008.0" y="892.0" type="line"/>
      <point x="694.0" y="876.0" type="line"/>
      <point x="694.0" y="792.0" type="line"/>
      <point x="796.0" y="792.0"/>
      <point x="812.0" y="794.0"/>
      <point x="812.0" y="718.0" type="curve" smooth="yes"/>
      <point x="812.0" y="328.0" type="line" smooth="yes"/>
      <point x="812.0" y="170.0"/>
      <point x="716.0" y="54.0"/>
      <point x="568.0" y="54.0" type="curve" smooth="yes"/>
      <point x="418.0" y="54.0"/>
      <point x="406.0" y="108.0"/>
      <point x="406.0" y="216.0" type="curve" smooth="yes"/>
      <point x="406.0" y="892.0" type="line"/>
      <point x="92.0" y="876.0" type="line"/>
      <point x="92.0" y="792.0" type="line"/>
      <point x="140.0" y="792.0"/>
      <point x="208.0" y="798.0"/>
    </contour>
  </outline>
</glyph>
<glyph name="v" format="2">
  <advance width="1126.0"/>
  <unicode hex="0076"/>
  <outline>
    <contour>
      <point x="562.0" y="-2.0" type="curve" smooth="yes"/>
      <point x="588.0" y="-2.0"/>
      <point x="602.0" y="-10.0"/>
      <point x="626.0" y="42.0" type="curve" smooth="yes"/>
      <point x="739.0" y="283.0"/>
      <point x="850.0" y="524.0"/>
      <point x="962.0" y="766.0" type="curve" smooth="yes"/>
      <point x="974.0" y="792.0"/>
      <point x="980.0" y="800.0"/>
      <point x="1092.0" y="802.0" type="curve"/>
      <point x="1092.0" y="829.0"/>
      <point x="1092.0" y="859.0"/>
      <point x="1092.0" y="886.0" type="curve"/>
      <point x="1050.0" y="884.0"/>
      <point x="1000.0" y="882.0"/>
      <point x="958.0" y="882.0" type="curve" smooth="yes"/>
      <point x="914.0" y="882.0"/>
      <point x="850.0" y="882.0"/>
      <point x="802.0" y="886.0" type="curve"/>
      <point x="802.0" y="859.0"/>
      <point x="802.0" y="829.0"/>
      <point x="802.0" y="802.0" type="curve"/>
      <point x="816.0" y="800.0"/>
      <point x="880.0" y="816.0"/>
      <point x="880.0" y="786.0" type="curve" smooth="yes"/>
      <point x="880.0" y="784.0"/>
      <point x="882.0" y="784.0"/>
      <point x="870.0" y="760.0" type="curve" smooth="yes"/>
      <point x="788.0" y="579.0"/>
      <point x="704.0" y="397.0"/>
      <point x="622.0" y="214.0" type="curve"/>
      <point x="533.0" y="410.0"/>
      <point x="443.0" y="606.0"/>
      <point x="354.0" y="802.0" type="curve"/>
      <point x="354.0" y="802.0"/>
      <point x="354.0" y="802.0"/>
      <point x="354.0" y="806.0" type="curve" smooth="yes"/>
      <point x="390.0" y="802.0"/>
      <point x="414.0" y="802.0"/>
      <point x="444.0" y="802.0" type="curve"/>
      <point x="444.0" y="829.0"/>
      <point x="444.0" y="859.0"/>
      <point x="444.0" y="886.0" type="curve"/>
      <point x="390.0" y="880.0"/>
      <point x="234.0" y="882.0"/>
      <point x="228.0" y="882.0" type="curve" smooth="yes"/>
      <point x="172.0" y="882.0"/>
      <point x="100.0" y="884.0"/>
      <point x="34.0" y="886.0" type="curve"/>
      <point x="34.0" y="859.0"/>
      <point x="34.0" y="829.0"/>
      <point x="34.0" y="802.0" type="curve"/>
      <point x="27.0" y="802.0"/>
      <point x="103.0" y="814.0"/>
      <point x="144.0" y="814.0" type="curve" smooth="yes"/>
      <point x="262.0" y="558.0"/>
      <point x="378.0" y="301.0"/>
      <point x="496.0" y="44.0" type="curve" smooth="yes"/>
      <point x="520.0" y="-8.0"/>
      <point x="544.0" y="-2.0"/>
    </contour>
  </outline>
</glyph>
<glyph name="w" format="2">
  <advance width="1550.0"/>
  <unicode hex="0077"/>
  <outline>
    <contour>
      <point x="1400.0" y="764.0" type="line" smooth="yes"/>
      <point x="1414.0" y="808.0"/>
      <point x="1440.0" y="802.0"/>
      <point x="1518.0" y="802.0" type="curve"/>
      <point x="1518.0" y="829.0"/>
      <point x="1518.0" y="859.0"/>
      <point x="1518.0" y="886.0" type="curve"/>
      <point x="1476.0" y="884.0"/>
      <point x="1434.0" y="882.0"/>
      <point x="1390.0" y="882.0" type="curve" smooth="yes"/>
      <point x="1356.0" y="882.0"/>
      <point x="1266.0" y="882.0"/>
      <point x="1226.0" y="886.0" type="curve"/>
      <point x="1226.0" y="859.0"/>
      <point x="1226.0" y="829.0"/>
      <point x="1226.0" y="802.0" type="curve"/>
      <point x="1234.0" y="800.0"/>
      <point x="1322.0" y="798.0"/>
      <point x="1322.0" y="784.0" type="curve" smooth="yes"/>
      <point x="1322.0" y="776.0"/>
      <point x="1312.0" y="750.0"/>
      <point x="1316.0" y="756.0" type="curve" smooth="yes"/>
      <point x="1100.0" y="212.0" type="line"/>
      <point x="866.0" y="804.0" type="line" smooth="yes"/>
      <point x="870.0" y="794.0"/>
      <point x="866.0" y="806.0"/>
      <point x="866.0" y="804.0" type="curve" smooth="yes"/>
      <point x="903.0" y="802.0"/>
      <point x="931.0" y="802.0"/>
      <point x="960.0" y="802.0" type="curve"/>
      <point x="960.0" y="886.0" type="line"/>
      <point x="908.0" y="882.0"/>
      <point x="822.0" y="882.0"/>
      <point x="762.0" y="882.0" type="curve" smooth="yes"/>
      <point x="688.0" y="882.0"/>
      <point x="610.0" y="884.0"/>
      <point x="592.0" y="886.0" type="curve"/>
      <point x="592.0" y="802.0" type="line"/>
      <point x="615.0" y="802.0"/>
      <point x="651.0" y="804.0"/>
      <point x="688.0" y="812.0" type="curve" smooth="yes"/>
      <point x="724.0" y="738.0"/>
      <point x="728.0" y="726.0"/>
      <point x="734.0" y="704.0" type="curve"/>
      <point x="554.0" y="244.0" type="line"/>
      <point x="336.0" y="804.0" type="line"/>
      <point x="336.0" y="806.0"/>
      <point x="336.0" y="806.0"/>
      <point x="336.0" y="804.0" type="curve" smooth="yes"/>
      <point x="373.0" y="802.0"/>
      <point x="401.0" y="802.0"/>
      <point x="430.0" y="802.0" type="curve"/>
      <point x="430.0" y="886.0" type="line"/>
      <point x="360.0" y="880.0"/>
      <point x="306.0" y="882.0"/>
      <point x="220.0" y="882.0" type="curve" smooth="yes"/>
      <point x="122.0" y="882.0"/>
      <point x="72.0" y="884.0"/>
      <point x="34.0" y="886.0" type="curve"/>
      <point x="34.0" y="802.0" type="line"/>
      <point x="61.0" y="802.0"/>
      <point x="99.0" y="802.0"/>
      <point x="136.0" y="800.0" type="curve" smooth="yes"/>
      <point x="436.0" y="40.0" type="line" smooth="yes"/>
      <point x="448.0" y="8.0"/>
      <point x="456.0" y="-2.0"/>
      <point x="496.0" y="-2.0" type="curve" smooth="yes"/>
      <point x="534.0" y="-2.0"/>
      <point x="546.0" y="10.0"/>
      <point x="560.0" y="46.0" type="curve" smooth="yes"/>
      <point x="776.0" y="602.0" type="line"/>
      <point x="992.0" y="48.0" type="line" smooth="yes"/>
      <point x="1008.0" y="6.0"/>
      <point x="1018.0" y="-2.0"/>
      <point x="1056.0" y="-2.0" type="curve" smooth="yes"/>
      <point x="1096.0" y="-2.0"/>
      <point x="1104.0" y="6.0"/>
      <point x="1118.0" y="46.0" type="curve" smooth="yes"/>
    </contour>
  </outline>
</glyph>
<glyph name="x" format="2">
  <advance width="1126.0"/>
  <unicode hex="0078"/>
  <outline>
    <contour>
      <point x="480.0" y="426.0" type="line"/>
      <point x="206.0" y="120.0" type="line" smooth="yes"/>
      <point x="178.0" y="90.0"/>
      <point x="130.0" y="86.0"/>
      <point x="22.0" y="84.0" type="curve"/>
      <point x="22.0" y="0.0" type="line"/>
      <point x="74.0" y="2.0"/>
      <point x="186.0" y="4.0"/>
      <point x="180.0" y="4.0" type="curve" smooth="yes"/>
      <point x="212.0" y="4.0"/>
      <point x="332.0" y="4.0"/>
      <point x="360.0" y="0.0" type="curve"/>
      <point x="360.0" y="84.0" type="line"/>
      <point x="356.0" y="80.0"/>
      <point x="300.0" y="68.0"/>
      <point x="300.0" y="96.0" type="curve" smooth="yes"/>
      <point x="300.0" y="106.0"/>
      <point x="294.0" y="94.0"/>
      <point x="278.0" y="76.0" type="curve" smooth="yes"/>
      <point x="361.0" y="173.0"/>
      <point x="445.0" y="269.0"/>
      <point x="528.0" y="366.0" type="curve"/>
      <point x="770.0" y="80.0" type="line" smooth="yes"/>
      <point x="770.0" y="80.0"/>
      <point x="768.0" y="82.0"/>
      <point x="768.0" y="80.0" type="curve" smooth="yes"/>
      <point x="742.0" y="70.0"/>
      <point x="710.0" y="84.0"/>
      <point x="706.0" y="84.0" type="curve"/>
      <point x="706.0" y="0.0" type="line"/>
      <point x="746.0" y="4.0"/>
      <point x="842.0" y="4.0"/>
      <point x="914.0" y="4.0" type="curve" smooth="yes"/>
      <point x="978.0" y="4.0"/>
      <point x="1054.0" y="2.0"/>
      <point x="1104.0" y="0.0" type="curve"/>
      <point x="1104.0" y="84.0" type="line"/>
      <point x="1065.0" y="84.0"/>
      <point x="1023.0" y="84.0"/>
      <point x="974.0" y="88.0" type="curve" smooth="yes"/>
      <point x="638.0" y="488.0" type="line"/>
      <point x="864.0" y="748.0" type="line" smooth="yes"/>
      <point x="898.0" y="788.0"/>
      <point x="908.0" y="802.0"/>
      <point x="1068.0" y="802.0" type="curve"/>
      <point x="1068.0" y="886.0" type="line"/>
      <point x="1016.0" y="884.0"/>
      <point x="902.0" y="882.0"/>
      <point x="908.0" y="882.0" type="curve" smooth="yes"/>
      <point x="864.0" y="882.0"/>
      <point x="808.0" y="882.0"/>
      <point x="732.0" y="886.0" type="curve"/>
      <point x="732.0" y="802.0" type="line"/>
      <point x="746.0" y="802.0"/>
      <point x="770.0" y="804.0"/>
      <point x="794.0" y="794.0" type="curve" smooth="yes"/>
      <point x="792.0" y="786.0"/>
      <point x="786.0" y="780.0"/>
      <point x="778.0" y="768.0" type="curve" smooth="yes"/>
      <point x="586.0" y="548.0" type="line"/>
      <point x="370.0" y="806.0" type="line" smooth="yes"/>
      <point x="368.0" y="806.0"/>
      <point x="370.0" y="808.0"/>
      <point x="370.0" y="806.0" type="curve" smooth="yes"/>
      <point x="397.0" y="800.0"/>
      <point x="413.0" y="802.0"/>
      <point x="434.0" y="802.0" type="curve"/>
      <point x="434.0" y="886.0" type="line"/>
      <point x="386.0" y="882.0"/>
      <point x="306.0" y="882.0"/>
      <point x="224.0" y="882.0" type="curve" smooth="yes"/>
      <point x="148.0" y="882.0"/>
      <point x="88.0" y="884.0"/>
      <point x="32.0" y="886.0" type="curve"/>
      <point x="32.0" y="802.0" type="line"/>
      <point x="47.0" y="802.0"/>
      <point x="119.0" y="796.0"/>
      <point x="118.0" y="856.0" type="curve" smooth="yes"/>
    </contour>
  </outline>
</glyph>
<glyph name="y" format="2">
  <advance width="1126.0"/>
  <unicode hex="0079"/>
  <outline>
    <contour>
      <point x="232.0" y="-396.0" type="curve" smooth="yes"/>
      <point x="376.0" y="-396.0"/>
      <point x="482.0" y="-274.0"/>
      <point x="528.0" y="-174.0" type="curve" smooth="yes"/>
      <point x="962.0" y="764.0" type="line" smooth="yes"/>
      <point x="974.0" y="788.0"/>
      <point x="968.0" y="802.0"/>
      <point x="1092.0" y="802.0" type="curve"/>
      <point x="1092.0" y="886.0" type="line"/>
      <point x="1052.0" y="884.0"/>
      <point x="1000.0" y="882.0"/>
      <point x="958.0" y="882.0" type="curve" smooth="yes"/>
      <point x="902.0" y="882.0"/>
      <point x="840.0" y="882.0"/>
      <point x="802.0" y="886.0" type="curve"/>
      <point x="802.0" y="802.0" type="line"/>
      <point x="820.0" y="798.0"/>
      <point x="880.0" y="776.0"/>
      <point x="880.0" y="786.0" type="curve" smooth="yes"/>
      <point x="880.0" y="784.0"/>
      <point x="870.0" y="758.0"/>
      <point x="868.0" y="756.0" type="curve" smooth="yes"/>
      <point x="622.0" y="216.0" type="line"/>
      <point x="352.0" y="802.0" type="line" smooth="yes"/>
      <point x="350.0" y="806.0"/>
      <point x="354.0" y="812.0"/>
      <point x="354.0" y="806.0" type="curve" smooth="yes"/>
      <point x="390.0" y="798.0"/>
      <point x="398.0" y="802.0"/>
      <point x="444.0" y="802.0" type="curve"/>
      <point x="444.0" y="886.0" type="line"/>
      <point x="382.0" y="880.0"/>
      <point x="248.0" y="882.0"/>
      <point x="230.0" y="882.0" type="curve" smooth="yes"/>
      <point x="174.0" y="882.0"/>
      <point x="100.0" y="884.0"/>
      <point x="34.0" y="886.0" type="curve"/>
      <point x="34.0" y="802.0" type="line"/>
      <point x="89.0" y="802.0"/>
      <point x="105.0" y="792.0"/>
      <point x="146.0" y="798.0" type="curve" smooth="yes"/>
      <point x="518.0" y="0.0" type="line"/>
      <point x="506.0" y="-31.0"/>
      <point x="492.0" y="-59.0"/>
      <point x="482.0" y="-84.0" type="curve" smooth="yes"/>
      <point x="416.0" y="-240.0"/>
      <point x="352.0" y="-336.0"/>
      <point x="232.0" y="-336.0" type="curve" smooth="yes"/>
      <point x="192.0" y="-336.0"/>
      <point x="184.0" y="-328.0"/>
      <point x="170.0" y="-322.0" type="curve"/>
      <point x="172.0" y="-318.0"/>
      <point x="222.0" y="-306.0"/>
      <point x="222.0" y="-234.0" type="curve" smooth="yes"/>
      <point x="222.0" y="-186.0"/>
      <point x="188.0" y="-140.0"/>
      <point x="126.0" y="-140.0" type="curve" smooth="yes"/>
      <point x="66.0" y="-140.0"/>
      <point x="30.0" y="-182.0"/>
      <point x="30.0" y="-236.0" type="curve" smooth="yes"/>
      <point x="30.0" y="-328.0"/>
      <point x="122.0" y="-396.0"/>
    </contour>
  </outline>
</glyph>
<glyph name="z" format="2">
  <advance width="946.0"/>
  <unicode hex="007A"/>
  <outline>
    <contour>
      <point x="620.0" y="826.0" type="line"/>
      <point x="48.0" y="54.0" type="line" smooth="yes"/>
      <point x="48.0" y="54.0"/>
      <point x="48.0" y="54.0"/>
      <point x="48.0" y="46.0" type="curve" smooth="yes"/>
      <point x="48.0" y="2.0"/>
      <point x="62.0" y="0.0"/>
      <point x="104.0" y="0.0" type="curve" smooth="yes"/>
      <point x="836.0" y="0.0" type="line"/>
      <point x="866.0" y="390.0" type="line"/>
      <point x="786.0" y="390.0" type="line"/>
      <point x="770.0" y="202.0"/>
      <point x="754.0" y="66.0"/>
      <point x="478.0" y="66.0" type="curve" smooth="yes"/>
      <point x="286.0" y="66.0" type="line"/>
      <point x="840.0" y="814.0" type="line" smooth="yes"/>
      <point x="854.0" y="834.0"/>
      <point x="858.0" y="838.0"/>
      <point x="858.0" y="852.0" type="curve" smooth="yes"/>
      <point x="858.0" y="886.0"/>
      <point x="838.0" y="886.0"/>
      <point x="802.0" y="886.0" type="curve" smooth="yes"/>
      <point x="100.0" y="886.0" type="line"/>
      <point x="78.0" y="548.0" type="line"/>
      <point x="158.0" y="548.0" type="line"/>
      <point x="172.0" y="744.0"/>
      <point x="218.0" y="826.0"/>
      <point x="434.0" y="826.0" type="curve" smooth="yes"/>
    </contour>
  </outline>
</glyph>
<glyph name="exclamdown" format="2">
  <advance width="644.0"/>
  <unicode hex="00A1"/>
  <outline>
    <contour>
      <point x="322.0" y="-400.0" type="curve" smooth="yes"/>
      <point x="390.0" y="-400.0"/>
      <point x="456.0" y="-350.0"/>
      <point x="456.0" y="-280.0" type="curve"/>
      <point x="461.0" y="-249.0"/>
      <point x="466.0" y="-225.0"/>
      <point x="364.0" y="550.0" type="curve" smooth="yes"/>
      <point x="358.0" y="584.0"/>
      <point x="354.0" y="584.0"/>
      <point x="322.0" y="584.0" type="curve" smooth="yes"/>
      <point x="282.0" y="584.0"/>
      <point x="286.0" y="578.0"/>
      <point x="280.0" y="542.0" type="curve" smooth="yes"/>
      <point x="285.0" y="520.0"/>
      <point x="183.0" y="-258.0"/>
      <point x="188.0" y="-280.0" type="curve"/>
      <point x="188.0" y="-350.0"/>
      <point x="254.0" y="-400.0"/>
    </contour>
    <contour>
      <point x="454.0" y="868.0" type="curve" smooth="yes"/>
      <point x="454.0" y="940.0"/>
      <point x="396.0" y="1000.0"/>
      <point x="322.0" y="1000.0" type="curve" smooth="yes"/>
      <point x="250.0" y="1000.0"/>
      <point x="190.0" y="942.0"/>
      <point x="190.0" y="868.0" type="curve" smooth="yes"/>
      <point x="190.0" y="796.0"/>
      <point x="248.0" y="736.0"/>
      <point x="322.0" y="736.0" type="curve" smooth="yes"/>
      <point x="394.0" y="736.0"/>
      <point x="454.0" y="794.0"/>
    </contour>
  </outline>
</glyph>
<glyph name="dieresis" format="2">
  <advance width="1066.0"/>
  <unicode hex="00A8"/>
  <outline>
    <contour>
      <point x="444.0" y="1240.0" type="curve" smooth="yes"/>
      <point x="444.0" y="1332.0"/>
      <point x="372.0" y="1366.0"/>
      <point x="322.0" y="1366.0" type="curve" smooth="yes"/>
      <point x="236.0" y="1366.0"/>
      <point x="196.0" y="1292.0"/>
      <point x="196.0" y="1244.0" type="curve" smooth="yes"/>
      <point x="196.0" y="1184.0"/>
      <point x="246.0" y="1118.0"/>
      <point x="322.0" y="1118.0" type="curve" smooth="yes"/>
      <point x="380.0" y="1118.0"/>
      <point x="444.0" y="1162.0"/>
    </contour>
    <contour>
      <point x="870.0" y="1240.0" type="curve" smooth="yes"/>
      <point x="870.0" y="1300.0"/>
      <point x="820.0" y="1366.0"/>
      <point x="744.0" y="1366.0" type="curve" smooth="yes"/>
      <point x="686.0" y="1366.0"/>
      <point x="622.0" y="1322.0"/>
      <point x="622.0" y="1244.0" type="curve" smooth="yes"/>
      <point x="622.0" y="1152.0"/>
      <point x="694.0" y="1118.0"/>
      <point x="744.0" y="1118.0" type="curve" smooth="yes"/>
      <point x="830.0" y="1118.0"/>
      <point x="870.0" y="1192.0"/>
    </contour>
  </outline>
</glyph>
<glyph name="macron" format="2">
  <advance width="1066.0"/>
  <unicode hex="00AF"/>
  <outline>
    <contour>
      <point x="926.0" y="1098.0" type="line"/>
      <point x="926.0" y="1186.0" type="line"/>
      <point x="140.0" y="1186.0" type="line"/>
      <point x="140.0" y="1098.0" type="line"/>
    </contour>
  </outline>
</glyph>
<glyph name="acute" format="2">
  <advance width="1066.0"/>
  <unicode hex="00B4"/>
  <outline>
    <contour>
      <point x="490.0" y="1022.0" type="line"/>
      <point x="782.0" y="1206.0" type="line" smooth="yes"/>
      <point x="820.0" y="1232.0"/>
      <point x="854.0" y="1236.0"/>
      <point x="854.0" y="1298.0" type="curve" smooth="yes"/>
      <point x="854.0" y="1354.0"/>
      <point x="808.0" y="1404.0"/>
      <point x="752.0" y="1404.0" type="curve" smooth="yes"/>
      <point x="712.0" y="1404.0"/>
      <point x="702.0" y="1390.0"/>
      <point x="666.0" y="1352.0" type="curve"/>
      <point x="614.0" y="1293.0"/>
      <point x="492.0" y="1144.0"/>
      <point x="442.0" y="1084.0" type="curve"/>
    </contour>
  </outline>
</glyph>
